G04 #@! TF.GenerationSoftware,KiCad,Pcbnew,5.0.2-bee76a0~70~ubuntu16.04.1*
G04 #@! TF.CreationDate,2019-05-11T19:32:04-04:00*
G04 #@! TF.ProjectId,ControllerBoard,436f6e74-726f-46c6-9c65-72426f617264,rev?*
G04 #@! TF.SameCoordinates,Original*
G04 #@! TF.FileFunction,Copper,L1,Top*
G04 #@! TF.FilePolarity,Positive*
%FSLAX46Y46*%
G04 Gerber Fmt 4.6, Leading zero omitted, Abs format (unit mm)*
G04 Created by KiCad (PCBNEW 5.0.2-bee76a0~70~ubuntu16.04.1) date Sat 11 May 2019 07:32:04 PM EDT*
%MOMM*%
%LPD*%
G01*
G04 APERTURE LIST*
G04 #@! TA.AperFunction,ComponentPad*
%ADD10R,2.600000X2.600000*%
G04 #@! TD*
G04 #@! TA.AperFunction,ComponentPad*
%ADD11C,2.600000*%
G04 #@! TD*
G04 #@! TA.AperFunction,ComponentPad*
%ADD12O,1.700000X1.700000*%
G04 #@! TD*
G04 #@! TA.AperFunction,ComponentPad*
%ADD13R,1.700000X1.700000*%
G04 #@! TD*
G04 #@! TA.AperFunction,ComponentPad*
%ADD14O,1.600000X1.600000*%
G04 #@! TD*
G04 #@! TA.AperFunction,ComponentPad*
%ADD15C,1.600000*%
G04 #@! TD*
G04 #@! TA.AperFunction,ComponentPad*
%ADD16R,1.800000X1.800000*%
G04 #@! TD*
G04 #@! TA.AperFunction,ComponentPad*
%ADD17C,1.800000*%
G04 #@! TD*
G04 #@! TA.AperFunction,ComponentPad*
%ADD18R,1.600000X1.600000*%
G04 #@! TD*
G04 #@! TA.AperFunction,ComponentPad*
%ADD19C,1.000000*%
G04 #@! TD*
G04 #@! TA.AperFunction,ComponentPad*
%ADD20C,4.064000*%
G04 #@! TD*
G04 #@! TA.AperFunction,ViaPad*
%ADD21C,0.685800*%
G04 #@! TD*
G04 #@! TA.AperFunction,Conductor*
%ADD22C,0.254000*%
G04 #@! TD*
G04 APERTURE END LIST*
D10*
G04 #@! TO.P,J1,1*
G04 #@! TO.N,VCC*
X116078000Y-90932000D03*
D11*
G04 #@! TO.P,J1,2*
G04 #@! TO.N,GND*
X116078000Y-85932000D03*
G04 #@! TD*
D12*
G04 #@! TO.P,J2,6*
G04 #@! TO.N,/SW1*
X107188000Y-54864000D03*
G04 #@! TO.P,J2,5*
G04 #@! TO.N,GND*
X107188000Y-57404000D03*
G04 #@! TO.P,J2,4*
G04 #@! TO.N,/SW2*
X107188000Y-59944000D03*
G04 #@! TO.P,J2,3*
G04 #@! TO.N,GND*
X107188000Y-62484000D03*
G04 #@! TO.P,J2,2*
G04 #@! TO.N,/SW3*
X107188000Y-65024000D03*
D13*
G04 #@! TO.P,J2,1*
G04 #@! TO.N,GND*
X107188000Y-67564000D03*
G04 #@! TD*
D12*
G04 #@! TO.P,J3,16*
G04 #@! TO.N,VCC*
X76200000Y-54610000D03*
G04 #@! TO.P,J3,15*
G04 #@! TO.N,/D7*
X76200000Y-57150000D03*
G04 #@! TO.P,J3,14*
G04 #@! TO.N,VCC*
X73660000Y-54610000D03*
G04 #@! TO.P,J3,13*
G04 #@! TO.N,/D6*
X73660000Y-57150000D03*
G04 #@! TO.P,J3,12*
G04 #@! TO.N,VCC*
X71120000Y-54610000D03*
G04 #@! TO.P,J3,11*
G04 #@! TO.N,/D5*
X71120000Y-57150000D03*
G04 #@! TO.P,J3,10*
G04 #@! TO.N,VCC*
X68580000Y-54610000D03*
G04 #@! TO.P,J3,9*
G04 #@! TO.N,/D4*
X68580000Y-57150000D03*
G04 #@! TO.P,J3,8*
G04 #@! TO.N,/AN3*
X66040000Y-54610000D03*
G04 #@! TO.P,J3,7*
G04 #@! TO.N,/D3*
X66040000Y-57150000D03*
G04 #@! TO.P,J3,6*
G04 #@! TO.N,/AN2*
X63500000Y-54610000D03*
G04 #@! TO.P,J3,5*
G04 #@! TO.N,/D2*
X63500000Y-57150000D03*
G04 #@! TO.P,J3,4*
G04 #@! TO.N,/AN1*
X60960000Y-54610000D03*
G04 #@! TO.P,J3,3*
G04 #@! TO.N,/D1*
X60960000Y-57150000D03*
G04 #@! TO.P,J3,2*
G04 #@! TO.N,/AN0*
X58420000Y-54610000D03*
D13*
G04 #@! TO.P,J3,1*
G04 #@! TO.N,/D0*
X58420000Y-57150000D03*
G04 #@! TD*
D14*
G04 #@! TO.P,R1,2*
G04 #@! TO.N,/SCL*
X74168000Y-85090000D03*
D15*
G04 #@! TO.P,R1,1*
G04 #@! TO.N,VCC*
X81788000Y-85090000D03*
G04 #@! TD*
G04 #@! TO.P,R2,1*
G04 #@! TO.N,VCC*
X81788000Y-88392000D03*
D14*
G04 #@! TO.P,R2,2*
G04 #@! TO.N,/SDA*
X74168000Y-88392000D03*
G04 #@! TD*
D16*
G04 #@! TO.P,TB1,1*
G04 #@! TO.N,/D1*
X91186000Y-65786000D03*
D17*
G04 #@! TO.P,TB1,2*
G04 #@! TO.N,/D0*
X88646000Y-65786000D03*
G04 #@! TO.P,TB1,3*
G04 #@! TO.N,Net-(TB1-Pad28)*
X86106000Y-65786000D03*
G04 #@! TO.P,TB1,4*
G04 #@! TO.N,GND*
X83566000Y-65786000D03*
G04 #@! TO.P,TB1,5*
G04 #@! TO.N,/D2*
X81026000Y-65786000D03*
G04 #@! TO.P,TB1,6*
G04 #@! TO.N,/D3*
X78486000Y-65786000D03*
G04 #@! TO.P,TB1,7*
G04 #@! TO.N,/D4*
X75946000Y-65786000D03*
G04 #@! TO.P,TB1,8*
G04 #@! TO.N,/D5*
X73406000Y-65786000D03*
G04 #@! TO.P,TB1,9*
G04 #@! TO.N,/D6*
X70866000Y-65786000D03*
G04 #@! TO.P,TB1,10*
G04 #@! TO.N,/D7*
X68326000Y-65786000D03*
G04 #@! TO.P,TB1,11*
G04 #@! TO.N,/AN0*
X65786000Y-65786000D03*
G04 #@! TO.P,TB1,12*
G04 #@! TO.N,/AN1*
X63246000Y-65786000D03*
G04 #@! TO.P,TB1,13*
G04 #@! TO.N,/AN2*
X60706000Y-65786000D03*
G04 #@! TO.P,TB1,14*
G04 #@! TO.N,/SW1*
X58166000Y-65786000D03*
G04 #@! TO.P,TB1,15*
G04 #@! TO.N,/AN3*
X55626000Y-65786000D03*
G04 #@! TO.P,TB1,16*
G04 #@! TO.N,Net-(TB1-Pad16)*
X55626000Y-81026000D03*
G04 #@! TO.P,TB1,17*
G04 #@! TO.N,Net-(TB1-Pad17)*
X58166000Y-81026000D03*
G04 #@! TO.P,TB1,18*
G04 #@! TO.N,VCC*
X60706000Y-81026000D03*
G04 #@! TO.P,TB1,19*
G04 #@! TO.N,/SW3*
X63246000Y-81026000D03*
G04 #@! TO.P,TB1,20*
G04 #@! TO.N,/SW2*
X65786000Y-81026000D03*
G04 #@! TO.P,TB1,21*
G04 #@! TO.N,Net-(TB1-Pad21)*
X68326000Y-81026000D03*
G04 #@! TO.P,TB1,22*
G04 #@! TO.N,Net-(TB1-Pad22)*
X70866000Y-81026000D03*
G04 #@! TO.P,TB1,23*
G04 #@! TO.N,/SDA*
X73406000Y-81026000D03*
G04 #@! TO.P,TB1,24*
G04 #@! TO.N,/SCL*
X75946000Y-81026000D03*
G04 #@! TO.P,TB1,25*
G04 #@! TO.N,Net-(TB1-Pad25)*
X78486000Y-81026000D03*
G04 #@! TO.P,TB1,26*
G04 #@! TO.N,Net-(TB1-Pad26)*
X81026000Y-81026000D03*
G04 #@! TO.P,TB1,27*
G04 #@! TO.N,VCC*
X83566000Y-81026000D03*
G04 #@! TO.P,TB1,28*
G04 #@! TO.N,Net-(TB1-Pad28)*
X86106000Y-81026000D03*
G04 #@! TO.P,TB1,29*
G04 #@! TO.N,GND*
X88646000Y-81026000D03*
G04 #@! TO.P,TB1,30*
G04 #@! TO.N,Net-(TB1-Pad30)*
X91186000Y-81026000D03*
G04 #@! TD*
D14*
G04 #@! TO.P,U1,8*
G04 #@! TO.N,VCC*
X99822000Y-73152000D03*
G04 #@! TO.P,U1,4*
G04 #@! TO.N,GND*
X107442000Y-80772000D03*
G04 #@! TO.P,U1,7*
G04 #@! TO.N,Net-(U1-Pad7)*
X102362000Y-73152000D03*
G04 #@! TO.P,U1,3*
G04 #@! TO.N,GND*
X104902000Y-80772000D03*
G04 #@! TO.P,U1,6*
G04 #@! TO.N,/SCL*
X104902000Y-73152000D03*
G04 #@! TO.P,U1,2*
G04 #@! TO.N,Net-(U1-Pad2)*
X102362000Y-80772000D03*
G04 #@! TO.P,U1,5*
G04 #@! TO.N,/SDA*
X107442000Y-73152000D03*
D18*
G04 #@! TO.P,U1,1*
G04 #@! TO.N,Net-(U1-Pad1)*
X99822000Y-80772000D03*
G04 #@! TD*
D19*
G04 #@! TO.P,Y1,2*
G04 #@! TO.N,Net-(U1-Pad2)*
X101722000Y-84074000D03*
G04 #@! TO.P,Y1,1*
G04 #@! TO.N,Net-(U1-Pad1)*
X99822000Y-84074000D03*
G04 #@! TD*
D20*
G04 #@! TO.P,REF\002A\002A,1*
G04 #@! TO.N,N/C*
X53848000Y-53848000D03*
G04 #@! TD*
G04 #@! TO.P,REF\002A\002A,1*
G04 #@! TO.N,N/C*
X118872000Y-53848000D03*
G04 #@! TD*
G04 #@! TO.P,REF\002A\002A,1*
G04 #@! TO.N,N/C*
X53848000Y-98552000D03*
G04 #@! TD*
G04 #@! TO.P,REF\002A\002A,1*
G04 #@! TO.N,N/C*
X118872000Y-98552000D03*
G04 #@! TD*
D21*
G04 #@! TO.N,/SW3*
X100584000Y-65024000D03*
G04 #@! TO.N,/D5*
X73406000Y-62484000D03*
G04 #@! TO.N,/D4*
X70231000Y-61709300D03*
G04 #@! TO.N,/D3*
X67183000Y-61087000D03*
G04 #@! TO.N,/D2*
X64770000Y-60439300D03*
G04 #@! TO.N,/AN0*
X60261500Y-62611000D03*
G04 #@! TD*
D22*
G04 #@! TO.N,VCC*
X116078000Y-92486000D02*
X112044000Y-96520000D01*
X116078000Y-90932000D02*
X116078000Y-92486000D01*
X89916000Y-96520000D02*
X81788000Y-88392000D01*
X112044000Y-96520000D02*
X89916000Y-96520000D01*
X81788000Y-88392000D02*
X81788000Y-85090000D01*
X83566000Y-83312000D02*
X83566000Y-81026000D01*
X81788000Y-85090000D02*
X83566000Y-83312000D01*
X91440000Y-73152000D02*
X99822000Y-73152000D01*
X83566000Y-81026000D02*
X91440000Y-73152000D01*
X98298000Y-54610000D02*
X76200000Y-54610000D01*
X99822000Y-56134000D02*
X98298000Y-54610000D01*
X99822000Y-73152000D02*
X99822000Y-56134000D01*
X74997919Y-54610000D02*
X73660000Y-54610000D01*
X76200000Y-54610000D02*
X74997919Y-54610000D01*
X72457919Y-54610000D02*
X71120000Y-54610000D01*
X73660000Y-54610000D02*
X72457919Y-54610000D01*
X69917919Y-54610000D02*
X68580000Y-54610000D01*
X71120000Y-54610000D02*
X69917919Y-54610000D01*
X60706000Y-83820000D02*
X60706000Y-81026000D01*
X67564000Y-90678000D02*
X60706000Y-83820000D01*
X79502000Y-90678000D02*
X67564000Y-90678000D01*
X81788000Y-88392000D02*
X79502000Y-90678000D01*
G04 #@! TO.N,GND*
X116078000Y-82042000D02*
X114808000Y-80772000D01*
X114808000Y-80772000D02*
X107442000Y-80772000D01*
X116078000Y-85932000D02*
X116078000Y-82042000D01*
X106310630Y-80772000D02*
X104902000Y-80772000D01*
X107442000Y-80772000D02*
X106310630Y-80772000D01*
X88646000Y-82298792D02*
X88646000Y-81026000D01*
X89151208Y-82804000D02*
X88646000Y-82298792D01*
X104902000Y-80772000D02*
X103124000Y-78994000D01*
X103124000Y-78994000D02*
X97536000Y-78994000D01*
X97536000Y-78994000D02*
X93726000Y-82804000D01*
X93726000Y-82804000D02*
X89151208Y-82804000D01*
X116078000Y-69596000D02*
X114046000Y-67564000D01*
X116078000Y-82042000D02*
X116078000Y-69596000D01*
X114046000Y-67564000D02*
X109982000Y-67564000D01*
X109982000Y-67564000D02*
X107188000Y-67564000D01*
X108712000Y-57404000D02*
X107188000Y-57404000D01*
X109982000Y-58674000D02*
X108712000Y-57404000D01*
X108966000Y-62484000D02*
X109982000Y-63500000D01*
X107188000Y-62484000D02*
X108966000Y-62484000D01*
X109982000Y-63500000D02*
X109982000Y-58674000D01*
X109982000Y-67564000D02*
X109982000Y-63500000D01*
G04 #@! TO.N,/SW3*
X100584000Y-65024000D02*
X107188000Y-65024000D01*
G04 #@! TO.N,/D5*
X73406000Y-65786000D02*
X73406000Y-62484000D01*
G04 #@! TO.N,/D4*
X75946000Y-65786000D02*
X75946000Y-64513208D01*
X75946000Y-64513208D02*
X75946000Y-62865000D01*
X74790300Y-61709300D02*
X70231000Y-61709300D01*
X75946000Y-62865000D02*
X74790300Y-61709300D01*
G04 #@! TO.N,/AN3*
X64135000Y-52705000D02*
X66040000Y-54610000D01*
X57340500Y-52705000D02*
X64135000Y-52705000D01*
X56769000Y-55245000D02*
X56769000Y-53276500D01*
X55626000Y-56388000D02*
X56769000Y-55245000D01*
X55626000Y-65786000D02*
X55626000Y-56388000D01*
X56769000Y-53276500D02*
X57340500Y-52705000D01*
G04 #@! TO.N,/D3*
X78486000Y-65786000D02*
X78486000Y-64513208D01*
X78486000Y-64513208D02*
X78486000Y-62230000D01*
X77343000Y-61087000D02*
X67183000Y-61087000D01*
X78486000Y-62230000D02*
X77343000Y-61087000D01*
G04 #@! TO.N,/AN2*
X63119000Y-55880000D02*
X63500000Y-55499000D01*
X56324500Y-56832500D02*
X57277000Y-55880000D01*
X56324500Y-62865000D02*
X56324500Y-56832500D01*
X57277000Y-55880000D02*
X63119000Y-55880000D01*
X60706000Y-65786000D02*
X60706000Y-64513208D01*
X60706000Y-64513208D02*
X60137292Y-63944500D01*
X63500000Y-55499000D02*
X63500000Y-54610000D01*
X60137292Y-63944500D02*
X57404000Y-63944500D01*
X57404000Y-63944500D02*
X56324500Y-62865000D01*
G04 #@! TO.N,/D2*
X81026000Y-65786000D02*
X81026000Y-64513208D01*
X81026000Y-64513208D02*
X81026000Y-61722000D01*
X79743300Y-60439300D02*
X64770000Y-60439300D01*
X81026000Y-61722000D02*
X79743300Y-60439300D01*
G04 #@! TO.N,/D1*
X91186000Y-65786000D02*
X91186000Y-64632000D01*
X91186000Y-64632000D02*
X85863000Y-59309000D01*
X85863000Y-59309000D02*
X61595000Y-59309000D01*
X60960000Y-58674000D02*
X60960000Y-57150000D01*
X61595000Y-59309000D02*
X60960000Y-58674000D01*
G04 #@! TO.N,/AN0*
X65786000Y-65786000D02*
X63944500Y-63944500D01*
X61595000Y-63944500D02*
X60261500Y-62611000D01*
X63944500Y-63944500D02*
X61595000Y-63944500D01*
G04 #@! TO.N,/D0*
X58420000Y-58674000D02*
X58420000Y-57150000D01*
X88646000Y-65786000D02*
X88646000Y-62992000D01*
X59563000Y-59817000D02*
X58420000Y-58674000D01*
X88646000Y-62992000D02*
X85471000Y-59817000D01*
X85471000Y-59817000D02*
X59563000Y-59817000D01*
G04 #@! TO.N,/SCL*
X74168000Y-82804000D02*
X74168000Y-85090000D01*
X75946000Y-81026000D02*
X74168000Y-82804000D01*
G04 #@! TO.N,/SDA*
X73406000Y-88392000D02*
X74168000Y-88392000D01*
X72506001Y-87492001D02*
X73406000Y-88392000D01*
X72506001Y-81925999D02*
X72506001Y-87492001D01*
X73406000Y-81026000D02*
X72506001Y-81925999D01*
G04 #@! TO.N,Net-(U1-Pad1)*
X99822000Y-81826000D02*
X99822000Y-84074000D01*
X99822000Y-80772000D02*
X99822000Y-81826000D01*
G04 #@! TO.N,Net-(U1-Pad2)*
X102362000Y-83434000D02*
X101722000Y-84074000D01*
X102362000Y-80772000D02*
X102362000Y-83434000D01*
G04 #@! TD*
G04 #@! TO.N,VCC*
G36*
X117361266Y-51587026D02*
X116611026Y-52337266D01*
X116205000Y-53317501D01*
X116205000Y-54378499D01*
X116611026Y-55358734D01*
X117361266Y-56108974D01*
X118341501Y-56515000D01*
X119402499Y-56515000D01*
X120382734Y-56108974D01*
X121132974Y-55358734D01*
X121210000Y-55172776D01*
X121210001Y-97227226D01*
X121132974Y-97041266D01*
X120382734Y-96291026D01*
X119402499Y-95885000D01*
X118341501Y-95885000D01*
X117361266Y-96291026D01*
X116611026Y-97041266D01*
X116205000Y-98021501D01*
X116205000Y-99082499D01*
X116611026Y-100062734D01*
X117361266Y-100812974D01*
X117547224Y-100890000D01*
X55172776Y-100890000D01*
X55358734Y-100812974D01*
X56108974Y-100062734D01*
X56515000Y-99082499D01*
X56515000Y-98021501D01*
X56108974Y-97041266D01*
X55358734Y-96291026D01*
X54378499Y-95885000D01*
X53317501Y-95885000D01*
X52337266Y-96291026D01*
X51587026Y-97041266D01*
X51510000Y-97227224D01*
X51510000Y-91217750D01*
X114143000Y-91217750D01*
X114143000Y-92358309D01*
X114239673Y-92591698D01*
X114418301Y-92770327D01*
X114651690Y-92867000D01*
X115792250Y-92867000D01*
X115951000Y-92708250D01*
X115951000Y-91059000D01*
X116205000Y-91059000D01*
X116205000Y-92708250D01*
X116363750Y-92867000D01*
X117504310Y-92867000D01*
X117737699Y-92770327D01*
X117916327Y-92591698D01*
X118013000Y-92358309D01*
X118013000Y-91217750D01*
X117854250Y-91059000D01*
X116205000Y-91059000D01*
X115951000Y-91059000D01*
X114301750Y-91059000D01*
X114143000Y-91217750D01*
X51510000Y-91217750D01*
X51510000Y-80720670D01*
X54091000Y-80720670D01*
X54091000Y-81331330D01*
X54324690Y-81895507D01*
X54756493Y-82327310D01*
X55320670Y-82561000D01*
X55931330Y-82561000D01*
X56495507Y-82327310D01*
X56896000Y-81926817D01*
X57296493Y-82327310D01*
X57860670Y-82561000D01*
X58471330Y-82561000D01*
X59035507Y-82327310D01*
X59256658Y-82106159D01*
X59805446Y-82106159D01*
X59891852Y-82362643D01*
X60465336Y-82572458D01*
X61075460Y-82546839D01*
X61520148Y-82362643D01*
X61606554Y-82106159D01*
X60706000Y-81205605D01*
X59805446Y-82106159D01*
X59256658Y-82106159D01*
X59467310Y-81895507D01*
X59475438Y-81875885D01*
X59625841Y-81926554D01*
X60526395Y-81026000D01*
X60885605Y-81026000D01*
X61786159Y-81926554D01*
X61936562Y-81875885D01*
X61944690Y-81895507D01*
X62376493Y-82327310D01*
X62940670Y-82561000D01*
X63551330Y-82561000D01*
X64115507Y-82327310D01*
X64516000Y-81926817D01*
X64916493Y-82327310D01*
X65480670Y-82561000D01*
X66091330Y-82561000D01*
X66655507Y-82327310D01*
X67056000Y-81926817D01*
X67456493Y-82327310D01*
X68020670Y-82561000D01*
X68631330Y-82561000D01*
X69195507Y-82327310D01*
X69596000Y-81926817D01*
X69996493Y-82327310D01*
X70560670Y-82561000D01*
X71171330Y-82561000D01*
X71735507Y-82327310D01*
X71744001Y-82318816D01*
X71744002Y-87416953D01*
X71729074Y-87492001D01*
X71744002Y-87567049D01*
X71788214Y-87789318D01*
X71956631Y-88041372D01*
X72020252Y-88083882D01*
X72798378Y-88862009D01*
X72816260Y-88951909D01*
X73133423Y-89426577D01*
X73608091Y-89743740D01*
X74026667Y-89827000D01*
X74309333Y-89827000D01*
X74727909Y-89743740D01*
X75202577Y-89426577D01*
X75220505Y-89399745D01*
X80959861Y-89399745D01*
X81033995Y-89645864D01*
X81571223Y-89838965D01*
X82141454Y-89811778D01*
X82542005Y-89645864D01*
X82584226Y-89505691D01*
X114143000Y-89505691D01*
X114143000Y-90646250D01*
X114301750Y-90805000D01*
X115951000Y-90805000D01*
X115951000Y-89155750D01*
X116205000Y-89155750D01*
X116205000Y-90805000D01*
X117854250Y-90805000D01*
X118013000Y-90646250D01*
X118013000Y-89505691D01*
X117916327Y-89272302D01*
X117737699Y-89093673D01*
X117504310Y-88997000D01*
X116363750Y-88997000D01*
X116205000Y-89155750D01*
X115951000Y-89155750D01*
X115792250Y-88997000D01*
X114651690Y-88997000D01*
X114418301Y-89093673D01*
X114239673Y-89272302D01*
X114143000Y-89505691D01*
X82584226Y-89505691D01*
X82616139Y-89399745D01*
X81788000Y-88571605D01*
X80959861Y-89399745D01*
X75220505Y-89399745D01*
X75519740Y-88951909D01*
X75631113Y-88392000D01*
X75587994Y-88175223D01*
X80341035Y-88175223D01*
X80368222Y-88745454D01*
X80534136Y-89146005D01*
X80780255Y-89220139D01*
X81608395Y-88392000D01*
X81967605Y-88392000D01*
X82795745Y-89220139D01*
X83041864Y-89146005D01*
X83234965Y-88608777D01*
X83207778Y-88038546D01*
X83041864Y-87637995D01*
X82795745Y-87563861D01*
X81967605Y-88392000D01*
X81608395Y-88392000D01*
X80780255Y-87563861D01*
X80534136Y-87637995D01*
X80341035Y-88175223D01*
X75587994Y-88175223D01*
X75519740Y-87832091D01*
X75220506Y-87384255D01*
X80959861Y-87384255D01*
X81788000Y-88212395D01*
X82616139Y-87384255D01*
X82542005Y-87138136D01*
X82004777Y-86945035D01*
X81434546Y-86972222D01*
X81033995Y-87138136D01*
X80959861Y-87384255D01*
X75220506Y-87384255D01*
X75202577Y-87357423D01*
X74727909Y-87040260D01*
X74309333Y-86957000D01*
X74026667Y-86957000D01*
X73608091Y-87040260D01*
X73322630Y-87230999D01*
X73268001Y-87176371D01*
X73268001Y-86214499D01*
X73608091Y-86441740D01*
X74026667Y-86525000D01*
X74309333Y-86525000D01*
X74727909Y-86441740D01*
X75202577Y-86124577D01*
X75220505Y-86097745D01*
X80959861Y-86097745D01*
X81033995Y-86343864D01*
X81571223Y-86536965D01*
X82141454Y-86509778D01*
X82542005Y-86343864D01*
X82616139Y-86097745D01*
X81788000Y-85269605D01*
X80959861Y-86097745D01*
X75220505Y-86097745D01*
X75519740Y-85649909D01*
X75631113Y-85090000D01*
X75587994Y-84873223D01*
X80341035Y-84873223D01*
X80368222Y-85443454D01*
X80534136Y-85844005D01*
X80780255Y-85918139D01*
X81608395Y-85090000D01*
X81967605Y-85090000D01*
X82795745Y-85918139D01*
X83041864Y-85844005D01*
X83234965Y-85306777D01*
X83207778Y-84736546D01*
X83041864Y-84335995D01*
X82795745Y-84261861D01*
X81967605Y-85090000D01*
X81608395Y-85090000D01*
X80780255Y-84261861D01*
X80534136Y-84335995D01*
X80341035Y-84873223D01*
X75587994Y-84873223D01*
X75519740Y-84530091D01*
X75220506Y-84082255D01*
X80959861Y-84082255D01*
X81788000Y-84910395D01*
X82616139Y-84082255D01*
X82542005Y-83836136D01*
X82004777Y-83643035D01*
X81434546Y-83670222D01*
X81033995Y-83836136D01*
X80959861Y-84082255D01*
X75220506Y-84082255D01*
X75202577Y-84055423D01*
X74930000Y-83873293D01*
X74930000Y-83119630D01*
X75533162Y-82516469D01*
X75640670Y-82561000D01*
X76251330Y-82561000D01*
X76815507Y-82327310D01*
X77216000Y-81926817D01*
X77616493Y-82327310D01*
X78180670Y-82561000D01*
X78791330Y-82561000D01*
X79355507Y-82327310D01*
X79756000Y-81926817D01*
X80156493Y-82327310D01*
X80720670Y-82561000D01*
X81331330Y-82561000D01*
X81895507Y-82327310D01*
X82116658Y-82106159D01*
X82665446Y-82106159D01*
X82751852Y-82362643D01*
X83325336Y-82572458D01*
X83935460Y-82546839D01*
X84380148Y-82362643D01*
X84466554Y-82106159D01*
X83566000Y-81205605D01*
X82665446Y-82106159D01*
X82116658Y-82106159D01*
X82327310Y-81895507D01*
X82335438Y-81875885D01*
X82485841Y-81926554D01*
X83386395Y-81026000D01*
X83745605Y-81026000D01*
X84646159Y-81926554D01*
X84796562Y-81875885D01*
X84804690Y-81895507D01*
X85236493Y-82327310D01*
X85800670Y-82561000D01*
X86411330Y-82561000D01*
X86975507Y-82327310D01*
X87376000Y-81926817D01*
X87776493Y-82327310D01*
X87883568Y-82371662D01*
X87884000Y-82373835D01*
X87884000Y-82373839D01*
X87928212Y-82596108D01*
X88096629Y-82848163D01*
X88160253Y-82890675D01*
X88559326Y-83289749D01*
X88601837Y-83353371D01*
X88853891Y-83521788D01*
X89076160Y-83566000D01*
X89076164Y-83566000D01*
X89151207Y-83580927D01*
X89226250Y-83566000D01*
X93650957Y-83566000D01*
X93726000Y-83580927D01*
X93801043Y-83566000D01*
X93801048Y-83566000D01*
X94023317Y-83521788D01*
X94275371Y-83353371D01*
X94317883Y-83289747D01*
X97851631Y-79756000D01*
X98417525Y-79756000D01*
X98374560Y-79972000D01*
X98374560Y-81572000D01*
X98423843Y-81819765D01*
X98564191Y-82029809D01*
X98774235Y-82170157D01*
X99022000Y-82219440D01*
X99060000Y-82219440D01*
X99060001Y-83230866D01*
X98859793Y-83431074D01*
X98687000Y-83848234D01*
X98687000Y-84299766D01*
X98859793Y-84716926D01*
X99179074Y-85036207D01*
X99596234Y-85209000D01*
X100047766Y-85209000D01*
X100464926Y-85036207D01*
X100772000Y-84729133D01*
X101079074Y-85036207D01*
X101496234Y-85209000D01*
X101947766Y-85209000D01*
X102364926Y-85036207D01*
X102684207Y-84716926D01*
X102857000Y-84299766D01*
X102857000Y-84019701D01*
X102911371Y-83983371D01*
X103079788Y-83731317D01*
X103124000Y-83509048D01*
X103124000Y-83509047D01*
X103138928Y-83434000D01*
X103124000Y-83358953D01*
X103124000Y-81988707D01*
X103396577Y-81806577D01*
X103632000Y-81454242D01*
X103867423Y-81806577D01*
X104342091Y-82123740D01*
X104760667Y-82207000D01*
X105043333Y-82207000D01*
X105461909Y-82123740D01*
X105936577Y-81806577D01*
X106118707Y-81534000D01*
X106225293Y-81534000D01*
X106407423Y-81806577D01*
X106882091Y-82123740D01*
X107300667Y-82207000D01*
X107583333Y-82207000D01*
X108001909Y-82123740D01*
X108476577Y-81806577D01*
X108658707Y-81534000D01*
X114492370Y-81534000D01*
X115316001Y-82357632D01*
X115316000Y-84153201D01*
X114981910Y-84291586D01*
X114437586Y-84835910D01*
X114143000Y-85547105D01*
X114143000Y-86316895D01*
X114437586Y-87028090D01*
X114981910Y-87572414D01*
X115693105Y-87867000D01*
X116462895Y-87867000D01*
X117174090Y-87572414D01*
X117718414Y-87028090D01*
X118013000Y-86316895D01*
X118013000Y-85547105D01*
X117718414Y-84835910D01*
X117174090Y-84291586D01*
X116840000Y-84153202D01*
X116840000Y-82117042D01*
X116854927Y-82041999D01*
X116840000Y-81966956D01*
X116840000Y-69671043D01*
X116854927Y-69596000D01*
X116840000Y-69520957D01*
X116840000Y-69520952D01*
X116795788Y-69298683D01*
X116627371Y-69046629D01*
X116563749Y-69004118D01*
X114637883Y-67078253D01*
X114595371Y-67014629D01*
X114343317Y-66846212D01*
X114121048Y-66802000D01*
X114121043Y-66802000D01*
X114046000Y-66787073D01*
X113970957Y-66802000D01*
X110744000Y-66802000D01*
X110744000Y-63575043D01*
X110758927Y-63500000D01*
X110744000Y-63424957D01*
X110744000Y-58749042D01*
X110758927Y-58673999D01*
X110744000Y-58598956D01*
X110744000Y-58598952D01*
X110699788Y-58376683D01*
X110595514Y-58220625D01*
X110573882Y-58188251D01*
X110531371Y-58124629D01*
X110467749Y-58082118D01*
X109303883Y-56918253D01*
X109261371Y-56854629D01*
X109009317Y-56686212D01*
X108787048Y-56642000D01*
X108787043Y-56642000D01*
X108712000Y-56627073D01*
X108636957Y-56642000D01*
X108464842Y-56642000D01*
X108258625Y-56333375D01*
X107960239Y-56134000D01*
X108258625Y-55934625D01*
X108586839Y-55443418D01*
X108702092Y-54864000D01*
X108586839Y-54284582D01*
X108258625Y-53793375D01*
X107767418Y-53465161D01*
X107334256Y-53379000D01*
X107041744Y-53379000D01*
X106608582Y-53465161D01*
X106117375Y-53793375D01*
X105789161Y-54284582D01*
X105673908Y-54864000D01*
X105789161Y-55443418D01*
X106117375Y-55934625D01*
X106415761Y-56134000D01*
X106117375Y-56333375D01*
X105789161Y-56824582D01*
X105673908Y-57404000D01*
X105789161Y-57983418D01*
X106117375Y-58474625D01*
X106415761Y-58674000D01*
X106117375Y-58873375D01*
X105789161Y-59364582D01*
X105673908Y-59944000D01*
X105789161Y-60523418D01*
X106117375Y-61014625D01*
X106415761Y-61214000D01*
X106117375Y-61413375D01*
X105789161Y-61904582D01*
X105673908Y-62484000D01*
X105789161Y-63063418D01*
X106117375Y-63554625D01*
X106415761Y-63754000D01*
X106117375Y-63953375D01*
X105911158Y-64262000D01*
X101204959Y-64262000D01*
X101137936Y-64194977D01*
X100778516Y-64046100D01*
X100389484Y-64046100D01*
X100030064Y-64194977D01*
X99754977Y-64470064D01*
X99606100Y-64829484D01*
X99606100Y-65218516D01*
X99754977Y-65577936D01*
X100030064Y-65853023D01*
X100389484Y-66001900D01*
X100778516Y-66001900D01*
X101137936Y-65853023D01*
X101204959Y-65786000D01*
X105911158Y-65786000D01*
X106117375Y-66094625D01*
X106135619Y-66106816D01*
X106090235Y-66115843D01*
X105880191Y-66256191D01*
X105739843Y-66466235D01*
X105690560Y-66714000D01*
X105690560Y-68414000D01*
X105739843Y-68661765D01*
X105880191Y-68871809D01*
X106090235Y-69012157D01*
X106338000Y-69061440D01*
X108038000Y-69061440D01*
X108285765Y-69012157D01*
X108495809Y-68871809D01*
X108636157Y-68661765D01*
X108685440Y-68414000D01*
X108685440Y-68326000D01*
X109906952Y-68326000D01*
X109982000Y-68340928D01*
X110057048Y-68326000D01*
X113730370Y-68326000D01*
X115316001Y-69911632D01*
X115316000Y-80194986D01*
X115105317Y-80054212D01*
X114883048Y-80010000D01*
X114883043Y-80010000D01*
X114808000Y-79995073D01*
X114732957Y-80010000D01*
X108658707Y-80010000D01*
X108476577Y-79737423D01*
X108001909Y-79420260D01*
X107583333Y-79337000D01*
X107300667Y-79337000D01*
X106882091Y-79420260D01*
X106407423Y-79737423D01*
X106225293Y-80010000D01*
X106118707Y-80010000D01*
X105936577Y-79737423D01*
X105461909Y-79420260D01*
X105043333Y-79337000D01*
X104760667Y-79337000D01*
X104580473Y-79372843D01*
X103715883Y-78508253D01*
X103673371Y-78444629D01*
X103421317Y-78276212D01*
X103199048Y-78232000D01*
X103199043Y-78232000D01*
X103124000Y-78217073D01*
X103048957Y-78232000D01*
X97611047Y-78232000D01*
X97536000Y-78217072D01*
X97460953Y-78232000D01*
X97460952Y-78232000D01*
X97238683Y-78276212D01*
X96986629Y-78444629D01*
X96944118Y-78508251D01*
X93410370Y-82042000D01*
X92340817Y-82042000D01*
X92487310Y-81895507D01*
X92721000Y-81331330D01*
X92721000Y-80720670D01*
X92487310Y-80156493D01*
X92055507Y-79724690D01*
X91491330Y-79491000D01*
X90880670Y-79491000D01*
X90316493Y-79724690D01*
X89916000Y-80125183D01*
X89515507Y-79724690D01*
X88951330Y-79491000D01*
X88340670Y-79491000D01*
X87776493Y-79724690D01*
X87376000Y-80125183D01*
X86975507Y-79724690D01*
X86411330Y-79491000D01*
X85800670Y-79491000D01*
X85236493Y-79724690D01*
X84804690Y-80156493D01*
X84796562Y-80176115D01*
X84646159Y-80125446D01*
X83745605Y-81026000D01*
X83386395Y-81026000D01*
X82485841Y-80125446D01*
X82335438Y-80176115D01*
X82327310Y-80156493D01*
X82116658Y-79945841D01*
X82665446Y-79945841D01*
X83566000Y-80846395D01*
X84466554Y-79945841D01*
X84380148Y-79689357D01*
X83806664Y-79479542D01*
X83196540Y-79505161D01*
X82751852Y-79689357D01*
X82665446Y-79945841D01*
X82116658Y-79945841D01*
X81895507Y-79724690D01*
X81331330Y-79491000D01*
X80720670Y-79491000D01*
X80156493Y-79724690D01*
X79756000Y-80125183D01*
X79355507Y-79724690D01*
X78791330Y-79491000D01*
X78180670Y-79491000D01*
X77616493Y-79724690D01*
X77216000Y-80125183D01*
X76815507Y-79724690D01*
X76251330Y-79491000D01*
X75640670Y-79491000D01*
X75076493Y-79724690D01*
X74676000Y-80125183D01*
X74275507Y-79724690D01*
X73711330Y-79491000D01*
X73100670Y-79491000D01*
X72536493Y-79724690D01*
X72136000Y-80125183D01*
X71735507Y-79724690D01*
X71171330Y-79491000D01*
X70560670Y-79491000D01*
X69996493Y-79724690D01*
X69596000Y-80125183D01*
X69195507Y-79724690D01*
X68631330Y-79491000D01*
X68020670Y-79491000D01*
X67456493Y-79724690D01*
X67056000Y-80125183D01*
X66655507Y-79724690D01*
X66091330Y-79491000D01*
X65480670Y-79491000D01*
X64916493Y-79724690D01*
X64516000Y-80125183D01*
X64115507Y-79724690D01*
X63551330Y-79491000D01*
X62940670Y-79491000D01*
X62376493Y-79724690D01*
X61944690Y-80156493D01*
X61936562Y-80176115D01*
X61786159Y-80125446D01*
X60885605Y-81026000D01*
X60526395Y-81026000D01*
X59625841Y-80125446D01*
X59475438Y-80176115D01*
X59467310Y-80156493D01*
X59256658Y-79945841D01*
X59805446Y-79945841D01*
X60706000Y-80846395D01*
X61606554Y-79945841D01*
X61520148Y-79689357D01*
X60946664Y-79479542D01*
X60336540Y-79505161D01*
X59891852Y-79689357D01*
X59805446Y-79945841D01*
X59256658Y-79945841D01*
X59035507Y-79724690D01*
X58471330Y-79491000D01*
X57860670Y-79491000D01*
X57296493Y-79724690D01*
X56896000Y-80125183D01*
X56495507Y-79724690D01*
X55931330Y-79491000D01*
X55320670Y-79491000D01*
X54756493Y-79724690D01*
X54324690Y-80156493D01*
X54091000Y-80720670D01*
X51510000Y-80720670D01*
X51510000Y-73501041D01*
X98430086Y-73501041D01*
X98669611Y-74007134D01*
X99084577Y-74383041D01*
X99472961Y-74543904D01*
X99695000Y-74421915D01*
X99695000Y-73279000D01*
X98551371Y-73279000D01*
X98430086Y-73501041D01*
X51510000Y-73501041D01*
X51510000Y-72802959D01*
X98430086Y-72802959D01*
X98551371Y-73025000D01*
X99695000Y-73025000D01*
X99695000Y-71882085D01*
X99949000Y-71882085D01*
X99949000Y-73025000D01*
X99969000Y-73025000D01*
X99969000Y-73279000D01*
X99949000Y-73279000D01*
X99949000Y-74421915D01*
X100171039Y-74543904D01*
X100559423Y-74383041D01*
X100974389Y-74007134D01*
X101071053Y-73802892D01*
X101327423Y-74186577D01*
X101802091Y-74503740D01*
X102220667Y-74587000D01*
X102503333Y-74587000D01*
X102921909Y-74503740D01*
X103396577Y-74186577D01*
X103632000Y-73834242D01*
X103867423Y-74186577D01*
X104342091Y-74503740D01*
X104760667Y-74587000D01*
X105043333Y-74587000D01*
X105461909Y-74503740D01*
X105936577Y-74186577D01*
X106172000Y-73834242D01*
X106407423Y-74186577D01*
X106882091Y-74503740D01*
X107300667Y-74587000D01*
X107583333Y-74587000D01*
X108001909Y-74503740D01*
X108476577Y-74186577D01*
X108793740Y-73711909D01*
X108905113Y-73152000D01*
X108793740Y-72592091D01*
X108476577Y-72117423D01*
X108001909Y-71800260D01*
X107583333Y-71717000D01*
X107300667Y-71717000D01*
X106882091Y-71800260D01*
X106407423Y-72117423D01*
X106172000Y-72469758D01*
X105936577Y-72117423D01*
X105461909Y-71800260D01*
X105043333Y-71717000D01*
X104760667Y-71717000D01*
X104342091Y-71800260D01*
X103867423Y-72117423D01*
X103632000Y-72469758D01*
X103396577Y-72117423D01*
X102921909Y-71800260D01*
X102503333Y-71717000D01*
X102220667Y-71717000D01*
X101802091Y-71800260D01*
X101327423Y-72117423D01*
X101071053Y-72501108D01*
X100974389Y-72296866D01*
X100559423Y-71920959D01*
X100171039Y-71760096D01*
X99949000Y-71882085D01*
X99695000Y-71882085D01*
X99472961Y-71760096D01*
X99084577Y-71920959D01*
X98669611Y-72296866D01*
X98430086Y-72802959D01*
X51510000Y-72802959D01*
X51510000Y-55172776D01*
X51587026Y-55358734D01*
X52337266Y-56108974D01*
X53317501Y-56515000D01*
X54378499Y-56515000D01*
X54863796Y-56313984D01*
X54849073Y-56388000D01*
X54864001Y-56463048D01*
X54864000Y-64440159D01*
X54756493Y-64484690D01*
X54324690Y-64916493D01*
X54091000Y-65480670D01*
X54091000Y-66091330D01*
X54324690Y-66655507D01*
X54756493Y-67087310D01*
X55320670Y-67321000D01*
X55931330Y-67321000D01*
X56495507Y-67087310D01*
X56896000Y-66686817D01*
X57296493Y-67087310D01*
X57860670Y-67321000D01*
X58471330Y-67321000D01*
X59035507Y-67087310D01*
X59436000Y-66686817D01*
X59836493Y-67087310D01*
X60400670Y-67321000D01*
X61011330Y-67321000D01*
X61575507Y-67087310D01*
X61976000Y-66686817D01*
X62376493Y-67087310D01*
X62940670Y-67321000D01*
X63551330Y-67321000D01*
X64115507Y-67087310D01*
X64516000Y-66686817D01*
X64916493Y-67087310D01*
X65480670Y-67321000D01*
X66091330Y-67321000D01*
X66655507Y-67087310D01*
X67056000Y-66686817D01*
X67456493Y-67087310D01*
X68020670Y-67321000D01*
X68631330Y-67321000D01*
X69195507Y-67087310D01*
X69596000Y-66686817D01*
X69996493Y-67087310D01*
X70560670Y-67321000D01*
X71171330Y-67321000D01*
X71735507Y-67087310D01*
X72136000Y-66686817D01*
X72536493Y-67087310D01*
X73100670Y-67321000D01*
X73711330Y-67321000D01*
X74275507Y-67087310D01*
X74676000Y-66686817D01*
X75076493Y-67087310D01*
X75640670Y-67321000D01*
X76251330Y-67321000D01*
X76815507Y-67087310D01*
X77216000Y-66686817D01*
X77616493Y-67087310D01*
X78180670Y-67321000D01*
X78791330Y-67321000D01*
X79355507Y-67087310D01*
X79756000Y-66686817D01*
X80156493Y-67087310D01*
X80720670Y-67321000D01*
X81331330Y-67321000D01*
X81895507Y-67087310D01*
X82296000Y-66686817D01*
X82696493Y-67087310D01*
X83260670Y-67321000D01*
X83871330Y-67321000D01*
X84435507Y-67087310D01*
X84836000Y-66686817D01*
X85236493Y-67087310D01*
X85800670Y-67321000D01*
X86411330Y-67321000D01*
X86975507Y-67087310D01*
X87376000Y-66686817D01*
X87776493Y-67087310D01*
X88340670Y-67321000D01*
X88951330Y-67321000D01*
X89515507Y-67087310D01*
X89684725Y-66918092D01*
X89687843Y-66933765D01*
X89828191Y-67143809D01*
X90038235Y-67284157D01*
X90286000Y-67333440D01*
X92086000Y-67333440D01*
X92333765Y-67284157D01*
X92543809Y-67143809D01*
X92684157Y-66933765D01*
X92733440Y-66686000D01*
X92733440Y-64886000D01*
X92684157Y-64638235D01*
X92543809Y-64428191D01*
X92333765Y-64287843D01*
X92086000Y-64238560D01*
X91839561Y-64238560D01*
X91819448Y-64208459D01*
X91777882Y-64146251D01*
X91735371Y-64082629D01*
X91671749Y-64040118D01*
X86454883Y-58823253D01*
X86412371Y-58759629D01*
X86160317Y-58591212D01*
X85938048Y-58547000D01*
X85938043Y-58547000D01*
X85863000Y-58532073D01*
X85787957Y-58547000D01*
X76782170Y-58547000D01*
X77270625Y-58220625D01*
X77598839Y-57729418D01*
X77714092Y-57150000D01*
X77598839Y-56570582D01*
X77270625Y-56079375D01*
X76970214Y-55878647D01*
X77395183Y-55491358D01*
X77641486Y-54966892D01*
X77520819Y-54737000D01*
X76327000Y-54737000D01*
X76327000Y-54757000D01*
X76073000Y-54757000D01*
X76073000Y-54737000D01*
X73787000Y-54737000D01*
X73787000Y-54757000D01*
X73533000Y-54757000D01*
X73533000Y-54737000D01*
X71247000Y-54737000D01*
X71247000Y-54757000D01*
X70993000Y-54757000D01*
X70993000Y-54737000D01*
X68707000Y-54737000D01*
X68707000Y-54757000D01*
X68453000Y-54757000D01*
X68453000Y-54737000D01*
X68433000Y-54737000D01*
X68433000Y-54483000D01*
X68453000Y-54483000D01*
X68453000Y-53289845D01*
X68707000Y-53289845D01*
X68707000Y-54483000D01*
X70993000Y-54483000D01*
X70993000Y-53289845D01*
X71247000Y-53289845D01*
X71247000Y-54483000D01*
X73533000Y-54483000D01*
X73533000Y-53289845D01*
X73787000Y-53289845D01*
X73787000Y-54483000D01*
X76073000Y-54483000D01*
X76073000Y-53289845D01*
X76327000Y-53289845D01*
X76327000Y-54483000D01*
X77520819Y-54483000D01*
X77641486Y-54253108D01*
X77395183Y-53728642D01*
X76966924Y-53338355D01*
X76556890Y-53168524D01*
X76327000Y-53289845D01*
X76073000Y-53289845D01*
X75843110Y-53168524D01*
X75433076Y-53338355D01*
X75004817Y-53728642D01*
X74930000Y-53887954D01*
X74855183Y-53728642D01*
X74426924Y-53338355D01*
X74016890Y-53168524D01*
X73787000Y-53289845D01*
X73533000Y-53289845D01*
X73303110Y-53168524D01*
X72893076Y-53338355D01*
X72464817Y-53728642D01*
X72390000Y-53887954D01*
X72315183Y-53728642D01*
X71886924Y-53338355D01*
X71476890Y-53168524D01*
X71247000Y-53289845D01*
X70993000Y-53289845D01*
X70763110Y-53168524D01*
X70353076Y-53338355D01*
X69924817Y-53728642D01*
X69850000Y-53887954D01*
X69775183Y-53728642D01*
X69346924Y-53338355D01*
X68936890Y-53168524D01*
X68707000Y-53289845D01*
X68453000Y-53289845D01*
X68223110Y-53168524D01*
X67813076Y-53338355D01*
X67384817Y-53728642D01*
X67323843Y-53858478D01*
X67110625Y-53539375D01*
X66619418Y-53211161D01*
X66186256Y-53125000D01*
X65893744Y-53125000D01*
X65675952Y-53168321D01*
X64726883Y-52219253D01*
X64684371Y-52155629D01*
X64432317Y-51987212D01*
X64210048Y-51943000D01*
X64210043Y-51943000D01*
X64135000Y-51928073D01*
X64059957Y-51943000D01*
X57415542Y-51943000D01*
X57340499Y-51928073D01*
X57265456Y-51943000D01*
X57265452Y-51943000D01*
X57043183Y-51987212D01*
X56791129Y-52155629D01*
X56748618Y-52219251D01*
X56283251Y-52684619D01*
X56259442Y-52700528D01*
X56108974Y-52337266D01*
X55358734Y-51587026D01*
X55172776Y-51510000D01*
X117547224Y-51510000D01*
X117361266Y-51587026D01*
X117361266Y-51587026D01*
G37*
X117361266Y-51587026D02*
X116611026Y-52337266D01*
X116205000Y-53317501D01*
X116205000Y-54378499D01*
X116611026Y-55358734D01*
X117361266Y-56108974D01*
X118341501Y-56515000D01*
X119402499Y-56515000D01*
X120382734Y-56108974D01*
X121132974Y-55358734D01*
X121210000Y-55172776D01*
X121210001Y-97227226D01*
X121132974Y-97041266D01*
X120382734Y-96291026D01*
X119402499Y-95885000D01*
X118341501Y-95885000D01*
X117361266Y-96291026D01*
X116611026Y-97041266D01*
X116205000Y-98021501D01*
X116205000Y-99082499D01*
X116611026Y-100062734D01*
X117361266Y-100812974D01*
X117547224Y-100890000D01*
X55172776Y-100890000D01*
X55358734Y-100812974D01*
X56108974Y-100062734D01*
X56515000Y-99082499D01*
X56515000Y-98021501D01*
X56108974Y-97041266D01*
X55358734Y-96291026D01*
X54378499Y-95885000D01*
X53317501Y-95885000D01*
X52337266Y-96291026D01*
X51587026Y-97041266D01*
X51510000Y-97227224D01*
X51510000Y-91217750D01*
X114143000Y-91217750D01*
X114143000Y-92358309D01*
X114239673Y-92591698D01*
X114418301Y-92770327D01*
X114651690Y-92867000D01*
X115792250Y-92867000D01*
X115951000Y-92708250D01*
X115951000Y-91059000D01*
X116205000Y-91059000D01*
X116205000Y-92708250D01*
X116363750Y-92867000D01*
X117504310Y-92867000D01*
X117737699Y-92770327D01*
X117916327Y-92591698D01*
X118013000Y-92358309D01*
X118013000Y-91217750D01*
X117854250Y-91059000D01*
X116205000Y-91059000D01*
X115951000Y-91059000D01*
X114301750Y-91059000D01*
X114143000Y-91217750D01*
X51510000Y-91217750D01*
X51510000Y-80720670D01*
X54091000Y-80720670D01*
X54091000Y-81331330D01*
X54324690Y-81895507D01*
X54756493Y-82327310D01*
X55320670Y-82561000D01*
X55931330Y-82561000D01*
X56495507Y-82327310D01*
X56896000Y-81926817D01*
X57296493Y-82327310D01*
X57860670Y-82561000D01*
X58471330Y-82561000D01*
X59035507Y-82327310D01*
X59256658Y-82106159D01*
X59805446Y-82106159D01*
X59891852Y-82362643D01*
X60465336Y-82572458D01*
X61075460Y-82546839D01*
X61520148Y-82362643D01*
X61606554Y-82106159D01*
X60706000Y-81205605D01*
X59805446Y-82106159D01*
X59256658Y-82106159D01*
X59467310Y-81895507D01*
X59475438Y-81875885D01*
X59625841Y-81926554D01*
X60526395Y-81026000D01*
X60885605Y-81026000D01*
X61786159Y-81926554D01*
X61936562Y-81875885D01*
X61944690Y-81895507D01*
X62376493Y-82327310D01*
X62940670Y-82561000D01*
X63551330Y-82561000D01*
X64115507Y-82327310D01*
X64516000Y-81926817D01*
X64916493Y-82327310D01*
X65480670Y-82561000D01*
X66091330Y-82561000D01*
X66655507Y-82327310D01*
X67056000Y-81926817D01*
X67456493Y-82327310D01*
X68020670Y-82561000D01*
X68631330Y-82561000D01*
X69195507Y-82327310D01*
X69596000Y-81926817D01*
X69996493Y-82327310D01*
X70560670Y-82561000D01*
X71171330Y-82561000D01*
X71735507Y-82327310D01*
X71744001Y-82318816D01*
X71744002Y-87416953D01*
X71729074Y-87492001D01*
X71744002Y-87567049D01*
X71788214Y-87789318D01*
X71956631Y-88041372D01*
X72020252Y-88083882D01*
X72798378Y-88862009D01*
X72816260Y-88951909D01*
X73133423Y-89426577D01*
X73608091Y-89743740D01*
X74026667Y-89827000D01*
X74309333Y-89827000D01*
X74727909Y-89743740D01*
X75202577Y-89426577D01*
X75220505Y-89399745D01*
X80959861Y-89399745D01*
X81033995Y-89645864D01*
X81571223Y-89838965D01*
X82141454Y-89811778D01*
X82542005Y-89645864D01*
X82584226Y-89505691D01*
X114143000Y-89505691D01*
X114143000Y-90646250D01*
X114301750Y-90805000D01*
X115951000Y-90805000D01*
X115951000Y-89155750D01*
X116205000Y-89155750D01*
X116205000Y-90805000D01*
X117854250Y-90805000D01*
X118013000Y-90646250D01*
X118013000Y-89505691D01*
X117916327Y-89272302D01*
X117737699Y-89093673D01*
X117504310Y-88997000D01*
X116363750Y-88997000D01*
X116205000Y-89155750D01*
X115951000Y-89155750D01*
X115792250Y-88997000D01*
X114651690Y-88997000D01*
X114418301Y-89093673D01*
X114239673Y-89272302D01*
X114143000Y-89505691D01*
X82584226Y-89505691D01*
X82616139Y-89399745D01*
X81788000Y-88571605D01*
X80959861Y-89399745D01*
X75220505Y-89399745D01*
X75519740Y-88951909D01*
X75631113Y-88392000D01*
X75587994Y-88175223D01*
X80341035Y-88175223D01*
X80368222Y-88745454D01*
X80534136Y-89146005D01*
X80780255Y-89220139D01*
X81608395Y-88392000D01*
X81967605Y-88392000D01*
X82795745Y-89220139D01*
X83041864Y-89146005D01*
X83234965Y-88608777D01*
X83207778Y-88038546D01*
X83041864Y-87637995D01*
X82795745Y-87563861D01*
X81967605Y-88392000D01*
X81608395Y-88392000D01*
X80780255Y-87563861D01*
X80534136Y-87637995D01*
X80341035Y-88175223D01*
X75587994Y-88175223D01*
X75519740Y-87832091D01*
X75220506Y-87384255D01*
X80959861Y-87384255D01*
X81788000Y-88212395D01*
X82616139Y-87384255D01*
X82542005Y-87138136D01*
X82004777Y-86945035D01*
X81434546Y-86972222D01*
X81033995Y-87138136D01*
X80959861Y-87384255D01*
X75220506Y-87384255D01*
X75202577Y-87357423D01*
X74727909Y-87040260D01*
X74309333Y-86957000D01*
X74026667Y-86957000D01*
X73608091Y-87040260D01*
X73322630Y-87230999D01*
X73268001Y-87176371D01*
X73268001Y-86214499D01*
X73608091Y-86441740D01*
X74026667Y-86525000D01*
X74309333Y-86525000D01*
X74727909Y-86441740D01*
X75202577Y-86124577D01*
X75220505Y-86097745D01*
X80959861Y-86097745D01*
X81033995Y-86343864D01*
X81571223Y-86536965D01*
X82141454Y-86509778D01*
X82542005Y-86343864D01*
X82616139Y-86097745D01*
X81788000Y-85269605D01*
X80959861Y-86097745D01*
X75220505Y-86097745D01*
X75519740Y-85649909D01*
X75631113Y-85090000D01*
X75587994Y-84873223D01*
X80341035Y-84873223D01*
X80368222Y-85443454D01*
X80534136Y-85844005D01*
X80780255Y-85918139D01*
X81608395Y-85090000D01*
X81967605Y-85090000D01*
X82795745Y-85918139D01*
X83041864Y-85844005D01*
X83234965Y-85306777D01*
X83207778Y-84736546D01*
X83041864Y-84335995D01*
X82795745Y-84261861D01*
X81967605Y-85090000D01*
X81608395Y-85090000D01*
X80780255Y-84261861D01*
X80534136Y-84335995D01*
X80341035Y-84873223D01*
X75587994Y-84873223D01*
X75519740Y-84530091D01*
X75220506Y-84082255D01*
X80959861Y-84082255D01*
X81788000Y-84910395D01*
X82616139Y-84082255D01*
X82542005Y-83836136D01*
X82004777Y-83643035D01*
X81434546Y-83670222D01*
X81033995Y-83836136D01*
X80959861Y-84082255D01*
X75220506Y-84082255D01*
X75202577Y-84055423D01*
X74930000Y-83873293D01*
X74930000Y-83119630D01*
X75533162Y-82516469D01*
X75640670Y-82561000D01*
X76251330Y-82561000D01*
X76815507Y-82327310D01*
X77216000Y-81926817D01*
X77616493Y-82327310D01*
X78180670Y-82561000D01*
X78791330Y-82561000D01*
X79355507Y-82327310D01*
X79756000Y-81926817D01*
X80156493Y-82327310D01*
X80720670Y-82561000D01*
X81331330Y-82561000D01*
X81895507Y-82327310D01*
X82116658Y-82106159D01*
X82665446Y-82106159D01*
X82751852Y-82362643D01*
X83325336Y-82572458D01*
X83935460Y-82546839D01*
X84380148Y-82362643D01*
X84466554Y-82106159D01*
X83566000Y-81205605D01*
X82665446Y-82106159D01*
X82116658Y-82106159D01*
X82327310Y-81895507D01*
X82335438Y-81875885D01*
X82485841Y-81926554D01*
X83386395Y-81026000D01*
X83745605Y-81026000D01*
X84646159Y-81926554D01*
X84796562Y-81875885D01*
X84804690Y-81895507D01*
X85236493Y-82327310D01*
X85800670Y-82561000D01*
X86411330Y-82561000D01*
X86975507Y-82327310D01*
X87376000Y-81926817D01*
X87776493Y-82327310D01*
X87883568Y-82371662D01*
X87884000Y-82373835D01*
X87884000Y-82373839D01*
X87928212Y-82596108D01*
X88096629Y-82848163D01*
X88160253Y-82890675D01*
X88559326Y-83289749D01*
X88601837Y-83353371D01*
X88853891Y-83521788D01*
X89076160Y-83566000D01*
X89076164Y-83566000D01*
X89151207Y-83580927D01*
X89226250Y-83566000D01*
X93650957Y-83566000D01*
X93726000Y-83580927D01*
X93801043Y-83566000D01*
X93801048Y-83566000D01*
X94023317Y-83521788D01*
X94275371Y-83353371D01*
X94317883Y-83289747D01*
X97851631Y-79756000D01*
X98417525Y-79756000D01*
X98374560Y-79972000D01*
X98374560Y-81572000D01*
X98423843Y-81819765D01*
X98564191Y-82029809D01*
X98774235Y-82170157D01*
X99022000Y-82219440D01*
X99060000Y-82219440D01*
X99060001Y-83230866D01*
X98859793Y-83431074D01*
X98687000Y-83848234D01*
X98687000Y-84299766D01*
X98859793Y-84716926D01*
X99179074Y-85036207D01*
X99596234Y-85209000D01*
X100047766Y-85209000D01*
X100464926Y-85036207D01*
X100772000Y-84729133D01*
X101079074Y-85036207D01*
X101496234Y-85209000D01*
X101947766Y-85209000D01*
X102364926Y-85036207D01*
X102684207Y-84716926D01*
X102857000Y-84299766D01*
X102857000Y-84019701D01*
X102911371Y-83983371D01*
X103079788Y-83731317D01*
X103124000Y-83509048D01*
X103124000Y-83509047D01*
X103138928Y-83434000D01*
X103124000Y-83358953D01*
X103124000Y-81988707D01*
X103396577Y-81806577D01*
X103632000Y-81454242D01*
X103867423Y-81806577D01*
X104342091Y-82123740D01*
X104760667Y-82207000D01*
X105043333Y-82207000D01*
X105461909Y-82123740D01*
X105936577Y-81806577D01*
X106118707Y-81534000D01*
X106225293Y-81534000D01*
X106407423Y-81806577D01*
X106882091Y-82123740D01*
X107300667Y-82207000D01*
X107583333Y-82207000D01*
X108001909Y-82123740D01*
X108476577Y-81806577D01*
X108658707Y-81534000D01*
X114492370Y-81534000D01*
X115316001Y-82357632D01*
X115316000Y-84153201D01*
X114981910Y-84291586D01*
X114437586Y-84835910D01*
X114143000Y-85547105D01*
X114143000Y-86316895D01*
X114437586Y-87028090D01*
X114981910Y-87572414D01*
X115693105Y-87867000D01*
X116462895Y-87867000D01*
X117174090Y-87572414D01*
X117718414Y-87028090D01*
X118013000Y-86316895D01*
X118013000Y-85547105D01*
X117718414Y-84835910D01*
X117174090Y-84291586D01*
X116840000Y-84153202D01*
X116840000Y-82117042D01*
X116854927Y-82041999D01*
X116840000Y-81966956D01*
X116840000Y-69671043D01*
X116854927Y-69596000D01*
X116840000Y-69520957D01*
X116840000Y-69520952D01*
X116795788Y-69298683D01*
X116627371Y-69046629D01*
X116563749Y-69004118D01*
X114637883Y-67078253D01*
X114595371Y-67014629D01*
X114343317Y-66846212D01*
X114121048Y-66802000D01*
X114121043Y-66802000D01*
X114046000Y-66787073D01*
X113970957Y-66802000D01*
X110744000Y-66802000D01*
X110744000Y-63575043D01*
X110758927Y-63500000D01*
X110744000Y-63424957D01*
X110744000Y-58749042D01*
X110758927Y-58673999D01*
X110744000Y-58598956D01*
X110744000Y-58598952D01*
X110699788Y-58376683D01*
X110595514Y-58220625D01*
X110573882Y-58188251D01*
X110531371Y-58124629D01*
X110467749Y-58082118D01*
X109303883Y-56918253D01*
X109261371Y-56854629D01*
X109009317Y-56686212D01*
X108787048Y-56642000D01*
X108787043Y-56642000D01*
X108712000Y-56627073D01*
X108636957Y-56642000D01*
X108464842Y-56642000D01*
X108258625Y-56333375D01*
X107960239Y-56134000D01*
X108258625Y-55934625D01*
X108586839Y-55443418D01*
X108702092Y-54864000D01*
X108586839Y-54284582D01*
X108258625Y-53793375D01*
X107767418Y-53465161D01*
X107334256Y-53379000D01*
X107041744Y-53379000D01*
X106608582Y-53465161D01*
X106117375Y-53793375D01*
X105789161Y-54284582D01*
X105673908Y-54864000D01*
X105789161Y-55443418D01*
X106117375Y-55934625D01*
X106415761Y-56134000D01*
X106117375Y-56333375D01*
X105789161Y-56824582D01*
X105673908Y-57404000D01*
X105789161Y-57983418D01*
X106117375Y-58474625D01*
X106415761Y-58674000D01*
X106117375Y-58873375D01*
X105789161Y-59364582D01*
X105673908Y-59944000D01*
X105789161Y-60523418D01*
X106117375Y-61014625D01*
X106415761Y-61214000D01*
X106117375Y-61413375D01*
X105789161Y-61904582D01*
X105673908Y-62484000D01*
X105789161Y-63063418D01*
X106117375Y-63554625D01*
X106415761Y-63754000D01*
X106117375Y-63953375D01*
X105911158Y-64262000D01*
X101204959Y-64262000D01*
X101137936Y-64194977D01*
X100778516Y-64046100D01*
X100389484Y-64046100D01*
X100030064Y-64194977D01*
X99754977Y-64470064D01*
X99606100Y-64829484D01*
X99606100Y-65218516D01*
X99754977Y-65577936D01*
X100030064Y-65853023D01*
X100389484Y-66001900D01*
X100778516Y-66001900D01*
X101137936Y-65853023D01*
X101204959Y-65786000D01*
X105911158Y-65786000D01*
X106117375Y-66094625D01*
X106135619Y-66106816D01*
X106090235Y-66115843D01*
X105880191Y-66256191D01*
X105739843Y-66466235D01*
X105690560Y-66714000D01*
X105690560Y-68414000D01*
X105739843Y-68661765D01*
X105880191Y-68871809D01*
X106090235Y-69012157D01*
X106338000Y-69061440D01*
X108038000Y-69061440D01*
X108285765Y-69012157D01*
X108495809Y-68871809D01*
X108636157Y-68661765D01*
X108685440Y-68414000D01*
X108685440Y-68326000D01*
X109906952Y-68326000D01*
X109982000Y-68340928D01*
X110057048Y-68326000D01*
X113730370Y-68326000D01*
X115316001Y-69911632D01*
X115316000Y-80194986D01*
X115105317Y-80054212D01*
X114883048Y-80010000D01*
X114883043Y-80010000D01*
X114808000Y-79995073D01*
X114732957Y-80010000D01*
X108658707Y-80010000D01*
X108476577Y-79737423D01*
X108001909Y-79420260D01*
X107583333Y-79337000D01*
X107300667Y-79337000D01*
X106882091Y-79420260D01*
X106407423Y-79737423D01*
X106225293Y-80010000D01*
X106118707Y-80010000D01*
X105936577Y-79737423D01*
X105461909Y-79420260D01*
X105043333Y-79337000D01*
X104760667Y-79337000D01*
X104580473Y-79372843D01*
X103715883Y-78508253D01*
X103673371Y-78444629D01*
X103421317Y-78276212D01*
X103199048Y-78232000D01*
X103199043Y-78232000D01*
X103124000Y-78217073D01*
X103048957Y-78232000D01*
X97611047Y-78232000D01*
X97536000Y-78217072D01*
X97460953Y-78232000D01*
X97460952Y-78232000D01*
X97238683Y-78276212D01*
X96986629Y-78444629D01*
X96944118Y-78508251D01*
X93410370Y-82042000D01*
X92340817Y-82042000D01*
X92487310Y-81895507D01*
X92721000Y-81331330D01*
X92721000Y-80720670D01*
X92487310Y-80156493D01*
X92055507Y-79724690D01*
X91491330Y-79491000D01*
X90880670Y-79491000D01*
X90316493Y-79724690D01*
X89916000Y-80125183D01*
X89515507Y-79724690D01*
X88951330Y-79491000D01*
X88340670Y-79491000D01*
X87776493Y-79724690D01*
X87376000Y-80125183D01*
X86975507Y-79724690D01*
X86411330Y-79491000D01*
X85800670Y-79491000D01*
X85236493Y-79724690D01*
X84804690Y-80156493D01*
X84796562Y-80176115D01*
X84646159Y-80125446D01*
X83745605Y-81026000D01*
X83386395Y-81026000D01*
X82485841Y-80125446D01*
X82335438Y-80176115D01*
X82327310Y-80156493D01*
X82116658Y-79945841D01*
X82665446Y-79945841D01*
X83566000Y-80846395D01*
X84466554Y-79945841D01*
X84380148Y-79689357D01*
X83806664Y-79479542D01*
X83196540Y-79505161D01*
X82751852Y-79689357D01*
X82665446Y-79945841D01*
X82116658Y-79945841D01*
X81895507Y-79724690D01*
X81331330Y-79491000D01*
X80720670Y-79491000D01*
X80156493Y-79724690D01*
X79756000Y-80125183D01*
X79355507Y-79724690D01*
X78791330Y-79491000D01*
X78180670Y-79491000D01*
X77616493Y-79724690D01*
X77216000Y-80125183D01*
X76815507Y-79724690D01*
X76251330Y-79491000D01*
X75640670Y-79491000D01*
X75076493Y-79724690D01*
X74676000Y-80125183D01*
X74275507Y-79724690D01*
X73711330Y-79491000D01*
X73100670Y-79491000D01*
X72536493Y-79724690D01*
X72136000Y-80125183D01*
X71735507Y-79724690D01*
X71171330Y-79491000D01*
X70560670Y-79491000D01*
X69996493Y-79724690D01*
X69596000Y-80125183D01*
X69195507Y-79724690D01*
X68631330Y-79491000D01*
X68020670Y-79491000D01*
X67456493Y-79724690D01*
X67056000Y-80125183D01*
X66655507Y-79724690D01*
X66091330Y-79491000D01*
X65480670Y-79491000D01*
X64916493Y-79724690D01*
X64516000Y-80125183D01*
X64115507Y-79724690D01*
X63551330Y-79491000D01*
X62940670Y-79491000D01*
X62376493Y-79724690D01*
X61944690Y-80156493D01*
X61936562Y-80176115D01*
X61786159Y-80125446D01*
X60885605Y-81026000D01*
X60526395Y-81026000D01*
X59625841Y-80125446D01*
X59475438Y-80176115D01*
X59467310Y-80156493D01*
X59256658Y-79945841D01*
X59805446Y-79945841D01*
X60706000Y-80846395D01*
X61606554Y-79945841D01*
X61520148Y-79689357D01*
X60946664Y-79479542D01*
X60336540Y-79505161D01*
X59891852Y-79689357D01*
X59805446Y-79945841D01*
X59256658Y-79945841D01*
X59035507Y-79724690D01*
X58471330Y-79491000D01*
X57860670Y-79491000D01*
X57296493Y-79724690D01*
X56896000Y-80125183D01*
X56495507Y-79724690D01*
X55931330Y-79491000D01*
X55320670Y-79491000D01*
X54756493Y-79724690D01*
X54324690Y-80156493D01*
X54091000Y-80720670D01*
X51510000Y-80720670D01*
X51510000Y-73501041D01*
X98430086Y-73501041D01*
X98669611Y-74007134D01*
X99084577Y-74383041D01*
X99472961Y-74543904D01*
X99695000Y-74421915D01*
X99695000Y-73279000D01*
X98551371Y-73279000D01*
X98430086Y-73501041D01*
X51510000Y-73501041D01*
X51510000Y-72802959D01*
X98430086Y-72802959D01*
X98551371Y-73025000D01*
X99695000Y-73025000D01*
X99695000Y-71882085D01*
X99949000Y-71882085D01*
X99949000Y-73025000D01*
X99969000Y-73025000D01*
X99969000Y-73279000D01*
X99949000Y-73279000D01*
X99949000Y-74421915D01*
X100171039Y-74543904D01*
X100559423Y-74383041D01*
X100974389Y-74007134D01*
X101071053Y-73802892D01*
X101327423Y-74186577D01*
X101802091Y-74503740D01*
X102220667Y-74587000D01*
X102503333Y-74587000D01*
X102921909Y-74503740D01*
X103396577Y-74186577D01*
X103632000Y-73834242D01*
X103867423Y-74186577D01*
X104342091Y-74503740D01*
X104760667Y-74587000D01*
X105043333Y-74587000D01*
X105461909Y-74503740D01*
X105936577Y-74186577D01*
X106172000Y-73834242D01*
X106407423Y-74186577D01*
X106882091Y-74503740D01*
X107300667Y-74587000D01*
X107583333Y-74587000D01*
X108001909Y-74503740D01*
X108476577Y-74186577D01*
X108793740Y-73711909D01*
X108905113Y-73152000D01*
X108793740Y-72592091D01*
X108476577Y-72117423D01*
X108001909Y-71800260D01*
X107583333Y-71717000D01*
X107300667Y-71717000D01*
X106882091Y-71800260D01*
X106407423Y-72117423D01*
X106172000Y-72469758D01*
X105936577Y-72117423D01*
X105461909Y-71800260D01*
X105043333Y-71717000D01*
X104760667Y-71717000D01*
X104342091Y-71800260D01*
X103867423Y-72117423D01*
X103632000Y-72469758D01*
X103396577Y-72117423D01*
X102921909Y-71800260D01*
X102503333Y-71717000D01*
X102220667Y-71717000D01*
X101802091Y-71800260D01*
X101327423Y-72117423D01*
X101071053Y-72501108D01*
X100974389Y-72296866D01*
X100559423Y-71920959D01*
X100171039Y-71760096D01*
X99949000Y-71882085D01*
X99695000Y-71882085D01*
X99472961Y-71760096D01*
X99084577Y-71920959D01*
X98669611Y-72296866D01*
X98430086Y-72802959D01*
X51510000Y-72802959D01*
X51510000Y-55172776D01*
X51587026Y-55358734D01*
X52337266Y-56108974D01*
X53317501Y-56515000D01*
X54378499Y-56515000D01*
X54863796Y-56313984D01*
X54849073Y-56388000D01*
X54864001Y-56463048D01*
X54864000Y-64440159D01*
X54756493Y-64484690D01*
X54324690Y-64916493D01*
X54091000Y-65480670D01*
X54091000Y-66091330D01*
X54324690Y-66655507D01*
X54756493Y-67087310D01*
X55320670Y-67321000D01*
X55931330Y-67321000D01*
X56495507Y-67087310D01*
X56896000Y-66686817D01*
X57296493Y-67087310D01*
X57860670Y-67321000D01*
X58471330Y-67321000D01*
X59035507Y-67087310D01*
X59436000Y-66686817D01*
X59836493Y-67087310D01*
X60400670Y-67321000D01*
X61011330Y-67321000D01*
X61575507Y-67087310D01*
X61976000Y-66686817D01*
X62376493Y-67087310D01*
X62940670Y-67321000D01*
X63551330Y-67321000D01*
X64115507Y-67087310D01*
X64516000Y-66686817D01*
X64916493Y-67087310D01*
X65480670Y-67321000D01*
X66091330Y-67321000D01*
X66655507Y-67087310D01*
X67056000Y-66686817D01*
X67456493Y-67087310D01*
X68020670Y-67321000D01*
X68631330Y-67321000D01*
X69195507Y-67087310D01*
X69596000Y-66686817D01*
X69996493Y-67087310D01*
X70560670Y-67321000D01*
X71171330Y-67321000D01*
X71735507Y-67087310D01*
X72136000Y-66686817D01*
X72536493Y-67087310D01*
X73100670Y-67321000D01*
X73711330Y-67321000D01*
X74275507Y-67087310D01*
X74676000Y-66686817D01*
X75076493Y-67087310D01*
X75640670Y-67321000D01*
X76251330Y-67321000D01*
X76815507Y-67087310D01*
X77216000Y-66686817D01*
X77616493Y-67087310D01*
X78180670Y-67321000D01*
X78791330Y-67321000D01*
X79355507Y-67087310D01*
X79756000Y-66686817D01*
X80156493Y-67087310D01*
X80720670Y-67321000D01*
X81331330Y-67321000D01*
X81895507Y-67087310D01*
X82296000Y-66686817D01*
X82696493Y-67087310D01*
X83260670Y-67321000D01*
X83871330Y-67321000D01*
X84435507Y-67087310D01*
X84836000Y-66686817D01*
X85236493Y-67087310D01*
X85800670Y-67321000D01*
X86411330Y-67321000D01*
X86975507Y-67087310D01*
X87376000Y-66686817D01*
X87776493Y-67087310D01*
X88340670Y-67321000D01*
X88951330Y-67321000D01*
X89515507Y-67087310D01*
X89684725Y-66918092D01*
X89687843Y-66933765D01*
X89828191Y-67143809D01*
X90038235Y-67284157D01*
X90286000Y-67333440D01*
X92086000Y-67333440D01*
X92333765Y-67284157D01*
X92543809Y-67143809D01*
X92684157Y-66933765D01*
X92733440Y-66686000D01*
X92733440Y-64886000D01*
X92684157Y-64638235D01*
X92543809Y-64428191D01*
X92333765Y-64287843D01*
X92086000Y-64238560D01*
X91839561Y-64238560D01*
X91819448Y-64208459D01*
X91777882Y-64146251D01*
X91735371Y-64082629D01*
X91671749Y-64040118D01*
X86454883Y-58823253D01*
X86412371Y-58759629D01*
X86160317Y-58591212D01*
X85938048Y-58547000D01*
X85938043Y-58547000D01*
X85863000Y-58532073D01*
X85787957Y-58547000D01*
X76782170Y-58547000D01*
X77270625Y-58220625D01*
X77598839Y-57729418D01*
X77714092Y-57150000D01*
X77598839Y-56570582D01*
X77270625Y-56079375D01*
X76970214Y-55878647D01*
X77395183Y-55491358D01*
X77641486Y-54966892D01*
X77520819Y-54737000D01*
X76327000Y-54737000D01*
X76327000Y-54757000D01*
X76073000Y-54757000D01*
X76073000Y-54737000D01*
X73787000Y-54737000D01*
X73787000Y-54757000D01*
X73533000Y-54757000D01*
X73533000Y-54737000D01*
X71247000Y-54737000D01*
X71247000Y-54757000D01*
X70993000Y-54757000D01*
X70993000Y-54737000D01*
X68707000Y-54737000D01*
X68707000Y-54757000D01*
X68453000Y-54757000D01*
X68453000Y-54737000D01*
X68433000Y-54737000D01*
X68433000Y-54483000D01*
X68453000Y-54483000D01*
X68453000Y-53289845D01*
X68707000Y-53289845D01*
X68707000Y-54483000D01*
X70993000Y-54483000D01*
X70993000Y-53289845D01*
X71247000Y-53289845D01*
X71247000Y-54483000D01*
X73533000Y-54483000D01*
X73533000Y-53289845D01*
X73787000Y-53289845D01*
X73787000Y-54483000D01*
X76073000Y-54483000D01*
X76073000Y-53289845D01*
X76327000Y-53289845D01*
X76327000Y-54483000D01*
X77520819Y-54483000D01*
X77641486Y-54253108D01*
X77395183Y-53728642D01*
X76966924Y-53338355D01*
X76556890Y-53168524D01*
X76327000Y-53289845D01*
X76073000Y-53289845D01*
X75843110Y-53168524D01*
X75433076Y-53338355D01*
X75004817Y-53728642D01*
X74930000Y-53887954D01*
X74855183Y-53728642D01*
X74426924Y-53338355D01*
X74016890Y-53168524D01*
X73787000Y-53289845D01*
X73533000Y-53289845D01*
X73303110Y-53168524D01*
X72893076Y-53338355D01*
X72464817Y-53728642D01*
X72390000Y-53887954D01*
X72315183Y-53728642D01*
X71886924Y-53338355D01*
X71476890Y-53168524D01*
X71247000Y-53289845D01*
X70993000Y-53289845D01*
X70763110Y-53168524D01*
X70353076Y-53338355D01*
X69924817Y-53728642D01*
X69850000Y-53887954D01*
X69775183Y-53728642D01*
X69346924Y-53338355D01*
X68936890Y-53168524D01*
X68707000Y-53289845D01*
X68453000Y-53289845D01*
X68223110Y-53168524D01*
X67813076Y-53338355D01*
X67384817Y-53728642D01*
X67323843Y-53858478D01*
X67110625Y-53539375D01*
X66619418Y-53211161D01*
X66186256Y-53125000D01*
X65893744Y-53125000D01*
X65675952Y-53168321D01*
X64726883Y-52219253D01*
X64684371Y-52155629D01*
X64432317Y-51987212D01*
X64210048Y-51943000D01*
X64210043Y-51943000D01*
X64135000Y-51928073D01*
X64059957Y-51943000D01*
X57415542Y-51943000D01*
X57340499Y-51928073D01*
X57265456Y-51943000D01*
X57265452Y-51943000D01*
X57043183Y-51987212D01*
X56791129Y-52155629D01*
X56748618Y-52219251D01*
X56283251Y-52684619D01*
X56259442Y-52700528D01*
X56108974Y-52337266D01*
X55358734Y-51587026D01*
X55172776Y-51510000D01*
X117547224Y-51510000D01*
X117361266Y-51587026D01*
G04 #@! TD*
M02*
