G04 #@! TF.GenerationSoftware,KiCad,Pcbnew,5.0.2-bee76a0~70~ubuntu16.04.1*
G04 #@! TF.CreationDate,2019-05-11T19:32:04-04:00*
G04 #@! TF.ProjectId,ControllerBoard,436f6e74-726f-46c6-9c65-72426f617264,rev?*
G04 #@! TF.SameCoordinates,Original*
G04 #@! TF.FileFunction,Legend,Top*
G04 #@! TF.FilePolarity,Positive*
%FSLAX46Y46*%
G04 Gerber Fmt 4.6, Leading zero omitted, Abs format (unit mm)*
G04 Created by KiCad (PCBNEW 5.0.2-bee76a0~70~ubuntu16.04.1) date Sat 11 May 2019 07:32:04 PM EDT*
%MOMM*%
%LPD*%
G01*
G04 APERTURE LIST*
%ADD10C,0.300000*%
%ADD11C,0.254000*%
%ADD12C,0.120000*%
%ADD13C,0.200000*%
%ADD14C,0.127000*%
%ADD15C,0.150000*%
%ADD16C,0.050000*%
G04 APERTURE END LIST*
D10*
X100616000Y-66901142D02*
X100830285Y-66972571D01*
X101187428Y-66972571D01*
X101330285Y-66901142D01*
X101401714Y-66829714D01*
X101473142Y-66686857D01*
X101473142Y-66544000D01*
X101401714Y-66401142D01*
X101330285Y-66329714D01*
X101187428Y-66258285D01*
X100901714Y-66186857D01*
X100758857Y-66115428D01*
X100687428Y-66044000D01*
X100616000Y-65901142D01*
X100616000Y-65758285D01*
X100687428Y-65615428D01*
X100758857Y-65544000D01*
X100901714Y-65472571D01*
X101258857Y-65472571D01*
X101473142Y-65544000D01*
X101973142Y-65472571D02*
X102330285Y-66972571D01*
X102616000Y-65901142D01*
X102901714Y-66972571D01*
X103258857Y-65472571D01*
X103687428Y-65472571D02*
X104616000Y-65472571D01*
X104116000Y-66044000D01*
X104330285Y-66044000D01*
X104473142Y-66115428D01*
X104544571Y-66186857D01*
X104616000Y-66329714D01*
X104616000Y-66686857D01*
X104544571Y-66829714D01*
X104473142Y-66901142D01*
X104330285Y-66972571D01*
X103901714Y-66972571D01*
X103758857Y-66901142D01*
X103687428Y-66829714D01*
X100616000Y-61821142D02*
X100830285Y-61892571D01*
X101187428Y-61892571D01*
X101330285Y-61821142D01*
X101401714Y-61749714D01*
X101473142Y-61606857D01*
X101473142Y-61464000D01*
X101401714Y-61321142D01*
X101330285Y-61249714D01*
X101187428Y-61178285D01*
X100901714Y-61106857D01*
X100758857Y-61035428D01*
X100687428Y-60964000D01*
X100616000Y-60821142D01*
X100616000Y-60678285D01*
X100687428Y-60535428D01*
X100758857Y-60464000D01*
X100901714Y-60392571D01*
X101258857Y-60392571D01*
X101473142Y-60464000D01*
X101973142Y-60392571D02*
X102330285Y-61892571D01*
X102616000Y-60821142D01*
X102901714Y-61892571D01*
X103258857Y-60392571D01*
X103758857Y-60535428D02*
X103830285Y-60464000D01*
X103973142Y-60392571D01*
X104330285Y-60392571D01*
X104473142Y-60464000D01*
X104544571Y-60535428D01*
X104616000Y-60678285D01*
X104616000Y-60821142D01*
X104544571Y-61035428D01*
X103687428Y-61892571D01*
X104616000Y-61892571D01*
X100616000Y-56741142D02*
X100830285Y-56812571D01*
X101187428Y-56812571D01*
X101330285Y-56741142D01*
X101401714Y-56669714D01*
X101473142Y-56526857D01*
X101473142Y-56384000D01*
X101401714Y-56241142D01*
X101330285Y-56169714D01*
X101187428Y-56098285D01*
X100901714Y-56026857D01*
X100758857Y-55955428D01*
X100687428Y-55884000D01*
X100616000Y-55741142D01*
X100616000Y-55598285D01*
X100687428Y-55455428D01*
X100758857Y-55384000D01*
X100901714Y-55312571D01*
X101258857Y-55312571D01*
X101473142Y-55384000D01*
X101973142Y-55312571D02*
X102330285Y-56812571D01*
X102616000Y-55741142D01*
X102901714Y-56812571D01*
X103258857Y-55312571D01*
X104616000Y-56812571D02*
X103758857Y-56812571D01*
X104187428Y-56812571D02*
X104187428Y-55312571D01*
X104044571Y-55526857D01*
X103901714Y-55669714D01*
X103758857Y-55741142D01*
X113641428Y-95103142D02*
X114784285Y-95103142D01*
X114212857Y-95674571D02*
X114212857Y-94531714D01*
X116212857Y-94174571D02*
X115498571Y-94174571D01*
X115427142Y-94888857D01*
X115498571Y-94817428D01*
X115641428Y-94746000D01*
X115998571Y-94746000D01*
X116141428Y-94817428D01*
X116212857Y-94888857D01*
X116284285Y-95031714D01*
X116284285Y-95388857D01*
X116212857Y-95531714D01*
X116141428Y-95603142D01*
X115998571Y-95674571D01*
X115641428Y-95674571D01*
X115498571Y-95603142D01*
X115427142Y-95531714D01*
X116712857Y-94174571D02*
X117212857Y-95674571D01*
X117712857Y-94174571D01*
X114935142Y-81038000D02*
X114792285Y-80966571D01*
X114578000Y-80966571D01*
X114363714Y-81038000D01*
X114220857Y-81180857D01*
X114149428Y-81323714D01*
X114078000Y-81609428D01*
X114078000Y-81823714D01*
X114149428Y-82109428D01*
X114220857Y-82252285D01*
X114363714Y-82395142D01*
X114578000Y-82466571D01*
X114720857Y-82466571D01*
X114935142Y-82395142D01*
X115006571Y-82323714D01*
X115006571Y-81823714D01*
X114720857Y-81823714D01*
X115649428Y-82466571D02*
X115649428Y-80966571D01*
X116506571Y-82466571D01*
X116506571Y-80966571D01*
X117220857Y-82466571D02*
X117220857Y-80966571D01*
X117578000Y-80966571D01*
X117792285Y-81038000D01*
X117935142Y-81180857D01*
X118006571Y-81323714D01*
X118078000Y-81609428D01*
X118078000Y-81823714D01*
X118006571Y-82109428D01*
X117935142Y-82252285D01*
X117792285Y-82395142D01*
X117578000Y-82466571D01*
X117220857Y-82466571D01*
D11*
X60052857Y-97360619D02*
X60052857Y-96344619D01*
X60052857Y-96828428D02*
X60633428Y-96828428D01*
X60633428Y-97360619D02*
X60633428Y-96344619D01*
X61504285Y-97312238D02*
X61407523Y-97360619D01*
X61214000Y-97360619D01*
X61117238Y-97312238D01*
X61068857Y-97215476D01*
X61068857Y-96828428D01*
X61117238Y-96731666D01*
X61214000Y-96683285D01*
X61407523Y-96683285D01*
X61504285Y-96731666D01*
X61552666Y-96828428D01*
X61552666Y-96925190D01*
X61068857Y-97021952D01*
X61891333Y-97360619D02*
X62423523Y-96683285D01*
X61891333Y-96683285D02*
X62423523Y-97360619D01*
X63391142Y-97263857D02*
X63342761Y-97312238D01*
X63197619Y-97360619D01*
X63100857Y-97360619D01*
X62955714Y-97312238D01*
X62858952Y-97215476D01*
X62810571Y-97118714D01*
X62762190Y-96925190D01*
X62762190Y-96780047D01*
X62810571Y-96586523D01*
X62858952Y-96489761D01*
X62955714Y-96393000D01*
X63100857Y-96344619D01*
X63197619Y-96344619D01*
X63342761Y-96393000D01*
X63391142Y-96441380D01*
X63971714Y-97360619D02*
X63874952Y-97312238D01*
X63826571Y-97215476D01*
X63826571Y-96344619D01*
X64503904Y-97360619D02*
X64407142Y-97312238D01*
X64358761Y-97263857D01*
X64310380Y-97167095D01*
X64310380Y-96876809D01*
X64358761Y-96780047D01*
X64407142Y-96731666D01*
X64503904Y-96683285D01*
X64649047Y-96683285D01*
X64745809Y-96731666D01*
X64794190Y-96780047D01*
X64842571Y-96876809D01*
X64842571Y-97167095D01*
X64794190Y-97263857D01*
X64745809Y-97312238D01*
X64649047Y-97360619D01*
X64503904Y-97360619D01*
X65713428Y-97312238D02*
X65616666Y-97360619D01*
X65423142Y-97360619D01*
X65326380Y-97312238D01*
X65278000Y-97263857D01*
X65229619Y-97167095D01*
X65229619Y-96876809D01*
X65278000Y-96780047D01*
X65326380Y-96731666D01*
X65423142Y-96683285D01*
X65616666Y-96683285D01*
X65713428Y-96731666D01*
X66148857Y-97360619D02*
X66148857Y-96344619D01*
X66245619Y-96973571D02*
X66535904Y-97360619D01*
X66535904Y-96683285D02*
X66148857Y-97070333D01*
X68180857Y-97312238D02*
X68084095Y-97360619D01*
X67890571Y-97360619D01*
X67793809Y-97312238D01*
X67745428Y-97263857D01*
X67697047Y-97167095D01*
X67697047Y-96876809D01*
X67745428Y-96780047D01*
X67793809Y-96731666D01*
X67890571Y-96683285D01*
X68084095Y-96683285D01*
X68180857Y-96731666D01*
X68761428Y-97360619D02*
X68664666Y-97312238D01*
X68616285Y-97263857D01*
X68567904Y-97167095D01*
X68567904Y-96876809D01*
X68616285Y-96780047D01*
X68664666Y-96731666D01*
X68761428Y-96683285D01*
X68906571Y-96683285D01*
X69003333Y-96731666D01*
X69051714Y-96780047D01*
X69100095Y-96876809D01*
X69100095Y-97167095D01*
X69051714Y-97263857D01*
X69003333Y-97312238D01*
X68906571Y-97360619D01*
X68761428Y-97360619D01*
X69535523Y-96683285D02*
X69535523Y-97360619D01*
X69535523Y-96780047D02*
X69583904Y-96731666D01*
X69680666Y-96683285D01*
X69825809Y-96683285D01*
X69922571Y-96731666D01*
X69970952Y-96828428D01*
X69970952Y-97360619D01*
X70309619Y-96683285D02*
X70696666Y-96683285D01*
X70454761Y-96344619D02*
X70454761Y-97215476D01*
X70503142Y-97312238D01*
X70599904Y-97360619D01*
X70696666Y-97360619D01*
X71035333Y-97360619D02*
X71035333Y-96683285D01*
X71035333Y-96876809D02*
X71083714Y-96780047D01*
X71132095Y-96731666D01*
X71228857Y-96683285D01*
X71325619Y-96683285D01*
X71809428Y-97360619D02*
X71712666Y-97312238D01*
X71664285Y-97263857D01*
X71615904Y-97167095D01*
X71615904Y-96876809D01*
X71664285Y-96780047D01*
X71712666Y-96731666D01*
X71809428Y-96683285D01*
X71954571Y-96683285D01*
X72051333Y-96731666D01*
X72099714Y-96780047D01*
X72148095Y-96876809D01*
X72148095Y-97167095D01*
X72099714Y-97263857D01*
X72051333Y-97312238D01*
X71954571Y-97360619D01*
X71809428Y-97360619D01*
X72728666Y-97360619D02*
X72631904Y-97312238D01*
X72583523Y-97215476D01*
X72583523Y-96344619D01*
X73260857Y-97360619D02*
X73164095Y-97312238D01*
X73115714Y-97215476D01*
X73115714Y-96344619D01*
X74034952Y-97312238D02*
X73938190Y-97360619D01*
X73744666Y-97360619D01*
X73647904Y-97312238D01*
X73599523Y-97215476D01*
X73599523Y-96828428D01*
X73647904Y-96731666D01*
X73744666Y-96683285D01*
X73938190Y-96683285D01*
X74034952Y-96731666D01*
X74083333Y-96828428D01*
X74083333Y-96925190D01*
X73599523Y-97021952D01*
X74518761Y-97360619D02*
X74518761Y-96683285D01*
X74518761Y-96876809D02*
X74567142Y-96780047D01*
X74615523Y-96731666D01*
X74712285Y-96683285D01*
X74809047Y-96683285D01*
X75921809Y-97360619D02*
X75921809Y-96344619D01*
X75921809Y-96731666D02*
X76018571Y-96683285D01*
X76212095Y-96683285D01*
X76308857Y-96731666D01*
X76357238Y-96780047D01*
X76405619Y-96876809D01*
X76405619Y-97167095D01*
X76357238Y-97263857D01*
X76308857Y-97312238D01*
X76212095Y-97360619D01*
X76018571Y-97360619D01*
X75921809Y-97312238D01*
X76986190Y-97360619D02*
X76889428Y-97312238D01*
X76841047Y-97263857D01*
X76792666Y-97167095D01*
X76792666Y-96876809D01*
X76841047Y-96780047D01*
X76889428Y-96731666D01*
X76986190Y-96683285D01*
X77131333Y-96683285D01*
X77228095Y-96731666D01*
X77276476Y-96780047D01*
X77324857Y-96876809D01*
X77324857Y-97167095D01*
X77276476Y-97263857D01*
X77228095Y-97312238D01*
X77131333Y-97360619D01*
X76986190Y-97360619D01*
X78195714Y-97360619D02*
X78195714Y-96828428D01*
X78147333Y-96731666D01*
X78050571Y-96683285D01*
X77857047Y-96683285D01*
X77760285Y-96731666D01*
X78195714Y-97312238D02*
X78098952Y-97360619D01*
X77857047Y-97360619D01*
X77760285Y-97312238D01*
X77711904Y-97215476D01*
X77711904Y-97118714D01*
X77760285Y-97021952D01*
X77857047Y-96973571D01*
X78098952Y-96973571D01*
X78195714Y-96925190D01*
X78679523Y-97360619D02*
X78679523Y-96683285D01*
X78679523Y-96876809D02*
X78727904Y-96780047D01*
X78776285Y-96731666D01*
X78873047Y-96683285D01*
X78969809Y-96683285D01*
X79743904Y-97360619D02*
X79743904Y-96344619D01*
X79743904Y-97312238D02*
X79647142Y-97360619D01*
X79453619Y-97360619D01*
X79356857Y-97312238D01*
X79308476Y-97263857D01*
X79260095Y-97167095D01*
X79260095Y-96876809D01*
X79308476Y-96780047D01*
X79356857Y-96731666D01*
X79453619Y-96683285D01*
X79647142Y-96683285D01*
X79743904Y-96731666D01*
X81195333Y-96344619D02*
X81292095Y-96344619D01*
X81388857Y-96393000D01*
X81437238Y-96441380D01*
X81485619Y-96538142D01*
X81534000Y-96731666D01*
X81534000Y-96973571D01*
X81485619Y-97167095D01*
X81437238Y-97263857D01*
X81388857Y-97312238D01*
X81292095Y-97360619D01*
X81195333Y-97360619D01*
X81098571Y-97312238D01*
X81050190Y-97263857D01*
X81001809Y-97167095D01*
X80953428Y-96973571D01*
X80953428Y-96731666D01*
X81001809Y-96538142D01*
X81050190Y-96441380D01*
X81098571Y-96393000D01*
X81195333Y-96344619D01*
X81969428Y-97263857D02*
X82017809Y-97312238D01*
X81969428Y-97360619D01*
X81921047Y-97312238D01*
X81969428Y-97263857D01*
X81969428Y-97360619D01*
X82985428Y-97360619D02*
X82404857Y-97360619D01*
X82695142Y-97360619D02*
X82695142Y-96344619D01*
X82598380Y-96489761D01*
X82501619Y-96586523D01*
X82404857Y-96634904D01*
X84727142Y-97360619D02*
X84146571Y-97360619D01*
X84436857Y-97360619D02*
X84436857Y-96344619D01*
X84340095Y-96489761D01*
X84243333Y-96586523D01*
X84146571Y-96634904D01*
X85694761Y-97360619D02*
X85114190Y-97360619D01*
X85404476Y-97360619D02*
X85404476Y-96344619D01*
X85307714Y-96489761D01*
X85210952Y-96586523D01*
X85114190Y-96634904D01*
X86130190Y-96973571D02*
X86904285Y-96973571D01*
X87388095Y-97360619D02*
X87388095Y-96344619D01*
X87726761Y-97070333D01*
X88065428Y-96344619D01*
X88065428Y-97360619D01*
X88984666Y-97360619D02*
X88984666Y-96828428D01*
X88936285Y-96731666D01*
X88839523Y-96683285D01*
X88646000Y-96683285D01*
X88549238Y-96731666D01*
X88984666Y-97312238D02*
X88887904Y-97360619D01*
X88646000Y-97360619D01*
X88549238Y-97312238D01*
X88500857Y-97215476D01*
X88500857Y-97118714D01*
X88549238Y-97021952D01*
X88646000Y-96973571D01*
X88887904Y-96973571D01*
X88984666Y-96925190D01*
X89371714Y-96683285D02*
X89613619Y-97360619D01*
X89855523Y-96683285D02*
X89613619Y-97360619D01*
X89516857Y-97602523D01*
X89468476Y-97650904D01*
X89371714Y-97699285D01*
X90242571Y-96973571D02*
X91016666Y-96973571D01*
X91452095Y-96441380D02*
X91500476Y-96393000D01*
X91597238Y-96344619D01*
X91839142Y-96344619D01*
X91935904Y-96393000D01*
X91984285Y-96441380D01*
X92032666Y-96538142D01*
X92032666Y-96634904D01*
X91984285Y-96780047D01*
X91403714Y-97360619D01*
X92032666Y-97360619D01*
X92661619Y-96344619D02*
X92758380Y-96344619D01*
X92855142Y-96393000D01*
X92903523Y-96441380D01*
X92951904Y-96538142D01*
X93000285Y-96731666D01*
X93000285Y-96973571D01*
X92951904Y-97167095D01*
X92903523Y-97263857D01*
X92855142Y-97312238D01*
X92758380Y-97360619D01*
X92661619Y-97360619D01*
X92564857Y-97312238D01*
X92516476Y-97263857D01*
X92468095Y-97167095D01*
X92419714Y-96973571D01*
X92419714Y-96731666D01*
X92468095Y-96538142D01*
X92516476Y-96441380D01*
X92564857Y-96393000D01*
X92661619Y-96344619D01*
X93967904Y-97360619D02*
X93387333Y-97360619D01*
X93677619Y-97360619D02*
X93677619Y-96344619D01*
X93580857Y-96489761D01*
X93484095Y-96586523D01*
X93387333Y-96634904D01*
X94451714Y-97360619D02*
X94645238Y-97360619D01*
X94742000Y-97312238D01*
X94790380Y-97263857D01*
X94887142Y-97118714D01*
X94935523Y-96925190D01*
X94935523Y-96538142D01*
X94887142Y-96441380D01*
X94838761Y-96393000D01*
X94742000Y-96344619D01*
X94548476Y-96344619D01*
X94451714Y-96393000D01*
X94403333Y-96441380D01*
X94354952Y-96538142D01*
X94354952Y-96780047D01*
X94403333Y-96876809D01*
X94451714Y-96925190D01*
X94548476Y-96973571D01*
X94742000Y-96973571D01*
X94838761Y-96925190D01*
X94887142Y-96876809D01*
X94935523Y-96780047D01*
X63125047Y-99138619D02*
X63125047Y-98122619D01*
X63560476Y-99138619D02*
X63560476Y-98606428D01*
X63512095Y-98509666D01*
X63415333Y-98461285D01*
X63270190Y-98461285D01*
X63173428Y-98509666D01*
X63125047Y-98558047D01*
X63899142Y-98461285D02*
X64286190Y-98461285D01*
X64044285Y-98122619D02*
X64044285Y-98993476D01*
X64092666Y-99090238D01*
X64189428Y-99138619D01*
X64286190Y-99138619D01*
X64479714Y-98461285D02*
X64866761Y-98461285D01*
X64624857Y-98122619D02*
X64624857Y-98993476D01*
X64673238Y-99090238D01*
X64769999Y-99138619D01*
X64866761Y-99138619D01*
X65205428Y-98461285D02*
X65205428Y-99477285D01*
X65205428Y-98509666D02*
X65302190Y-98461285D01*
X65495714Y-98461285D01*
X65592476Y-98509666D01*
X65640857Y-98558047D01*
X65689238Y-98654809D01*
X65689238Y-98945095D01*
X65640857Y-99041857D01*
X65592476Y-99090238D01*
X65495714Y-99138619D01*
X65302190Y-99138619D01*
X65205428Y-99090238D01*
X66076285Y-99090238D02*
X66173047Y-99138619D01*
X66366571Y-99138619D01*
X66463333Y-99090238D01*
X66511714Y-98993476D01*
X66511714Y-98945095D01*
X66463333Y-98848333D01*
X66366571Y-98799952D01*
X66221428Y-98799952D01*
X66124666Y-98751571D01*
X66076285Y-98654809D01*
X66076285Y-98606428D01*
X66124666Y-98509666D01*
X66221428Y-98461285D01*
X66366571Y-98461285D01*
X66463333Y-98509666D01*
X66947142Y-99041857D02*
X66995523Y-99090238D01*
X66947142Y-99138619D01*
X66898761Y-99090238D01*
X66947142Y-99041857D01*
X66947142Y-99138619D01*
X66947142Y-98509666D02*
X66995523Y-98558047D01*
X66947142Y-98606428D01*
X66898761Y-98558047D01*
X66947142Y-98509666D01*
X66947142Y-98606428D01*
X68156666Y-98074238D02*
X67285809Y-99380523D01*
X69221047Y-98074238D02*
X68350190Y-99380523D01*
X69995142Y-98461285D02*
X69995142Y-99283761D01*
X69946761Y-99380523D01*
X69898380Y-99428904D01*
X69801619Y-99477285D01*
X69656476Y-99477285D01*
X69559714Y-99428904D01*
X69995142Y-99090238D02*
X69898380Y-99138619D01*
X69704857Y-99138619D01*
X69608095Y-99090238D01*
X69559714Y-99041857D01*
X69511333Y-98945095D01*
X69511333Y-98654809D01*
X69559714Y-98558047D01*
X69608095Y-98509666D01*
X69704857Y-98461285D01*
X69898380Y-98461285D01*
X69995142Y-98509666D01*
X70478952Y-99138619D02*
X70478952Y-98461285D01*
X70478952Y-98122619D02*
X70430571Y-98171000D01*
X70478952Y-98219380D01*
X70527333Y-98171000D01*
X70478952Y-98122619D01*
X70478952Y-98219380D01*
X70817619Y-98461285D02*
X71204666Y-98461285D01*
X70962761Y-98122619D02*
X70962761Y-98993476D01*
X71011142Y-99090238D01*
X71107904Y-99138619D01*
X71204666Y-99138619D01*
X71543333Y-99138619D02*
X71543333Y-98122619D01*
X71978761Y-99138619D02*
X71978761Y-98606428D01*
X71930380Y-98509666D01*
X71833619Y-98461285D01*
X71688476Y-98461285D01*
X71591714Y-98509666D01*
X71543333Y-98558047D01*
X72898000Y-98461285D02*
X72898000Y-99138619D01*
X72462571Y-98461285D02*
X72462571Y-98993476D01*
X72510952Y-99090238D01*
X72607714Y-99138619D01*
X72752857Y-99138619D01*
X72849619Y-99090238D01*
X72898000Y-99041857D01*
X73381809Y-99138619D02*
X73381809Y-98122619D01*
X73381809Y-98509666D02*
X73478571Y-98461285D01*
X73672095Y-98461285D01*
X73768857Y-98509666D01*
X73817238Y-98558047D01*
X73865619Y-98654809D01*
X73865619Y-98945095D01*
X73817238Y-99041857D01*
X73768857Y-99090238D01*
X73672095Y-99138619D01*
X73478571Y-99138619D01*
X73381809Y-99090238D01*
X74301047Y-99041857D02*
X74349428Y-99090238D01*
X74301047Y-99138619D01*
X74252666Y-99090238D01*
X74301047Y-99041857D01*
X74301047Y-99138619D01*
X75220285Y-99090238D02*
X75123523Y-99138619D01*
X74930000Y-99138619D01*
X74833238Y-99090238D01*
X74784857Y-99041857D01*
X74736476Y-98945095D01*
X74736476Y-98654809D01*
X74784857Y-98558047D01*
X74833238Y-98509666D01*
X74930000Y-98461285D01*
X75123523Y-98461285D01*
X75220285Y-98509666D01*
X75800857Y-99138619D02*
X75704095Y-99090238D01*
X75655714Y-99041857D01*
X75607333Y-98945095D01*
X75607333Y-98654809D01*
X75655714Y-98558047D01*
X75704095Y-98509666D01*
X75800857Y-98461285D01*
X75946000Y-98461285D01*
X76042761Y-98509666D01*
X76091142Y-98558047D01*
X76139523Y-98654809D01*
X76139523Y-98945095D01*
X76091142Y-99041857D01*
X76042761Y-99090238D01*
X75946000Y-99138619D01*
X75800857Y-99138619D01*
X76574952Y-99138619D02*
X76574952Y-98461285D01*
X76574952Y-98558047D02*
X76623333Y-98509666D01*
X76720095Y-98461285D01*
X76865238Y-98461285D01*
X76962000Y-98509666D01*
X77010380Y-98606428D01*
X77010380Y-99138619D01*
X77010380Y-98606428D02*
X77058761Y-98509666D01*
X77155523Y-98461285D01*
X77300666Y-98461285D01*
X77397428Y-98509666D01*
X77445809Y-98606428D01*
X77445809Y-99138619D01*
X78655333Y-98074238D02*
X77784476Y-99380523D01*
X79429428Y-99138619D02*
X79429428Y-98122619D01*
X79429428Y-99090238D02*
X79332666Y-99138619D01*
X79139142Y-99138619D01*
X79042380Y-99090238D01*
X78994000Y-99041857D01*
X78945619Y-98945095D01*
X78945619Y-98654809D01*
X78994000Y-98558047D01*
X79042380Y-98509666D01*
X79139142Y-98461285D01*
X79332666Y-98461285D01*
X79429428Y-98509666D01*
X80348666Y-99138619D02*
X80348666Y-98606428D01*
X80300285Y-98509666D01*
X80203523Y-98461285D01*
X80010000Y-98461285D01*
X79913238Y-98509666D01*
X80348666Y-99090238D02*
X80251904Y-99138619D01*
X80010000Y-99138619D01*
X79913238Y-99090238D01*
X79864857Y-98993476D01*
X79864857Y-98896714D01*
X79913238Y-98799952D01*
X80010000Y-98751571D01*
X80251904Y-98751571D01*
X80348666Y-98703190D01*
X80735714Y-98461285D02*
X80977619Y-99138619D01*
X81219523Y-98461285D01*
X81993619Y-99090238D02*
X81896857Y-99138619D01*
X81703333Y-99138619D01*
X81606571Y-99090238D01*
X81558190Y-98993476D01*
X81558190Y-98606428D01*
X81606571Y-98509666D01*
X81703333Y-98461285D01*
X81896857Y-98461285D01*
X81993619Y-98509666D01*
X82042000Y-98606428D01*
X82042000Y-98703190D01*
X81558190Y-98799952D01*
X82477428Y-99138619D02*
X82477428Y-98122619D01*
X82912857Y-99138619D02*
X82912857Y-98606428D01*
X82864476Y-98509666D01*
X82767714Y-98461285D01*
X82622571Y-98461285D01*
X82525809Y-98509666D01*
X82477428Y-98558047D01*
X83541809Y-99138619D02*
X83445047Y-99090238D01*
X83396666Y-99041857D01*
X83348285Y-98945095D01*
X83348285Y-98654809D01*
X83396666Y-98558047D01*
X83445047Y-98509666D01*
X83541809Y-98461285D01*
X83686952Y-98461285D01*
X83783714Y-98509666D01*
X83832095Y-98558047D01*
X83880476Y-98654809D01*
X83880476Y-98945095D01*
X83832095Y-99041857D01*
X83783714Y-99090238D01*
X83686952Y-99138619D01*
X83541809Y-99138619D01*
X85041619Y-98074238D02*
X84170761Y-99380523D01*
X85380285Y-99138619D02*
X85380285Y-98122619D01*
X85380285Y-98606428D02*
X85960857Y-98606428D01*
X85960857Y-99138619D02*
X85960857Y-98122619D01*
X86831714Y-99090238D02*
X86734952Y-99138619D01*
X86541428Y-99138619D01*
X86444666Y-99090238D01*
X86396285Y-98993476D01*
X86396285Y-98606428D01*
X86444666Y-98509666D01*
X86541428Y-98461285D01*
X86734952Y-98461285D01*
X86831714Y-98509666D01*
X86880095Y-98606428D01*
X86880095Y-98703190D01*
X86396285Y-98799952D01*
X87218761Y-99138619D02*
X87750952Y-98461285D01*
X87218761Y-98461285D02*
X87750952Y-99138619D01*
X88718571Y-99041857D02*
X88670190Y-99090238D01*
X88525047Y-99138619D01*
X88428285Y-99138619D01*
X88283142Y-99090238D01*
X88186380Y-98993476D01*
X88138000Y-98896714D01*
X88089619Y-98703190D01*
X88089619Y-98558047D01*
X88138000Y-98364523D01*
X88186380Y-98267761D01*
X88283142Y-98171000D01*
X88428285Y-98122619D01*
X88525047Y-98122619D01*
X88670190Y-98171000D01*
X88718571Y-98219380D01*
X89299142Y-99138619D02*
X89202380Y-99090238D01*
X89154000Y-98993476D01*
X89154000Y-98122619D01*
X89831333Y-99138619D02*
X89734571Y-99090238D01*
X89686190Y-99041857D01*
X89637809Y-98945095D01*
X89637809Y-98654809D01*
X89686190Y-98558047D01*
X89734571Y-98509666D01*
X89831333Y-98461285D01*
X89976476Y-98461285D01*
X90073238Y-98509666D01*
X90121619Y-98558047D01*
X90170000Y-98654809D01*
X90170000Y-98945095D01*
X90121619Y-99041857D01*
X90073238Y-99090238D01*
X89976476Y-99138619D01*
X89831333Y-99138619D01*
X91040857Y-99090238D02*
X90944095Y-99138619D01*
X90750571Y-99138619D01*
X90653809Y-99090238D01*
X90605428Y-99041857D01*
X90557047Y-98945095D01*
X90557047Y-98654809D01*
X90605428Y-98558047D01*
X90653809Y-98509666D01*
X90750571Y-98461285D01*
X90944095Y-98461285D01*
X91040857Y-98509666D01*
X91476285Y-99138619D02*
X91476285Y-98122619D01*
X91573047Y-98751571D02*
X91863333Y-99138619D01*
X91863333Y-98461285D02*
X91476285Y-98848333D01*
D12*
G04 #@! TO.C,J1*
X117612756Y-90248682D02*
G75*
G02X117758000Y-90932000I-1534756J-683318D01*
G01*
X115394958Y-89396574D02*
G75*
G02X116762000Y-89397000I683042J-1535426D01*
G01*
X114542574Y-91615042D02*
G75*
G02X114543000Y-90248000I1535426J683042D01*
G01*
X116761042Y-92467426D02*
G75*
G02X115394000Y-92467000I-683042J1535426D01*
G01*
X117758253Y-90903195D02*
G75*
G02X117613000Y-91616000I-1680253J-28805D01*
G01*
X117758000Y-85932000D02*
G75*
G03X117758000Y-85932000I-1680000J0D01*
G01*
X120178000Y-93492000D02*
X120178000Y-83372000D01*
X118678000Y-93492000D02*
X118678000Y-83372000D01*
X113777000Y-93492000D02*
X113777000Y-83372000D01*
X110817000Y-93492000D02*
X110817000Y-83372000D01*
X120738000Y-93492000D02*
X120738000Y-83372000D01*
X110817000Y-93492000D02*
X120738000Y-93492000D01*
X110817000Y-83372000D02*
X120738000Y-83372000D01*
X115009000Y-84657000D02*
X115055000Y-84704000D01*
X117317000Y-86966000D02*
X117352000Y-87001000D01*
X114803000Y-84862000D02*
X114839000Y-84897000D01*
X117101000Y-87159000D02*
X117147000Y-87206000D01*
X120238000Y-93732000D02*
X120978000Y-93732000D01*
X120978000Y-93732000D02*
X120978000Y-93232000D01*
G04 #@! TO.C,J2*
X108518000Y-68894000D02*
X107188000Y-68894000D01*
X108518000Y-67564000D02*
X108518000Y-68894000D01*
X108518000Y-66294000D02*
X105858000Y-66294000D01*
X105858000Y-66294000D02*
X105858000Y-53534000D01*
X108518000Y-66294000D02*
X108518000Y-53534000D01*
X108518000Y-53534000D02*
X105858000Y-53534000D01*
G04 #@! TO.C,J3*
X57090000Y-58480000D02*
X57090000Y-57150000D01*
X58420000Y-58480000D02*
X57090000Y-58480000D01*
X57090000Y-55880000D02*
X57090000Y-53280000D01*
X59690000Y-55880000D02*
X57090000Y-55880000D01*
X59690000Y-58480000D02*
X59690000Y-55880000D01*
X57090000Y-53280000D02*
X77530000Y-53280000D01*
X59690000Y-58480000D02*
X77530000Y-58480000D01*
X77530000Y-58480000D02*
X77530000Y-53280000D01*
G04 #@! TO.C,R1*
X74768000Y-83780000D02*
X74768000Y-84110000D01*
X81188000Y-83780000D02*
X74768000Y-83780000D01*
X81188000Y-84110000D02*
X81188000Y-83780000D01*
X74768000Y-86400000D02*
X74768000Y-86070000D01*
X81188000Y-86400000D02*
X74768000Y-86400000D01*
X81188000Y-86070000D02*
X81188000Y-86400000D01*
G04 #@! TO.C,R2*
X81188000Y-89372000D02*
X81188000Y-89702000D01*
X81188000Y-89702000D02*
X74768000Y-89702000D01*
X74768000Y-89702000D02*
X74768000Y-89372000D01*
X81188000Y-87412000D02*
X81188000Y-87082000D01*
X81188000Y-87082000D02*
X74768000Y-87082000D01*
X74768000Y-87082000D02*
X74768000Y-87412000D01*
D13*
G04 #@! TO.C,TB1*
X91306000Y-63206000D02*
G75*
G03X91306000Y-63206000I-100000J0D01*
G01*
D14*
X94996000Y-64516000D02*
X94996000Y-82296000D01*
X94996000Y-82296000D02*
X51816000Y-82296000D01*
X51816000Y-82296000D02*
X51816000Y-64516000D01*
X51816000Y-64516000D02*
X94996000Y-64516000D01*
D12*
G04 #@! TO.C,U1*
X98432000Y-71822000D02*
X98432000Y-82102000D01*
X108832000Y-71822000D02*
X98432000Y-71822000D01*
X108832000Y-82102000D02*
X108832000Y-71822000D01*
X98432000Y-82102000D02*
X108832000Y-82102000D01*
X98492000Y-74312000D02*
X98492000Y-75962000D01*
X108772000Y-74312000D02*
X98492000Y-74312000D01*
X108772000Y-79612000D02*
X108772000Y-74312000D01*
X98492000Y-79612000D02*
X108772000Y-79612000D01*
X98492000Y-77962000D02*
X98492000Y-79612000D01*
X98492000Y-75962000D02*
G75*
G02X98492000Y-77962000I0J-1000000D01*
G01*
G04 #@! TO.C,Y1*
X101722000Y-85224000D02*
X101722000Y-84774000D01*
X101317000Y-86374000D02*
X101722000Y-85224000D01*
X99822000Y-85224000D02*
X99822000Y-84774000D01*
X100227000Y-86374000D02*
X99822000Y-85224000D01*
X102472000Y-86374000D02*
X99072000Y-86374000D01*
X102472000Y-94774000D02*
X102472000Y-86374000D01*
X99072000Y-94774000D02*
X102472000Y-94774000D01*
X99072000Y-86374000D02*
X99072000Y-94774000D01*
G04 #@! TO.C,REF\002A\002A*
X56134000Y-53848000D02*
G75*
G03X56134000Y-53848000I-2286000J0D01*
G01*
X121158000Y-53848000D02*
G75*
G03X121158000Y-53848000I-2286000J0D01*
G01*
X56134000Y-98552000D02*
G75*
G03X56134000Y-98552000I-2286000J0D01*
G01*
X121158000Y-98552000D02*
G75*
G03X121158000Y-98552000I-2286000J0D01*
G01*
G04 #@! TO.C,J1*
D15*
X109270380Y-88765333D02*
X109984666Y-88765333D01*
X110127523Y-88812952D01*
X110222761Y-88908190D01*
X110270380Y-89051047D01*
X110270380Y-89146285D01*
X110270380Y-87765333D02*
X110270380Y-88336761D01*
X110270380Y-88051047D02*
X109270380Y-88051047D01*
X109413238Y-88146285D01*
X109508476Y-88241523D01*
X109556095Y-88336761D01*
G04 #@! TO.C,J2*
X106854666Y-69346380D02*
X106854666Y-70060666D01*
X106807047Y-70203523D01*
X106711809Y-70298761D01*
X106568952Y-70346380D01*
X106473714Y-70346380D01*
X107283238Y-69441619D02*
X107330857Y-69394000D01*
X107426095Y-69346380D01*
X107664190Y-69346380D01*
X107759428Y-69394000D01*
X107807047Y-69441619D01*
X107854666Y-69536857D01*
X107854666Y-69632095D01*
X107807047Y-69774952D01*
X107235619Y-70346380D01*
X107854666Y-70346380D01*
G04 #@! TO.C,J3*
X55542380Y-56213333D02*
X56256666Y-56213333D01*
X56399523Y-56260952D01*
X56494761Y-56356190D01*
X56542380Y-56499047D01*
X56542380Y-56594285D01*
X55542380Y-55832380D02*
X55542380Y-55213333D01*
X55923333Y-55546666D01*
X55923333Y-55403809D01*
X55970952Y-55308571D01*
X56018571Y-55260952D01*
X56113809Y-55213333D01*
X56351904Y-55213333D01*
X56447142Y-55260952D01*
X56494761Y-55308571D01*
X56542380Y-55403809D01*
X56542380Y-55689523D01*
X56494761Y-55784761D01*
X56447142Y-55832380D01*
G04 #@! TO.C,R1*
X83907333Y-85796380D02*
X83574000Y-85320190D01*
X83335904Y-85796380D02*
X83335904Y-84796380D01*
X83716857Y-84796380D01*
X83812095Y-84844000D01*
X83859714Y-84891619D01*
X83907333Y-84986857D01*
X83907333Y-85129714D01*
X83859714Y-85224952D01*
X83812095Y-85272571D01*
X83716857Y-85320190D01*
X83335904Y-85320190D01*
X84859714Y-85796380D02*
X84288285Y-85796380D01*
X84574000Y-85796380D02*
X84574000Y-84796380D01*
X84478761Y-84939238D01*
X84383523Y-85034476D01*
X84288285Y-85082095D01*
G04 #@! TO.C,R2*
X83907333Y-88844380D02*
X83574000Y-88368190D01*
X83335904Y-88844380D02*
X83335904Y-87844380D01*
X83716857Y-87844380D01*
X83812095Y-87892000D01*
X83859714Y-87939619D01*
X83907333Y-88034857D01*
X83907333Y-88177714D01*
X83859714Y-88272952D01*
X83812095Y-88320571D01*
X83716857Y-88368190D01*
X83335904Y-88368190D01*
X84288285Y-87939619D02*
X84335904Y-87892000D01*
X84431142Y-87844380D01*
X84669238Y-87844380D01*
X84764476Y-87892000D01*
X84812095Y-87939619D01*
X84859714Y-88034857D01*
X84859714Y-88130095D01*
X84812095Y-88272952D01*
X84240666Y-88844380D01*
X84859714Y-88844380D01*
G04 #@! TO.C,TB1*
D16*
X95428333Y-69528666D02*
X95428333Y-68728666D01*
X96828333Y-69128666D02*
X95428333Y-69128666D01*
X96095000Y-67795333D02*
X96161666Y-67595333D01*
X96228333Y-67528666D01*
X96361666Y-67462000D01*
X96561666Y-67462000D01*
X96695000Y-67528666D01*
X96761666Y-67595333D01*
X96828333Y-67728666D01*
X96828333Y-68262000D01*
X95428333Y-68262000D01*
X95428333Y-67795333D01*
X95495000Y-67662000D01*
X95561666Y-67595333D01*
X95695000Y-67528666D01*
X95828333Y-67528666D01*
X95961666Y-67595333D01*
X96028333Y-67662000D01*
X96095000Y-67795333D01*
X96095000Y-68262000D01*
X96828333Y-66128666D02*
X96828333Y-66928666D01*
X96828333Y-66528666D02*
X95428333Y-66528666D01*
X95628333Y-66662000D01*
X95761666Y-66795333D01*
X95828333Y-66928666D01*
G04 #@! TO.C,U1*
D15*
X96944380Y-77723904D02*
X97753904Y-77723904D01*
X97849142Y-77676285D01*
X97896761Y-77628666D01*
X97944380Y-77533428D01*
X97944380Y-77342952D01*
X97896761Y-77247714D01*
X97849142Y-77200095D01*
X97753904Y-77152476D01*
X96944380Y-77152476D01*
X97944380Y-76152476D02*
X97944380Y-76723904D01*
X97944380Y-76438190D02*
X96944380Y-76438190D01*
X97087238Y-76533428D01*
X97182476Y-76628666D01*
X97230095Y-76723904D01*
G04 #@! TO.C,Y1*
X97728190Y-86800190D02*
X98204380Y-86800190D01*
X97204380Y-87133523D02*
X97728190Y-86800190D01*
X97204380Y-86466857D01*
X98204380Y-85609714D02*
X98204380Y-86181142D01*
X98204380Y-85895428D02*
X97204380Y-85895428D01*
X97347238Y-85990666D01*
X97442476Y-86085904D01*
X97490095Y-86181142D01*
G04 #@! TD*
M02*
