M48
;DRILL file {KiCad 5.0.2-bee76a0~70~ubuntu16.04.1} date Sat 11 May 2019 07:32:49 PM EDT
;FORMAT={3:3/ absolute / metric / suppress leading zeros}
FMAT,2
METRIC,TZ
T1C0.330
T2C0.500
T3C0.800
T4C0.900
T5C1.000
T6C1.300
T7C3.048
%
G90
G05
T1
X60262Y-62611
X64770Y-60439
X67183Y-61087
X70231Y-61709
X73406Y-62484
X100584Y-65024
T2
X99822Y-84074
X101722Y-84074
T3
X99822Y-73152
X99822Y-80772
X102362Y-73152
X102362Y-80772
X104902Y-73152
X104902Y-80772
X107442Y-73152
X107442Y-80772
X74168Y-85090
X81788Y-85090
X74168Y-88392
X81788Y-88392
T4
X55626Y-65786
X55626Y-81026
X58166Y-65786
X58166Y-81026
X60706Y-65786
X60706Y-81026
X63246Y-65786
X63246Y-81026
X65786Y-65786
X65786Y-81026
X68326Y-65786
X68326Y-81026
X70866Y-65786
X70866Y-81026
X73406Y-65786
X73406Y-81026
X75946Y-65786
X75946Y-81026
X78486Y-65786
X78486Y-81026
X81026Y-65786
X81026Y-81026
X83566Y-65786
X83566Y-81026
X86106Y-65786
X86106Y-81026
X88646Y-65786
X88646Y-81026
X91186Y-65786
X91186Y-81026
T5
X58420Y-54610
X58420Y-57150
X60960Y-54610
X60960Y-57150
X63500Y-54610
X63500Y-57150
X66040Y-54610
X66040Y-57150
X68580Y-54610
X68580Y-57150
X71120Y-54610
X71120Y-57150
X73660Y-54610
X73660Y-57150
X76200Y-54610
X76200Y-57150
X107188Y-54864
X107188Y-57404
X107188Y-59944
X107188Y-62484
X107188Y-65024
X107188Y-67564
T6
X116078Y-85932
X116078Y-90932
T7
X53848Y-53848
X53848Y-98552
X118872Y-53848
X118872Y-98552
T0
M30
