G04 #@! TF.GenerationSoftware,KiCad,Pcbnew,5.0.2-bee76a0~70~ubuntu16.04.1*
G04 #@! TF.CreationDate,2019-05-11T19:32:04-04:00*
G04 #@! TF.ProjectId,ControllerBoard,436f6e74-726f-46c6-9c65-72426f617264,rev?*
G04 #@! TF.SameCoordinates,Original*
G04 #@! TF.FileFunction,Soldermask,Top*
G04 #@! TF.FilePolarity,Negative*
%FSLAX46Y46*%
G04 Gerber Fmt 4.6, Leading zero omitted, Abs format (unit mm)*
G04 Created by KiCad (PCBNEW 5.0.2-bee76a0~70~ubuntu16.04.1) date Sat 11 May 2019 07:32:04 PM EDT*
%MOMM*%
%LPD*%
G01*
G04 APERTURE LIST*
%ADD10C,0.100000*%
G04 APERTURE END LIST*
D10*
G36*
X119479589Y-96549048D02*
X119858671Y-96706069D01*
X120195294Y-96930994D01*
X120199838Y-96934030D01*
X120489970Y-97224162D01*
X120717932Y-97565331D01*
X120874952Y-97944412D01*
X120955000Y-98346841D01*
X120955000Y-98757159D01*
X120874952Y-99159588D01*
X120717932Y-99538669D01*
X120489970Y-99879838D01*
X120199838Y-100169970D01*
X120199835Y-100169972D01*
X119858671Y-100397931D01*
X119479589Y-100554952D01*
X119077159Y-100635000D01*
X118666841Y-100635000D01*
X118264411Y-100554952D01*
X117885329Y-100397931D01*
X117544165Y-100169972D01*
X117544162Y-100169970D01*
X117254030Y-99879838D01*
X117026068Y-99538669D01*
X116869048Y-99159588D01*
X116789000Y-98757159D01*
X116789000Y-98346841D01*
X116869048Y-97944412D01*
X117026068Y-97565331D01*
X117254030Y-97224162D01*
X117544162Y-96934030D01*
X117548706Y-96930994D01*
X117885329Y-96706069D01*
X118264411Y-96549048D01*
X118666841Y-96469000D01*
X119077159Y-96469000D01*
X119479589Y-96549048D01*
X119479589Y-96549048D01*
G37*
G36*
X54455589Y-96549048D02*
X54834671Y-96706069D01*
X55171294Y-96930994D01*
X55175838Y-96934030D01*
X55465970Y-97224162D01*
X55693932Y-97565331D01*
X55850952Y-97944412D01*
X55931000Y-98346841D01*
X55931000Y-98757159D01*
X55850952Y-99159588D01*
X55693932Y-99538669D01*
X55465970Y-99879838D01*
X55175838Y-100169970D01*
X55175835Y-100169972D01*
X54834671Y-100397931D01*
X54455589Y-100554952D01*
X54053159Y-100635000D01*
X53642841Y-100635000D01*
X53240411Y-100554952D01*
X52861329Y-100397931D01*
X52520165Y-100169972D01*
X52520162Y-100169970D01*
X52230030Y-99879838D01*
X52002068Y-99538669D01*
X51845048Y-99159588D01*
X51765000Y-98757159D01*
X51765000Y-98346841D01*
X51845048Y-97944412D01*
X52002068Y-97565331D01*
X52230030Y-97224162D01*
X52520162Y-96934030D01*
X52524706Y-96930994D01*
X52861329Y-96706069D01*
X53240411Y-96549048D01*
X53642841Y-96469000D01*
X54053159Y-96469000D01*
X54455589Y-96549048D01*
X54455589Y-96549048D01*
G37*
G36*
X117429000Y-92283000D02*
X114727000Y-92283000D01*
X114727000Y-89581000D01*
X117429000Y-89581000D01*
X117429000Y-92283000D01*
X117429000Y-92283000D01*
G37*
G36*
X74334821Y-87553313D02*
X74334824Y-87553314D01*
X74334825Y-87553314D01*
X74495239Y-87601975D01*
X74495241Y-87601976D01*
X74495244Y-87601977D01*
X74643078Y-87680995D01*
X74772659Y-87787341D01*
X74879005Y-87916922D01*
X74958023Y-88064756D01*
X74958024Y-88064759D01*
X74958025Y-88064761D01*
X75006686Y-88225175D01*
X75006687Y-88225179D01*
X75023117Y-88392000D01*
X75006687Y-88558821D01*
X75006686Y-88558824D01*
X75006686Y-88558825D01*
X74981993Y-88640228D01*
X74958023Y-88719244D01*
X74879005Y-88867078D01*
X74772659Y-88996659D01*
X74643078Y-89103005D01*
X74495244Y-89182023D01*
X74495241Y-89182024D01*
X74495239Y-89182025D01*
X74334825Y-89230686D01*
X74334824Y-89230686D01*
X74334821Y-89230687D01*
X74209804Y-89243000D01*
X74126196Y-89243000D01*
X74001179Y-89230687D01*
X74001176Y-89230686D01*
X74001175Y-89230686D01*
X73840761Y-89182025D01*
X73840759Y-89182024D01*
X73840756Y-89182023D01*
X73692922Y-89103005D01*
X73563341Y-88996659D01*
X73456995Y-88867078D01*
X73377977Y-88719244D01*
X73354008Y-88640228D01*
X73329314Y-88558825D01*
X73329314Y-88558824D01*
X73329313Y-88558821D01*
X73312883Y-88392000D01*
X73329313Y-88225179D01*
X73329314Y-88225175D01*
X73377975Y-88064761D01*
X73377976Y-88064759D01*
X73377977Y-88064756D01*
X73456995Y-87916922D01*
X73563341Y-87787341D01*
X73692922Y-87680995D01*
X73840756Y-87601977D01*
X73840759Y-87601976D01*
X73840761Y-87601975D01*
X74001175Y-87553314D01*
X74001176Y-87553314D01*
X74001179Y-87553313D01*
X74126196Y-87541000D01*
X74209804Y-87541000D01*
X74334821Y-87553313D01*
X74334821Y-87553313D01*
G37*
G36*
X82036228Y-87573703D02*
X82191100Y-87637853D01*
X82330481Y-87730985D01*
X82449015Y-87849519D01*
X82542147Y-87988900D01*
X82606297Y-88143772D01*
X82639000Y-88308184D01*
X82639000Y-88475816D01*
X82606297Y-88640228D01*
X82542147Y-88795100D01*
X82449015Y-88934481D01*
X82330481Y-89053015D01*
X82191100Y-89146147D01*
X82036228Y-89210297D01*
X81871816Y-89243000D01*
X81704184Y-89243000D01*
X81539772Y-89210297D01*
X81384900Y-89146147D01*
X81245519Y-89053015D01*
X81126985Y-88934481D01*
X81033853Y-88795100D01*
X80969703Y-88640228D01*
X80937000Y-88475816D01*
X80937000Y-88308184D01*
X80969703Y-88143772D01*
X81033853Y-87988900D01*
X81126985Y-87849519D01*
X81245519Y-87730985D01*
X81384900Y-87637853D01*
X81539772Y-87573703D01*
X81704184Y-87541000D01*
X81871816Y-87541000D01*
X82036228Y-87573703D01*
X82036228Y-87573703D01*
G37*
G36*
X116325811Y-84603825D02*
X116472072Y-84632918D01*
X116717939Y-84734759D01*
X116878094Y-84841772D01*
X116939215Y-84882612D01*
X117127388Y-85070785D01*
X117127390Y-85070788D01*
X117275241Y-85292061D01*
X117377082Y-85537928D01*
X117429000Y-85798938D01*
X117429000Y-86065062D01*
X117377082Y-86326072D01*
X117275241Y-86571939D01*
X117127890Y-86792464D01*
X117127388Y-86793215D01*
X116939215Y-86981388D01*
X116939212Y-86981390D01*
X116717939Y-87129241D01*
X116472072Y-87231082D01*
X116341567Y-87257041D01*
X116211063Y-87283000D01*
X115944937Y-87283000D01*
X115814433Y-87257041D01*
X115683928Y-87231082D01*
X115438061Y-87129241D01*
X115216788Y-86981390D01*
X115216785Y-86981388D01*
X115028612Y-86793215D01*
X115028110Y-86792464D01*
X114880759Y-86571939D01*
X114778918Y-86326072D01*
X114727000Y-86065062D01*
X114727000Y-85798938D01*
X114778918Y-85537928D01*
X114880759Y-85292061D01*
X115028610Y-85070788D01*
X115028612Y-85070785D01*
X115216785Y-84882612D01*
X115277906Y-84841772D01*
X115438061Y-84734759D01*
X115683928Y-84632918D01*
X115830189Y-84603825D01*
X115944937Y-84581000D01*
X116211063Y-84581000D01*
X116325811Y-84603825D01*
X116325811Y-84603825D01*
G37*
G36*
X74334821Y-84251313D02*
X74334824Y-84251314D01*
X74334825Y-84251314D01*
X74495239Y-84299975D01*
X74495241Y-84299976D01*
X74495244Y-84299977D01*
X74643078Y-84378995D01*
X74772659Y-84485341D01*
X74879005Y-84614922D01*
X74958023Y-84762756D01*
X74958024Y-84762759D01*
X74958025Y-84762761D01*
X74994381Y-84882612D01*
X75006687Y-84923179D01*
X75023117Y-85090000D01*
X75006687Y-85256821D01*
X75006686Y-85256824D01*
X75006686Y-85256825D01*
X74981993Y-85338228D01*
X74958023Y-85417244D01*
X74879005Y-85565078D01*
X74772659Y-85694659D01*
X74643078Y-85801005D01*
X74495244Y-85880023D01*
X74495241Y-85880024D01*
X74495239Y-85880025D01*
X74334825Y-85928686D01*
X74334824Y-85928686D01*
X74334821Y-85928687D01*
X74209804Y-85941000D01*
X74126196Y-85941000D01*
X74001179Y-85928687D01*
X74001176Y-85928686D01*
X74001175Y-85928686D01*
X73840761Y-85880025D01*
X73840759Y-85880024D01*
X73840756Y-85880023D01*
X73692922Y-85801005D01*
X73563341Y-85694659D01*
X73456995Y-85565078D01*
X73377977Y-85417244D01*
X73354008Y-85338228D01*
X73329314Y-85256825D01*
X73329314Y-85256824D01*
X73329313Y-85256821D01*
X73312883Y-85090000D01*
X73329313Y-84923179D01*
X73341619Y-84882612D01*
X73377975Y-84762761D01*
X73377976Y-84762759D01*
X73377977Y-84762756D01*
X73456995Y-84614922D01*
X73563341Y-84485341D01*
X73692922Y-84378995D01*
X73840756Y-84299977D01*
X73840759Y-84299976D01*
X73840761Y-84299975D01*
X74001175Y-84251314D01*
X74001176Y-84251314D01*
X74001179Y-84251313D01*
X74126196Y-84239000D01*
X74209804Y-84239000D01*
X74334821Y-84251313D01*
X74334821Y-84251313D01*
G37*
G36*
X82036228Y-84271703D02*
X82191100Y-84335853D01*
X82330481Y-84428985D01*
X82449015Y-84547519D01*
X82542147Y-84686900D01*
X82606297Y-84841772D01*
X82639000Y-85006184D01*
X82639000Y-85173816D01*
X82606297Y-85338228D01*
X82542147Y-85493100D01*
X82449015Y-85632481D01*
X82330481Y-85751015D01*
X82191100Y-85844147D01*
X82036228Y-85908297D01*
X81871816Y-85941000D01*
X81704184Y-85941000D01*
X81539772Y-85908297D01*
X81384900Y-85844147D01*
X81245519Y-85751015D01*
X81126985Y-85632481D01*
X81033853Y-85493100D01*
X80969703Y-85338228D01*
X80937000Y-85173816D01*
X80937000Y-85006184D01*
X80969703Y-84841772D01*
X81033853Y-84686900D01*
X81126985Y-84547519D01*
X81245519Y-84428985D01*
X81384900Y-84335853D01*
X81539772Y-84271703D01*
X81704184Y-84239000D01*
X81871816Y-84239000D01*
X82036228Y-84271703D01*
X82036228Y-84271703D01*
G37*
G36*
X99982721Y-83544174D02*
X100082995Y-83585709D01*
X100173245Y-83646012D01*
X100249988Y-83722755D01*
X100310291Y-83813005D01*
X100351826Y-83913279D01*
X100373000Y-84019730D01*
X100373000Y-84128270D01*
X100351826Y-84234721D01*
X100310291Y-84334995D01*
X100249988Y-84425245D01*
X100173245Y-84501988D01*
X100082995Y-84562291D01*
X99982721Y-84603826D01*
X99876270Y-84625000D01*
X99767730Y-84625000D01*
X99661279Y-84603826D01*
X99561005Y-84562291D01*
X99470755Y-84501988D01*
X99394012Y-84425245D01*
X99333709Y-84334995D01*
X99292174Y-84234721D01*
X99271000Y-84128270D01*
X99271000Y-84019730D01*
X99292174Y-83913279D01*
X99333709Y-83813005D01*
X99394012Y-83722755D01*
X99470755Y-83646012D01*
X99561005Y-83585709D01*
X99661279Y-83544174D01*
X99767730Y-83523000D01*
X99876270Y-83523000D01*
X99982721Y-83544174D01*
X99982721Y-83544174D01*
G37*
G36*
X101882721Y-83544174D02*
X101982995Y-83585709D01*
X102073245Y-83646012D01*
X102149988Y-83722755D01*
X102210291Y-83813005D01*
X102251826Y-83913279D01*
X102273000Y-84019730D01*
X102273000Y-84128270D01*
X102251826Y-84234721D01*
X102210291Y-84334995D01*
X102149988Y-84425245D01*
X102073245Y-84501988D01*
X101982995Y-84562291D01*
X101882721Y-84603826D01*
X101776270Y-84625000D01*
X101667730Y-84625000D01*
X101561279Y-84603826D01*
X101461005Y-84562291D01*
X101370755Y-84501988D01*
X101294012Y-84425245D01*
X101233709Y-84334995D01*
X101192174Y-84234721D01*
X101171000Y-84128270D01*
X101171000Y-84019730D01*
X101192174Y-83913279D01*
X101233709Y-83813005D01*
X101294012Y-83722755D01*
X101370755Y-83646012D01*
X101461005Y-83585709D01*
X101561279Y-83544174D01*
X101667730Y-83523000D01*
X101776270Y-83523000D01*
X101882721Y-83544174D01*
X101882721Y-83544174D01*
G37*
G36*
X73683396Y-80111546D02*
X73856466Y-80183234D01*
X74012230Y-80287312D01*
X74144688Y-80419770D01*
X74248766Y-80575534D01*
X74320454Y-80748604D01*
X74357000Y-80932333D01*
X74357000Y-81119667D01*
X74320454Y-81303396D01*
X74248766Y-81476466D01*
X74144688Y-81632230D01*
X74012230Y-81764688D01*
X73856466Y-81868766D01*
X73683396Y-81940454D01*
X73499667Y-81977000D01*
X73312333Y-81977000D01*
X73128604Y-81940454D01*
X72955534Y-81868766D01*
X72799770Y-81764688D01*
X72667312Y-81632230D01*
X72563234Y-81476466D01*
X72491546Y-81303396D01*
X72455000Y-81119667D01*
X72455000Y-80932333D01*
X72491546Y-80748604D01*
X72563234Y-80575534D01*
X72667312Y-80419770D01*
X72799770Y-80287312D01*
X72955534Y-80183234D01*
X73128604Y-80111546D01*
X73312333Y-80075000D01*
X73499667Y-80075000D01*
X73683396Y-80111546D01*
X73683396Y-80111546D01*
G37*
G36*
X81303396Y-80111546D02*
X81476466Y-80183234D01*
X81632230Y-80287312D01*
X81764688Y-80419770D01*
X81868766Y-80575534D01*
X81940454Y-80748604D01*
X81977000Y-80932333D01*
X81977000Y-81119667D01*
X81940454Y-81303396D01*
X81868766Y-81476466D01*
X81764688Y-81632230D01*
X81632230Y-81764688D01*
X81476466Y-81868766D01*
X81303396Y-81940454D01*
X81119667Y-81977000D01*
X80932333Y-81977000D01*
X80748604Y-81940454D01*
X80575534Y-81868766D01*
X80419770Y-81764688D01*
X80287312Y-81632230D01*
X80183234Y-81476466D01*
X80111546Y-81303396D01*
X80075000Y-81119667D01*
X80075000Y-80932333D01*
X80111546Y-80748604D01*
X80183234Y-80575534D01*
X80287312Y-80419770D01*
X80419770Y-80287312D01*
X80575534Y-80183234D01*
X80748604Y-80111546D01*
X80932333Y-80075000D01*
X81119667Y-80075000D01*
X81303396Y-80111546D01*
X81303396Y-80111546D01*
G37*
G36*
X78763396Y-80111546D02*
X78936466Y-80183234D01*
X79092230Y-80287312D01*
X79224688Y-80419770D01*
X79328766Y-80575534D01*
X79400454Y-80748604D01*
X79437000Y-80932333D01*
X79437000Y-81119667D01*
X79400454Y-81303396D01*
X79328766Y-81476466D01*
X79224688Y-81632230D01*
X79092230Y-81764688D01*
X78936466Y-81868766D01*
X78763396Y-81940454D01*
X78579667Y-81977000D01*
X78392333Y-81977000D01*
X78208604Y-81940454D01*
X78035534Y-81868766D01*
X77879770Y-81764688D01*
X77747312Y-81632230D01*
X77643234Y-81476466D01*
X77571546Y-81303396D01*
X77535000Y-81119667D01*
X77535000Y-80932333D01*
X77571546Y-80748604D01*
X77643234Y-80575534D01*
X77747312Y-80419770D01*
X77879770Y-80287312D01*
X78035534Y-80183234D01*
X78208604Y-80111546D01*
X78392333Y-80075000D01*
X78579667Y-80075000D01*
X78763396Y-80111546D01*
X78763396Y-80111546D01*
G37*
G36*
X76223396Y-80111546D02*
X76396466Y-80183234D01*
X76552230Y-80287312D01*
X76684688Y-80419770D01*
X76788766Y-80575534D01*
X76860454Y-80748604D01*
X76897000Y-80932333D01*
X76897000Y-81119667D01*
X76860454Y-81303396D01*
X76788766Y-81476466D01*
X76684688Y-81632230D01*
X76552230Y-81764688D01*
X76396466Y-81868766D01*
X76223396Y-81940454D01*
X76039667Y-81977000D01*
X75852333Y-81977000D01*
X75668604Y-81940454D01*
X75495534Y-81868766D01*
X75339770Y-81764688D01*
X75207312Y-81632230D01*
X75103234Y-81476466D01*
X75031546Y-81303396D01*
X74995000Y-81119667D01*
X74995000Y-80932333D01*
X75031546Y-80748604D01*
X75103234Y-80575534D01*
X75207312Y-80419770D01*
X75339770Y-80287312D01*
X75495534Y-80183234D01*
X75668604Y-80111546D01*
X75852333Y-80075000D01*
X76039667Y-80075000D01*
X76223396Y-80111546D01*
X76223396Y-80111546D01*
G37*
G36*
X71143396Y-80111546D02*
X71316466Y-80183234D01*
X71472230Y-80287312D01*
X71604688Y-80419770D01*
X71708766Y-80575534D01*
X71780454Y-80748604D01*
X71817000Y-80932333D01*
X71817000Y-81119667D01*
X71780454Y-81303396D01*
X71708766Y-81476466D01*
X71604688Y-81632230D01*
X71472230Y-81764688D01*
X71316466Y-81868766D01*
X71143396Y-81940454D01*
X70959667Y-81977000D01*
X70772333Y-81977000D01*
X70588604Y-81940454D01*
X70415534Y-81868766D01*
X70259770Y-81764688D01*
X70127312Y-81632230D01*
X70023234Y-81476466D01*
X69951546Y-81303396D01*
X69915000Y-81119667D01*
X69915000Y-80932333D01*
X69951546Y-80748604D01*
X70023234Y-80575534D01*
X70127312Y-80419770D01*
X70259770Y-80287312D01*
X70415534Y-80183234D01*
X70588604Y-80111546D01*
X70772333Y-80075000D01*
X70959667Y-80075000D01*
X71143396Y-80111546D01*
X71143396Y-80111546D01*
G37*
G36*
X68603396Y-80111546D02*
X68776466Y-80183234D01*
X68932230Y-80287312D01*
X69064688Y-80419770D01*
X69168766Y-80575534D01*
X69240454Y-80748604D01*
X69277000Y-80932333D01*
X69277000Y-81119667D01*
X69240454Y-81303396D01*
X69168766Y-81476466D01*
X69064688Y-81632230D01*
X68932230Y-81764688D01*
X68776466Y-81868766D01*
X68603396Y-81940454D01*
X68419667Y-81977000D01*
X68232333Y-81977000D01*
X68048604Y-81940454D01*
X67875534Y-81868766D01*
X67719770Y-81764688D01*
X67587312Y-81632230D01*
X67483234Y-81476466D01*
X67411546Y-81303396D01*
X67375000Y-81119667D01*
X67375000Y-80932333D01*
X67411546Y-80748604D01*
X67483234Y-80575534D01*
X67587312Y-80419770D01*
X67719770Y-80287312D01*
X67875534Y-80183234D01*
X68048604Y-80111546D01*
X68232333Y-80075000D01*
X68419667Y-80075000D01*
X68603396Y-80111546D01*
X68603396Y-80111546D01*
G37*
G36*
X66063396Y-80111546D02*
X66236466Y-80183234D01*
X66392230Y-80287312D01*
X66524688Y-80419770D01*
X66628766Y-80575534D01*
X66700454Y-80748604D01*
X66737000Y-80932333D01*
X66737000Y-81119667D01*
X66700454Y-81303396D01*
X66628766Y-81476466D01*
X66524688Y-81632230D01*
X66392230Y-81764688D01*
X66236466Y-81868766D01*
X66063396Y-81940454D01*
X65879667Y-81977000D01*
X65692333Y-81977000D01*
X65508604Y-81940454D01*
X65335534Y-81868766D01*
X65179770Y-81764688D01*
X65047312Y-81632230D01*
X64943234Y-81476466D01*
X64871546Y-81303396D01*
X64835000Y-81119667D01*
X64835000Y-80932333D01*
X64871546Y-80748604D01*
X64943234Y-80575534D01*
X65047312Y-80419770D01*
X65179770Y-80287312D01*
X65335534Y-80183234D01*
X65508604Y-80111546D01*
X65692333Y-80075000D01*
X65879667Y-80075000D01*
X66063396Y-80111546D01*
X66063396Y-80111546D01*
G37*
G36*
X83843396Y-80111546D02*
X84016466Y-80183234D01*
X84172230Y-80287312D01*
X84304688Y-80419770D01*
X84408766Y-80575534D01*
X84480454Y-80748604D01*
X84517000Y-80932333D01*
X84517000Y-81119667D01*
X84480454Y-81303396D01*
X84408766Y-81476466D01*
X84304688Y-81632230D01*
X84172230Y-81764688D01*
X84016466Y-81868766D01*
X83843396Y-81940454D01*
X83659667Y-81977000D01*
X83472333Y-81977000D01*
X83288604Y-81940454D01*
X83115534Y-81868766D01*
X82959770Y-81764688D01*
X82827312Y-81632230D01*
X82723234Y-81476466D01*
X82651546Y-81303396D01*
X82615000Y-81119667D01*
X82615000Y-80932333D01*
X82651546Y-80748604D01*
X82723234Y-80575534D01*
X82827312Y-80419770D01*
X82959770Y-80287312D01*
X83115534Y-80183234D01*
X83288604Y-80111546D01*
X83472333Y-80075000D01*
X83659667Y-80075000D01*
X83843396Y-80111546D01*
X83843396Y-80111546D01*
G37*
G36*
X58443396Y-80111546D02*
X58616466Y-80183234D01*
X58772230Y-80287312D01*
X58904688Y-80419770D01*
X59008766Y-80575534D01*
X59080454Y-80748604D01*
X59117000Y-80932333D01*
X59117000Y-81119667D01*
X59080454Y-81303396D01*
X59008766Y-81476466D01*
X58904688Y-81632230D01*
X58772230Y-81764688D01*
X58616466Y-81868766D01*
X58443396Y-81940454D01*
X58259667Y-81977000D01*
X58072333Y-81977000D01*
X57888604Y-81940454D01*
X57715534Y-81868766D01*
X57559770Y-81764688D01*
X57427312Y-81632230D01*
X57323234Y-81476466D01*
X57251546Y-81303396D01*
X57215000Y-81119667D01*
X57215000Y-80932333D01*
X57251546Y-80748604D01*
X57323234Y-80575534D01*
X57427312Y-80419770D01*
X57559770Y-80287312D01*
X57715534Y-80183234D01*
X57888604Y-80111546D01*
X58072333Y-80075000D01*
X58259667Y-80075000D01*
X58443396Y-80111546D01*
X58443396Y-80111546D01*
G37*
G36*
X55903396Y-80111546D02*
X56076466Y-80183234D01*
X56232230Y-80287312D01*
X56364688Y-80419770D01*
X56468766Y-80575534D01*
X56540454Y-80748604D01*
X56577000Y-80932333D01*
X56577000Y-81119667D01*
X56540454Y-81303396D01*
X56468766Y-81476466D01*
X56364688Y-81632230D01*
X56232230Y-81764688D01*
X56076466Y-81868766D01*
X55903396Y-81940454D01*
X55719667Y-81977000D01*
X55532333Y-81977000D01*
X55348604Y-81940454D01*
X55175534Y-81868766D01*
X55019770Y-81764688D01*
X54887312Y-81632230D01*
X54783234Y-81476466D01*
X54711546Y-81303396D01*
X54675000Y-81119667D01*
X54675000Y-80932333D01*
X54711546Y-80748604D01*
X54783234Y-80575534D01*
X54887312Y-80419770D01*
X55019770Y-80287312D01*
X55175534Y-80183234D01*
X55348604Y-80111546D01*
X55532333Y-80075000D01*
X55719667Y-80075000D01*
X55903396Y-80111546D01*
X55903396Y-80111546D01*
G37*
G36*
X60983396Y-80111546D02*
X61156466Y-80183234D01*
X61312230Y-80287312D01*
X61444688Y-80419770D01*
X61548766Y-80575534D01*
X61620454Y-80748604D01*
X61657000Y-80932333D01*
X61657000Y-81119667D01*
X61620454Y-81303396D01*
X61548766Y-81476466D01*
X61444688Y-81632230D01*
X61312230Y-81764688D01*
X61156466Y-81868766D01*
X60983396Y-81940454D01*
X60799667Y-81977000D01*
X60612333Y-81977000D01*
X60428604Y-81940454D01*
X60255534Y-81868766D01*
X60099770Y-81764688D01*
X59967312Y-81632230D01*
X59863234Y-81476466D01*
X59791546Y-81303396D01*
X59755000Y-81119667D01*
X59755000Y-80932333D01*
X59791546Y-80748604D01*
X59863234Y-80575534D01*
X59967312Y-80419770D01*
X60099770Y-80287312D01*
X60255534Y-80183234D01*
X60428604Y-80111546D01*
X60612333Y-80075000D01*
X60799667Y-80075000D01*
X60983396Y-80111546D01*
X60983396Y-80111546D01*
G37*
G36*
X86383396Y-80111546D02*
X86556466Y-80183234D01*
X86712230Y-80287312D01*
X86844688Y-80419770D01*
X86948766Y-80575534D01*
X87020454Y-80748604D01*
X87057000Y-80932333D01*
X87057000Y-81119667D01*
X87020454Y-81303396D01*
X86948766Y-81476466D01*
X86844688Y-81632230D01*
X86712230Y-81764688D01*
X86556466Y-81868766D01*
X86383396Y-81940454D01*
X86199667Y-81977000D01*
X86012333Y-81977000D01*
X85828604Y-81940454D01*
X85655534Y-81868766D01*
X85499770Y-81764688D01*
X85367312Y-81632230D01*
X85263234Y-81476466D01*
X85191546Y-81303396D01*
X85155000Y-81119667D01*
X85155000Y-80932333D01*
X85191546Y-80748604D01*
X85263234Y-80575534D01*
X85367312Y-80419770D01*
X85499770Y-80287312D01*
X85655534Y-80183234D01*
X85828604Y-80111546D01*
X86012333Y-80075000D01*
X86199667Y-80075000D01*
X86383396Y-80111546D01*
X86383396Y-80111546D01*
G37*
G36*
X88923396Y-80111546D02*
X89096466Y-80183234D01*
X89252230Y-80287312D01*
X89384688Y-80419770D01*
X89488766Y-80575534D01*
X89560454Y-80748604D01*
X89597000Y-80932333D01*
X89597000Y-81119667D01*
X89560454Y-81303396D01*
X89488766Y-81476466D01*
X89384688Y-81632230D01*
X89252230Y-81764688D01*
X89096466Y-81868766D01*
X88923396Y-81940454D01*
X88739667Y-81977000D01*
X88552333Y-81977000D01*
X88368604Y-81940454D01*
X88195534Y-81868766D01*
X88039770Y-81764688D01*
X87907312Y-81632230D01*
X87803234Y-81476466D01*
X87731546Y-81303396D01*
X87695000Y-81119667D01*
X87695000Y-80932333D01*
X87731546Y-80748604D01*
X87803234Y-80575534D01*
X87907312Y-80419770D01*
X88039770Y-80287312D01*
X88195534Y-80183234D01*
X88368604Y-80111546D01*
X88552333Y-80075000D01*
X88739667Y-80075000D01*
X88923396Y-80111546D01*
X88923396Y-80111546D01*
G37*
G36*
X91463396Y-80111546D02*
X91636466Y-80183234D01*
X91792230Y-80287312D01*
X91924688Y-80419770D01*
X92028766Y-80575534D01*
X92100454Y-80748604D01*
X92137000Y-80932333D01*
X92137000Y-81119667D01*
X92100454Y-81303396D01*
X92028766Y-81476466D01*
X91924688Y-81632230D01*
X91792230Y-81764688D01*
X91636466Y-81868766D01*
X91463396Y-81940454D01*
X91279667Y-81977000D01*
X91092333Y-81977000D01*
X90908604Y-81940454D01*
X90735534Y-81868766D01*
X90579770Y-81764688D01*
X90447312Y-81632230D01*
X90343234Y-81476466D01*
X90271546Y-81303396D01*
X90235000Y-81119667D01*
X90235000Y-80932333D01*
X90271546Y-80748604D01*
X90343234Y-80575534D01*
X90447312Y-80419770D01*
X90579770Y-80287312D01*
X90735534Y-80183234D01*
X90908604Y-80111546D01*
X91092333Y-80075000D01*
X91279667Y-80075000D01*
X91463396Y-80111546D01*
X91463396Y-80111546D01*
G37*
G36*
X63523396Y-80111546D02*
X63696466Y-80183234D01*
X63852230Y-80287312D01*
X63984688Y-80419770D01*
X64088766Y-80575534D01*
X64160454Y-80748604D01*
X64197000Y-80932333D01*
X64197000Y-81119667D01*
X64160454Y-81303396D01*
X64088766Y-81476466D01*
X63984688Y-81632230D01*
X63852230Y-81764688D01*
X63696466Y-81868766D01*
X63523396Y-81940454D01*
X63339667Y-81977000D01*
X63152333Y-81977000D01*
X62968604Y-81940454D01*
X62795534Y-81868766D01*
X62639770Y-81764688D01*
X62507312Y-81632230D01*
X62403234Y-81476466D01*
X62331546Y-81303396D01*
X62295000Y-81119667D01*
X62295000Y-80932333D01*
X62331546Y-80748604D01*
X62403234Y-80575534D01*
X62507312Y-80419770D01*
X62639770Y-80287312D01*
X62795534Y-80183234D01*
X62968604Y-80111546D01*
X63152333Y-80075000D01*
X63339667Y-80075000D01*
X63523396Y-80111546D01*
X63523396Y-80111546D01*
G37*
G36*
X105068821Y-79933313D02*
X105068824Y-79933314D01*
X105068825Y-79933314D01*
X105229239Y-79981975D01*
X105229241Y-79981976D01*
X105229244Y-79981977D01*
X105377078Y-80060995D01*
X105506659Y-80167341D01*
X105613005Y-80296922D01*
X105692023Y-80444756D01*
X105692024Y-80444759D01*
X105692025Y-80444761D01*
X105740686Y-80605175D01*
X105740687Y-80605179D01*
X105757117Y-80772000D01*
X105740687Y-80938821D01*
X105692023Y-81099244D01*
X105613005Y-81247078D01*
X105506659Y-81376659D01*
X105377078Y-81483005D01*
X105229244Y-81562023D01*
X105229241Y-81562024D01*
X105229239Y-81562025D01*
X105068825Y-81610686D01*
X105068824Y-81610686D01*
X105068821Y-81610687D01*
X104943804Y-81623000D01*
X104860196Y-81623000D01*
X104735179Y-81610687D01*
X104735176Y-81610686D01*
X104735175Y-81610686D01*
X104574761Y-81562025D01*
X104574759Y-81562024D01*
X104574756Y-81562023D01*
X104426922Y-81483005D01*
X104297341Y-81376659D01*
X104190995Y-81247078D01*
X104111977Y-81099244D01*
X104063313Y-80938821D01*
X104046883Y-80772000D01*
X104063313Y-80605179D01*
X104063314Y-80605175D01*
X104111975Y-80444761D01*
X104111976Y-80444759D01*
X104111977Y-80444756D01*
X104190995Y-80296922D01*
X104297341Y-80167341D01*
X104426922Y-80060995D01*
X104574756Y-79981977D01*
X104574759Y-79981976D01*
X104574761Y-79981975D01*
X104735175Y-79933314D01*
X104735176Y-79933314D01*
X104735179Y-79933313D01*
X104860196Y-79921000D01*
X104943804Y-79921000D01*
X105068821Y-79933313D01*
X105068821Y-79933313D01*
G37*
G36*
X107608821Y-79933313D02*
X107608824Y-79933314D01*
X107608825Y-79933314D01*
X107769239Y-79981975D01*
X107769241Y-79981976D01*
X107769244Y-79981977D01*
X107917078Y-80060995D01*
X108046659Y-80167341D01*
X108153005Y-80296922D01*
X108232023Y-80444756D01*
X108232024Y-80444759D01*
X108232025Y-80444761D01*
X108280686Y-80605175D01*
X108280687Y-80605179D01*
X108297117Y-80772000D01*
X108280687Y-80938821D01*
X108232023Y-81099244D01*
X108153005Y-81247078D01*
X108046659Y-81376659D01*
X107917078Y-81483005D01*
X107769244Y-81562023D01*
X107769241Y-81562024D01*
X107769239Y-81562025D01*
X107608825Y-81610686D01*
X107608824Y-81610686D01*
X107608821Y-81610687D01*
X107483804Y-81623000D01*
X107400196Y-81623000D01*
X107275179Y-81610687D01*
X107275176Y-81610686D01*
X107275175Y-81610686D01*
X107114761Y-81562025D01*
X107114759Y-81562024D01*
X107114756Y-81562023D01*
X106966922Y-81483005D01*
X106837341Y-81376659D01*
X106730995Y-81247078D01*
X106651977Y-81099244D01*
X106603313Y-80938821D01*
X106586883Y-80772000D01*
X106603313Y-80605179D01*
X106603314Y-80605175D01*
X106651975Y-80444761D01*
X106651976Y-80444759D01*
X106651977Y-80444756D01*
X106730995Y-80296922D01*
X106837341Y-80167341D01*
X106966922Y-80060995D01*
X107114756Y-79981977D01*
X107114759Y-79981976D01*
X107114761Y-79981975D01*
X107275175Y-79933314D01*
X107275176Y-79933314D01*
X107275179Y-79933313D01*
X107400196Y-79921000D01*
X107483804Y-79921000D01*
X107608821Y-79933313D01*
X107608821Y-79933313D01*
G37*
G36*
X102528821Y-79933313D02*
X102528824Y-79933314D01*
X102528825Y-79933314D01*
X102689239Y-79981975D01*
X102689241Y-79981976D01*
X102689244Y-79981977D01*
X102837078Y-80060995D01*
X102966659Y-80167341D01*
X103073005Y-80296922D01*
X103152023Y-80444756D01*
X103152024Y-80444759D01*
X103152025Y-80444761D01*
X103200686Y-80605175D01*
X103200687Y-80605179D01*
X103217117Y-80772000D01*
X103200687Y-80938821D01*
X103152023Y-81099244D01*
X103073005Y-81247078D01*
X102966659Y-81376659D01*
X102837078Y-81483005D01*
X102689244Y-81562023D01*
X102689241Y-81562024D01*
X102689239Y-81562025D01*
X102528825Y-81610686D01*
X102528824Y-81610686D01*
X102528821Y-81610687D01*
X102403804Y-81623000D01*
X102320196Y-81623000D01*
X102195179Y-81610687D01*
X102195176Y-81610686D01*
X102195175Y-81610686D01*
X102034761Y-81562025D01*
X102034759Y-81562024D01*
X102034756Y-81562023D01*
X101886922Y-81483005D01*
X101757341Y-81376659D01*
X101650995Y-81247078D01*
X101571977Y-81099244D01*
X101523313Y-80938821D01*
X101506883Y-80772000D01*
X101523313Y-80605179D01*
X101523314Y-80605175D01*
X101571975Y-80444761D01*
X101571976Y-80444759D01*
X101571977Y-80444756D01*
X101650995Y-80296922D01*
X101757341Y-80167341D01*
X101886922Y-80060995D01*
X102034756Y-79981977D01*
X102034759Y-79981976D01*
X102034761Y-79981975D01*
X102195175Y-79933314D01*
X102195176Y-79933314D01*
X102195179Y-79933313D01*
X102320196Y-79921000D01*
X102403804Y-79921000D01*
X102528821Y-79933313D01*
X102528821Y-79933313D01*
G37*
G36*
X100673000Y-81623000D02*
X98971000Y-81623000D01*
X98971000Y-79921000D01*
X100673000Y-79921000D01*
X100673000Y-81623000D01*
X100673000Y-81623000D01*
G37*
G36*
X102528821Y-72313313D02*
X102528824Y-72313314D01*
X102528825Y-72313314D01*
X102689239Y-72361975D01*
X102689241Y-72361976D01*
X102689244Y-72361977D01*
X102837078Y-72440995D01*
X102966659Y-72547341D01*
X103073005Y-72676922D01*
X103152023Y-72824756D01*
X103200687Y-72985179D01*
X103217117Y-73152000D01*
X103200687Y-73318821D01*
X103152023Y-73479244D01*
X103073005Y-73627078D01*
X102966659Y-73756659D01*
X102837078Y-73863005D01*
X102689244Y-73942023D01*
X102689241Y-73942024D01*
X102689239Y-73942025D01*
X102528825Y-73990686D01*
X102528824Y-73990686D01*
X102528821Y-73990687D01*
X102403804Y-74003000D01*
X102320196Y-74003000D01*
X102195179Y-73990687D01*
X102195176Y-73990686D01*
X102195175Y-73990686D01*
X102034761Y-73942025D01*
X102034759Y-73942024D01*
X102034756Y-73942023D01*
X101886922Y-73863005D01*
X101757341Y-73756659D01*
X101650995Y-73627078D01*
X101571977Y-73479244D01*
X101523313Y-73318821D01*
X101506883Y-73152000D01*
X101523313Y-72985179D01*
X101571977Y-72824756D01*
X101650995Y-72676922D01*
X101757341Y-72547341D01*
X101886922Y-72440995D01*
X102034756Y-72361977D01*
X102034759Y-72361976D01*
X102034761Y-72361975D01*
X102195175Y-72313314D01*
X102195176Y-72313314D01*
X102195179Y-72313313D01*
X102320196Y-72301000D01*
X102403804Y-72301000D01*
X102528821Y-72313313D01*
X102528821Y-72313313D01*
G37*
G36*
X107608821Y-72313313D02*
X107608824Y-72313314D01*
X107608825Y-72313314D01*
X107769239Y-72361975D01*
X107769241Y-72361976D01*
X107769244Y-72361977D01*
X107917078Y-72440995D01*
X108046659Y-72547341D01*
X108153005Y-72676922D01*
X108232023Y-72824756D01*
X108280687Y-72985179D01*
X108297117Y-73152000D01*
X108280687Y-73318821D01*
X108232023Y-73479244D01*
X108153005Y-73627078D01*
X108046659Y-73756659D01*
X107917078Y-73863005D01*
X107769244Y-73942023D01*
X107769241Y-73942024D01*
X107769239Y-73942025D01*
X107608825Y-73990686D01*
X107608824Y-73990686D01*
X107608821Y-73990687D01*
X107483804Y-74003000D01*
X107400196Y-74003000D01*
X107275179Y-73990687D01*
X107275176Y-73990686D01*
X107275175Y-73990686D01*
X107114761Y-73942025D01*
X107114759Y-73942024D01*
X107114756Y-73942023D01*
X106966922Y-73863005D01*
X106837341Y-73756659D01*
X106730995Y-73627078D01*
X106651977Y-73479244D01*
X106603313Y-73318821D01*
X106586883Y-73152000D01*
X106603313Y-72985179D01*
X106651977Y-72824756D01*
X106730995Y-72676922D01*
X106837341Y-72547341D01*
X106966922Y-72440995D01*
X107114756Y-72361977D01*
X107114759Y-72361976D01*
X107114761Y-72361975D01*
X107275175Y-72313314D01*
X107275176Y-72313314D01*
X107275179Y-72313313D01*
X107400196Y-72301000D01*
X107483804Y-72301000D01*
X107608821Y-72313313D01*
X107608821Y-72313313D01*
G37*
G36*
X99988821Y-72313313D02*
X99988824Y-72313314D01*
X99988825Y-72313314D01*
X100149239Y-72361975D01*
X100149241Y-72361976D01*
X100149244Y-72361977D01*
X100297078Y-72440995D01*
X100426659Y-72547341D01*
X100533005Y-72676922D01*
X100612023Y-72824756D01*
X100660687Y-72985179D01*
X100677117Y-73152000D01*
X100660687Y-73318821D01*
X100612023Y-73479244D01*
X100533005Y-73627078D01*
X100426659Y-73756659D01*
X100297078Y-73863005D01*
X100149244Y-73942023D01*
X100149241Y-73942024D01*
X100149239Y-73942025D01*
X99988825Y-73990686D01*
X99988824Y-73990686D01*
X99988821Y-73990687D01*
X99863804Y-74003000D01*
X99780196Y-74003000D01*
X99655179Y-73990687D01*
X99655176Y-73990686D01*
X99655175Y-73990686D01*
X99494761Y-73942025D01*
X99494759Y-73942024D01*
X99494756Y-73942023D01*
X99346922Y-73863005D01*
X99217341Y-73756659D01*
X99110995Y-73627078D01*
X99031977Y-73479244D01*
X98983313Y-73318821D01*
X98966883Y-73152000D01*
X98983313Y-72985179D01*
X99031977Y-72824756D01*
X99110995Y-72676922D01*
X99217341Y-72547341D01*
X99346922Y-72440995D01*
X99494756Y-72361977D01*
X99494759Y-72361976D01*
X99494761Y-72361975D01*
X99655175Y-72313314D01*
X99655176Y-72313314D01*
X99655179Y-72313313D01*
X99780196Y-72301000D01*
X99863804Y-72301000D01*
X99988821Y-72313313D01*
X99988821Y-72313313D01*
G37*
G36*
X105068821Y-72313313D02*
X105068824Y-72313314D01*
X105068825Y-72313314D01*
X105229239Y-72361975D01*
X105229241Y-72361976D01*
X105229244Y-72361977D01*
X105377078Y-72440995D01*
X105506659Y-72547341D01*
X105613005Y-72676922D01*
X105692023Y-72824756D01*
X105740687Y-72985179D01*
X105757117Y-73152000D01*
X105740687Y-73318821D01*
X105692023Y-73479244D01*
X105613005Y-73627078D01*
X105506659Y-73756659D01*
X105377078Y-73863005D01*
X105229244Y-73942023D01*
X105229241Y-73942024D01*
X105229239Y-73942025D01*
X105068825Y-73990686D01*
X105068824Y-73990686D01*
X105068821Y-73990687D01*
X104943804Y-74003000D01*
X104860196Y-74003000D01*
X104735179Y-73990687D01*
X104735176Y-73990686D01*
X104735175Y-73990686D01*
X104574761Y-73942025D01*
X104574759Y-73942024D01*
X104574756Y-73942023D01*
X104426922Y-73863005D01*
X104297341Y-73756659D01*
X104190995Y-73627078D01*
X104111977Y-73479244D01*
X104063313Y-73318821D01*
X104046883Y-73152000D01*
X104063313Y-72985179D01*
X104111977Y-72824756D01*
X104190995Y-72676922D01*
X104297341Y-72547341D01*
X104426922Y-72440995D01*
X104574756Y-72361977D01*
X104574759Y-72361976D01*
X104574761Y-72361975D01*
X104735175Y-72313314D01*
X104735176Y-72313314D01*
X104735179Y-72313313D01*
X104860196Y-72301000D01*
X104943804Y-72301000D01*
X105068821Y-72313313D01*
X105068821Y-72313313D01*
G37*
G36*
X108089000Y-68465000D02*
X106287000Y-68465000D01*
X106287000Y-66663000D01*
X108089000Y-66663000D01*
X108089000Y-68465000D01*
X108089000Y-68465000D01*
G37*
G36*
X55903396Y-64871546D02*
X56076466Y-64943234D01*
X56232230Y-65047312D01*
X56364688Y-65179770D01*
X56468766Y-65335534D01*
X56540454Y-65508604D01*
X56577000Y-65692333D01*
X56577000Y-65879667D01*
X56540454Y-66063396D01*
X56468766Y-66236466D01*
X56364688Y-66392230D01*
X56232230Y-66524688D01*
X56076466Y-66628766D01*
X55903396Y-66700454D01*
X55719667Y-66737000D01*
X55532333Y-66737000D01*
X55348604Y-66700454D01*
X55175534Y-66628766D01*
X55019770Y-66524688D01*
X54887312Y-66392230D01*
X54783234Y-66236466D01*
X54711546Y-66063396D01*
X54675000Y-65879667D01*
X54675000Y-65692333D01*
X54711546Y-65508604D01*
X54783234Y-65335534D01*
X54887312Y-65179770D01*
X55019770Y-65047312D01*
X55175534Y-64943234D01*
X55348604Y-64871546D01*
X55532333Y-64835000D01*
X55719667Y-64835000D01*
X55903396Y-64871546D01*
X55903396Y-64871546D01*
G37*
G36*
X58443396Y-64871546D02*
X58616466Y-64943234D01*
X58772230Y-65047312D01*
X58904688Y-65179770D01*
X59008766Y-65335534D01*
X59080454Y-65508604D01*
X59117000Y-65692333D01*
X59117000Y-65879667D01*
X59080454Y-66063396D01*
X59008766Y-66236466D01*
X58904688Y-66392230D01*
X58772230Y-66524688D01*
X58616466Y-66628766D01*
X58443396Y-66700454D01*
X58259667Y-66737000D01*
X58072333Y-66737000D01*
X57888604Y-66700454D01*
X57715534Y-66628766D01*
X57559770Y-66524688D01*
X57427312Y-66392230D01*
X57323234Y-66236466D01*
X57251546Y-66063396D01*
X57215000Y-65879667D01*
X57215000Y-65692333D01*
X57251546Y-65508604D01*
X57323234Y-65335534D01*
X57427312Y-65179770D01*
X57559770Y-65047312D01*
X57715534Y-64943234D01*
X57888604Y-64871546D01*
X58072333Y-64835000D01*
X58259667Y-64835000D01*
X58443396Y-64871546D01*
X58443396Y-64871546D01*
G37*
G36*
X71143396Y-64871546D02*
X71316466Y-64943234D01*
X71472230Y-65047312D01*
X71604688Y-65179770D01*
X71708766Y-65335534D01*
X71780454Y-65508604D01*
X71817000Y-65692333D01*
X71817000Y-65879667D01*
X71780454Y-66063396D01*
X71708766Y-66236466D01*
X71604688Y-66392230D01*
X71472230Y-66524688D01*
X71316466Y-66628766D01*
X71143396Y-66700454D01*
X70959667Y-66737000D01*
X70772333Y-66737000D01*
X70588604Y-66700454D01*
X70415534Y-66628766D01*
X70259770Y-66524688D01*
X70127312Y-66392230D01*
X70023234Y-66236466D01*
X69951546Y-66063396D01*
X69915000Y-65879667D01*
X69915000Y-65692333D01*
X69951546Y-65508604D01*
X70023234Y-65335534D01*
X70127312Y-65179770D01*
X70259770Y-65047312D01*
X70415534Y-64943234D01*
X70588604Y-64871546D01*
X70772333Y-64835000D01*
X70959667Y-64835000D01*
X71143396Y-64871546D01*
X71143396Y-64871546D01*
G37*
G36*
X60983396Y-64871546D02*
X61156466Y-64943234D01*
X61312230Y-65047312D01*
X61444688Y-65179770D01*
X61548766Y-65335534D01*
X61620454Y-65508604D01*
X61657000Y-65692333D01*
X61657000Y-65879667D01*
X61620454Y-66063396D01*
X61548766Y-66236466D01*
X61444688Y-66392230D01*
X61312230Y-66524688D01*
X61156466Y-66628766D01*
X60983396Y-66700454D01*
X60799667Y-66737000D01*
X60612333Y-66737000D01*
X60428604Y-66700454D01*
X60255534Y-66628766D01*
X60099770Y-66524688D01*
X59967312Y-66392230D01*
X59863234Y-66236466D01*
X59791546Y-66063396D01*
X59755000Y-65879667D01*
X59755000Y-65692333D01*
X59791546Y-65508604D01*
X59863234Y-65335534D01*
X59967312Y-65179770D01*
X60099770Y-65047312D01*
X60255534Y-64943234D01*
X60428604Y-64871546D01*
X60612333Y-64835000D01*
X60799667Y-64835000D01*
X60983396Y-64871546D01*
X60983396Y-64871546D01*
G37*
G36*
X63523396Y-64871546D02*
X63696466Y-64943234D01*
X63852230Y-65047312D01*
X63984688Y-65179770D01*
X64088766Y-65335534D01*
X64160454Y-65508604D01*
X64197000Y-65692333D01*
X64197000Y-65879667D01*
X64160454Y-66063396D01*
X64088766Y-66236466D01*
X63984688Y-66392230D01*
X63852230Y-66524688D01*
X63696466Y-66628766D01*
X63523396Y-66700454D01*
X63339667Y-66737000D01*
X63152333Y-66737000D01*
X62968604Y-66700454D01*
X62795534Y-66628766D01*
X62639770Y-66524688D01*
X62507312Y-66392230D01*
X62403234Y-66236466D01*
X62331546Y-66063396D01*
X62295000Y-65879667D01*
X62295000Y-65692333D01*
X62331546Y-65508604D01*
X62403234Y-65335534D01*
X62507312Y-65179770D01*
X62639770Y-65047312D01*
X62795534Y-64943234D01*
X62968604Y-64871546D01*
X63152333Y-64835000D01*
X63339667Y-64835000D01*
X63523396Y-64871546D01*
X63523396Y-64871546D01*
G37*
G36*
X92137000Y-66737000D02*
X90235000Y-66737000D01*
X90235000Y-64835000D01*
X92137000Y-64835000D01*
X92137000Y-66737000D01*
X92137000Y-66737000D01*
G37*
G36*
X88923396Y-64871546D02*
X89096466Y-64943234D01*
X89252230Y-65047312D01*
X89384688Y-65179770D01*
X89488766Y-65335534D01*
X89560454Y-65508604D01*
X89597000Y-65692333D01*
X89597000Y-65879667D01*
X89560454Y-66063396D01*
X89488766Y-66236466D01*
X89384688Y-66392230D01*
X89252230Y-66524688D01*
X89096466Y-66628766D01*
X88923396Y-66700454D01*
X88739667Y-66737000D01*
X88552333Y-66737000D01*
X88368604Y-66700454D01*
X88195534Y-66628766D01*
X88039770Y-66524688D01*
X87907312Y-66392230D01*
X87803234Y-66236466D01*
X87731546Y-66063396D01*
X87695000Y-65879667D01*
X87695000Y-65692333D01*
X87731546Y-65508604D01*
X87803234Y-65335534D01*
X87907312Y-65179770D01*
X88039770Y-65047312D01*
X88195534Y-64943234D01*
X88368604Y-64871546D01*
X88552333Y-64835000D01*
X88739667Y-64835000D01*
X88923396Y-64871546D01*
X88923396Y-64871546D01*
G37*
G36*
X86383396Y-64871546D02*
X86556466Y-64943234D01*
X86712230Y-65047312D01*
X86844688Y-65179770D01*
X86948766Y-65335534D01*
X87020454Y-65508604D01*
X87057000Y-65692333D01*
X87057000Y-65879667D01*
X87020454Y-66063396D01*
X86948766Y-66236466D01*
X86844688Y-66392230D01*
X86712230Y-66524688D01*
X86556466Y-66628766D01*
X86383396Y-66700454D01*
X86199667Y-66737000D01*
X86012333Y-66737000D01*
X85828604Y-66700454D01*
X85655534Y-66628766D01*
X85499770Y-66524688D01*
X85367312Y-66392230D01*
X85263234Y-66236466D01*
X85191546Y-66063396D01*
X85155000Y-65879667D01*
X85155000Y-65692333D01*
X85191546Y-65508604D01*
X85263234Y-65335534D01*
X85367312Y-65179770D01*
X85499770Y-65047312D01*
X85655534Y-64943234D01*
X85828604Y-64871546D01*
X86012333Y-64835000D01*
X86199667Y-64835000D01*
X86383396Y-64871546D01*
X86383396Y-64871546D01*
G37*
G36*
X81303396Y-64871546D02*
X81476466Y-64943234D01*
X81632230Y-65047312D01*
X81764688Y-65179770D01*
X81868766Y-65335534D01*
X81940454Y-65508604D01*
X81977000Y-65692333D01*
X81977000Y-65879667D01*
X81940454Y-66063396D01*
X81868766Y-66236466D01*
X81764688Y-66392230D01*
X81632230Y-66524688D01*
X81476466Y-66628766D01*
X81303396Y-66700454D01*
X81119667Y-66737000D01*
X80932333Y-66737000D01*
X80748604Y-66700454D01*
X80575534Y-66628766D01*
X80419770Y-66524688D01*
X80287312Y-66392230D01*
X80183234Y-66236466D01*
X80111546Y-66063396D01*
X80075000Y-65879667D01*
X80075000Y-65692333D01*
X80111546Y-65508604D01*
X80183234Y-65335534D01*
X80287312Y-65179770D01*
X80419770Y-65047312D01*
X80575534Y-64943234D01*
X80748604Y-64871546D01*
X80932333Y-64835000D01*
X81119667Y-64835000D01*
X81303396Y-64871546D01*
X81303396Y-64871546D01*
G37*
G36*
X78763396Y-64871546D02*
X78936466Y-64943234D01*
X79092230Y-65047312D01*
X79224688Y-65179770D01*
X79328766Y-65335534D01*
X79400454Y-65508604D01*
X79437000Y-65692333D01*
X79437000Y-65879667D01*
X79400454Y-66063396D01*
X79328766Y-66236466D01*
X79224688Y-66392230D01*
X79092230Y-66524688D01*
X78936466Y-66628766D01*
X78763396Y-66700454D01*
X78579667Y-66737000D01*
X78392333Y-66737000D01*
X78208604Y-66700454D01*
X78035534Y-66628766D01*
X77879770Y-66524688D01*
X77747312Y-66392230D01*
X77643234Y-66236466D01*
X77571546Y-66063396D01*
X77535000Y-65879667D01*
X77535000Y-65692333D01*
X77571546Y-65508604D01*
X77643234Y-65335534D01*
X77747312Y-65179770D01*
X77879770Y-65047312D01*
X78035534Y-64943234D01*
X78208604Y-64871546D01*
X78392333Y-64835000D01*
X78579667Y-64835000D01*
X78763396Y-64871546D01*
X78763396Y-64871546D01*
G37*
G36*
X76223396Y-64871546D02*
X76396466Y-64943234D01*
X76552230Y-65047312D01*
X76684688Y-65179770D01*
X76788766Y-65335534D01*
X76860454Y-65508604D01*
X76897000Y-65692333D01*
X76897000Y-65879667D01*
X76860454Y-66063396D01*
X76788766Y-66236466D01*
X76684688Y-66392230D01*
X76552230Y-66524688D01*
X76396466Y-66628766D01*
X76223396Y-66700454D01*
X76039667Y-66737000D01*
X75852333Y-66737000D01*
X75668604Y-66700454D01*
X75495534Y-66628766D01*
X75339770Y-66524688D01*
X75207312Y-66392230D01*
X75103234Y-66236466D01*
X75031546Y-66063396D01*
X74995000Y-65879667D01*
X74995000Y-65692333D01*
X75031546Y-65508604D01*
X75103234Y-65335534D01*
X75207312Y-65179770D01*
X75339770Y-65047312D01*
X75495534Y-64943234D01*
X75668604Y-64871546D01*
X75852333Y-64835000D01*
X76039667Y-64835000D01*
X76223396Y-64871546D01*
X76223396Y-64871546D01*
G37*
G36*
X73683396Y-64871546D02*
X73856466Y-64943234D01*
X74012230Y-65047312D01*
X74144688Y-65179770D01*
X74248766Y-65335534D01*
X74320454Y-65508604D01*
X74357000Y-65692333D01*
X74357000Y-65879667D01*
X74320454Y-66063396D01*
X74248766Y-66236466D01*
X74144688Y-66392230D01*
X74012230Y-66524688D01*
X73856466Y-66628766D01*
X73683396Y-66700454D01*
X73499667Y-66737000D01*
X73312333Y-66737000D01*
X73128604Y-66700454D01*
X72955534Y-66628766D01*
X72799770Y-66524688D01*
X72667312Y-66392230D01*
X72563234Y-66236466D01*
X72491546Y-66063396D01*
X72455000Y-65879667D01*
X72455000Y-65692333D01*
X72491546Y-65508604D01*
X72563234Y-65335534D01*
X72667312Y-65179770D01*
X72799770Y-65047312D01*
X72955534Y-64943234D01*
X73128604Y-64871546D01*
X73312333Y-64835000D01*
X73499667Y-64835000D01*
X73683396Y-64871546D01*
X73683396Y-64871546D01*
G37*
G36*
X68603396Y-64871546D02*
X68776466Y-64943234D01*
X68932230Y-65047312D01*
X69064688Y-65179770D01*
X69168766Y-65335534D01*
X69240454Y-65508604D01*
X69277000Y-65692333D01*
X69277000Y-65879667D01*
X69240454Y-66063396D01*
X69168766Y-66236466D01*
X69064688Y-66392230D01*
X68932230Y-66524688D01*
X68776466Y-66628766D01*
X68603396Y-66700454D01*
X68419667Y-66737000D01*
X68232333Y-66737000D01*
X68048604Y-66700454D01*
X67875534Y-66628766D01*
X67719770Y-66524688D01*
X67587312Y-66392230D01*
X67483234Y-66236466D01*
X67411546Y-66063396D01*
X67375000Y-65879667D01*
X67375000Y-65692333D01*
X67411546Y-65508604D01*
X67483234Y-65335534D01*
X67587312Y-65179770D01*
X67719770Y-65047312D01*
X67875534Y-64943234D01*
X68048604Y-64871546D01*
X68232333Y-64835000D01*
X68419667Y-64835000D01*
X68603396Y-64871546D01*
X68603396Y-64871546D01*
G37*
G36*
X66063396Y-64871546D02*
X66236466Y-64943234D01*
X66392230Y-65047312D01*
X66524688Y-65179770D01*
X66628766Y-65335534D01*
X66700454Y-65508604D01*
X66737000Y-65692333D01*
X66737000Y-65879667D01*
X66700454Y-66063396D01*
X66628766Y-66236466D01*
X66524688Y-66392230D01*
X66392230Y-66524688D01*
X66236466Y-66628766D01*
X66063396Y-66700454D01*
X65879667Y-66737000D01*
X65692333Y-66737000D01*
X65508604Y-66700454D01*
X65335534Y-66628766D01*
X65179770Y-66524688D01*
X65047312Y-66392230D01*
X64943234Y-66236466D01*
X64871546Y-66063396D01*
X64835000Y-65879667D01*
X64835000Y-65692333D01*
X64871546Y-65508604D01*
X64943234Y-65335534D01*
X65047312Y-65179770D01*
X65179770Y-65047312D01*
X65335534Y-64943234D01*
X65508604Y-64871546D01*
X65692333Y-64835000D01*
X65879667Y-64835000D01*
X66063396Y-64871546D01*
X66063396Y-64871546D01*
G37*
G36*
X83843396Y-64871546D02*
X84016466Y-64943234D01*
X84172230Y-65047312D01*
X84304688Y-65179770D01*
X84408766Y-65335534D01*
X84480454Y-65508604D01*
X84517000Y-65692333D01*
X84517000Y-65879667D01*
X84480454Y-66063396D01*
X84408766Y-66236466D01*
X84304688Y-66392230D01*
X84172230Y-66524688D01*
X84016466Y-66628766D01*
X83843396Y-66700454D01*
X83659667Y-66737000D01*
X83472333Y-66737000D01*
X83288604Y-66700454D01*
X83115534Y-66628766D01*
X82959770Y-66524688D01*
X82827312Y-66392230D01*
X82723234Y-66236466D01*
X82651546Y-66063396D01*
X82615000Y-65879667D01*
X82615000Y-65692333D01*
X82651546Y-65508604D01*
X82723234Y-65335534D01*
X82827312Y-65179770D01*
X82959770Y-65047312D01*
X83115534Y-64943234D01*
X83288604Y-64871546D01*
X83472333Y-64835000D01*
X83659667Y-64835000D01*
X83843396Y-64871546D01*
X83843396Y-64871546D01*
G37*
G36*
X107298443Y-64129519D02*
X107364627Y-64136037D01*
X107477853Y-64170384D01*
X107534467Y-64187557D01*
X107673087Y-64261652D01*
X107690991Y-64271222D01*
X107726729Y-64300552D01*
X107828186Y-64383814D01*
X107911448Y-64485271D01*
X107940778Y-64521009D01*
X107940779Y-64521011D01*
X108024443Y-64677533D01*
X108024443Y-64677534D01*
X108075963Y-64847373D01*
X108093359Y-65024000D01*
X108075963Y-65200627D01*
X108041616Y-65313853D01*
X108024443Y-65370467D01*
X107950606Y-65508604D01*
X107940778Y-65526991D01*
X107911448Y-65562729D01*
X107828186Y-65664186D01*
X107726729Y-65747448D01*
X107690991Y-65776778D01*
X107690989Y-65776779D01*
X107534467Y-65860443D01*
X107477853Y-65877616D01*
X107364627Y-65911963D01*
X107298443Y-65918481D01*
X107232260Y-65925000D01*
X107143740Y-65925000D01*
X107077557Y-65918481D01*
X107011373Y-65911963D01*
X106898147Y-65877616D01*
X106841533Y-65860443D01*
X106685011Y-65776779D01*
X106685009Y-65776778D01*
X106649271Y-65747448D01*
X106547814Y-65664186D01*
X106464552Y-65562729D01*
X106435222Y-65526991D01*
X106425394Y-65508604D01*
X106351557Y-65370467D01*
X106334384Y-65313853D01*
X106300037Y-65200627D01*
X106282641Y-65024000D01*
X106300037Y-64847373D01*
X106351557Y-64677534D01*
X106351557Y-64677533D01*
X106435221Y-64521011D01*
X106435222Y-64521009D01*
X106464552Y-64485271D01*
X106547814Y-64383814D01*
X106649271Y-64300552D01*
X106685009Y-64271222D01*
X106702913Y-64261652D01*
X106841533Y-64187557D01*
X106898147Y-64170384D01*
X107011373Y-64136037D01*
X107077557Y-64129519D01*
X107143740Y-64123000D01*
X107232260Y-64123000D01*
X107298443Y-64129519D01*
X107298443Y-64129519D01*
G37*
G36*
X107298442Y-61589518D02*
X107364627Y-61596037D01*
X107477853Y-61630384D01*
X107534467Y-61647557D01*
X107673087Y-61721652D01*
X107690991Y-61731222D01*
X107726729Y-61760552D01*
X107828186Y-61843814D01*
X107911448Y-61945271D01*
X107940778Y-61981009D01*
X107940779Y-61981011D01*
X108024443Y-62137533D01*
X108024443Y-62137534D01*
X108075963Y-62307373D01*
X108093359Y-62484000D01*
X108075963Y-62660627D01*
X108041616Y-62773853D01*
X108024443Y-62830467D01*
X107950348Y-62969087D01*
X107940778Y-62986991D01*
X107911448Y-63022729D01*
X107828186Y-63124186D01*
X107726729Y-63207448D01*
X107690991Y-63236778D01*
X107690989Y-63236779D01*
X107534467Y-63320443D01*
X107477853Y-63337616D01*
X107364627Y-63371963D01*
X107298442Y-63378482D01*
X107232260Y-63385000D01*
X107143740Y-63385000D01*
X107077558Y-63378482D01*
X107011373Y-63371963D01*
X106898147Y-63337616D01*
X106841533Y-63320443D01*
X106685011Y-63236779D01*
X106685009Y-63236778D01*
X106649271Y-63207448D01*
X106547814Y-63124186D01*
X106464552Y-63022729D01*
X106435222Y-62986991D01*
X106425652Y-62969087D01*
X106351557Y-62830467D01*
X106334384Y-62773853D01*
X106300037Y-62660627D01*
X106282641Y-62484000D01*
X106300037Y-62307373D01*
X106351557Y-62137534D01*
X106351557Y-62137533D01*
X106435221Y-61981011D01*
X106435222Y-61981009D01*
X106464552Y-61945271D01*
X106547814Y-61843814D01*
X106649271Y-61760552D01*
X106685009Y-61731222D01*
X106702913Y-61721652D01*
X106841533Y-61647557D01*
X106898147Y-61630384D01*
X107011373Y-61596037D01*
X107077558Y-61589518D01*
X107143740Y-61583000D01*
X107232260Y-61583000D01*
X107298442Y-61589518D01*
X107298442Y-61589518D01*
G37*
G36*
X107298443Y-59049519D02*
X107364627Y-59056037D01*
X107477853Y-59090384D01*
X107534467Y-59107557D01*
X107673087Y-59181652D01*
X107690991Y-59191222D01*
X107726729Y-59220552D01*
X107828186Y-59303814D01*
X107911448Y-59405271D01*
X107940778Y-59441009D01*
X107940779Y-59441011D01*
X108024443Y-59597533D01*
X108024443Y-59597534D01*
X108075963Y-59767373D01*
X108093359Y-59944000D01*
X108075963Y-60120627D01*
X108041616Y-60233853D01*
X108024443Y-60290467D01*
X107950348Y-60429087D01*
X107940778Y-60446991D01*
X107911448Y-60482729D01*
X107828186Y-60584186D01*
X107726729Y-60667448D01*
X107690991Y-60696778D01*
X107690989Y-60696779D01*
X107534467Y-60780443D01*
X107477853Y-60797616D01*
X107364627Y-60831963D01*
X107298443Y-60838481D01*
X107232260Y-60845000D01*
X107143740Y-60845000D01*
X107077557Y-60838481D01*
X107011373Y-60831963D01*
X106898147Y-60797616D01*
X106841533Y-60780443D01*
X106685011Y-60696779D01*
X106685009Y-60696778D01*
X106649271Y-60667448D01*
X106547814Y-60584186D01*
X106464552Y-60482729D01*
X106435222Y-60446991D01*
X106425652Y-60429087D01*
X106351557Y-60290467D01*
X106334384Y-60233853D01*
X106300037Y-60120627D01*
X106282641Y-59944000D01*
X106300037Y-59767373D01*
X106351557Y-59597534D01*
X106351557Y-59597533D01*
X106435221Y-59441011D01*
X106435222Y-59441009D01*
X106464552Y-59405271D01*
X106547814Y-59303814D01*
X106649271Y-59220552D01*
X106685009Y-59191222D01*
X106702913Y-59181652D01*
X106841533Y-59107557D01*
X106898147Y-59090384D01*
X107011373Y-59056037D01*
X107077557Y-59049519D01*
X107143740Y-59043000D01*
X107232260Y-59043000D01*
X107298443Y-59049519D01*
X107298443Y-59049519D01*
G37*
G36*
X107298442Y-56509518D02*
X107364627Y-56516037D01*
X107477853Y-56550384D01*
X107534467Y-56567557D01*
X107673087Y-56641652D01*
X107690991Y-56651222D01*
X107726729Y-56680552D01*
X107828186Y-56763814D01*
X107911448Y-56865271D01*
X107940778Y-56901009D01*
X107940779Y-56901011D01*
X108024443Y-57057533D01*
X108024443Y-57057534D01*
X108075963Y-57227373D01*
X108093359Y-57404000D01*
X108075963Y-57580627D01*
X108041616Y-57693853D01*
X108024443Y-57750467D01*
X108003213Y-57790185D01*
X107940778Y-57906991D01*
X107911448Y-57942729D01*
X107828186Y-58044186D01*
X107726729Y-58127448D01*
X107690991Y-58156778D01*
X107690989Y-58156779D01*
X107534467Y-58240443D01*
X107477853Y-58257616D01*
X107364627Y-58291963D01*
X107298443Y-58298481D01*
X107232260Y-58305000D01*
X107143740Y-58305000D01*
X107077557Y-58298481D01*
X107011373Y-58291963D01*
X106898147Y-58257616D01*
X106841533Y-58240443D01*
X106685011Y-58156779D01*
X106685009Y-58156778D01*
X106649271Y-58127448D01*
X106547814Y-58044186D01*
X106464552Y-57942729D01*
X106435222Y-57906991D01*
X106372787Y-57790185D01*
X106351557Y-57750467D01*
X106334384Y-57693853D01*
X106300037Y-57580627D01*
X106282641Y-57404000D01*
X106300037Y-57227373D01*
X106351557Y-57057534D01*
X106351557Y-57057533D01*
X106435221Y-56901011D01*
X106435222Y-56901009D01*
X106464552Y-56865271D01*
X106547814Y-56763814D01*
X106649271Y-56680552D01*
X106685009Y-56651222D01*
X106702913Y-56641652D01*
X106841533Y-56567557D01*
X106898147Y-56550384D01*
X107011373Y-56516037D01*
X107077558Y-56509518D01*
X107143740Y-56503000D01*
X107232260Y-56503000D01*
X107298442Y-56509518D01*
X107298442Y-56509518D01*
G37*
G36*
X66150443Y-56255519D02*
X66216627Y-56262037D01*
X66329853Y-56296384D01*
X66386467Y-56313557D01*
X66525087Y-56387652D01*
X66542991Y-56397222D01*
X66578729Y-56426552D01*
X66680186Y-56509814D01*
X66763448Y-56611271D01*
X66792778Y-56647009D01*
X66792779Y-56647011D01*
X66876443Y-56803533D01*
X66876443Y-56803534D01*
X66927963Y-56973373D01*
X66945359Y-57150000D01*
X66927963Y-57326627D01*
X66904492Y-57404000D01*
X66876443Y-57496467D01*
X66831459Y-57580625D01*
X66792778Y-57652991D01*
X66763448Y-57688729D01*
X66680186Y-57790186D01*
X66578729Y-57873448D01*
X66542991Y-57902778D01*
X66542989Y-57902779D01*
X66386467Y-57986443D01*
X66329853Y-58003616D01*
X66216627Y-58037963D01*
X66153453Y-58044185D01*
X66084260Y-58051000D01*
X65995740Y-58051000D01*
X65926547Y-58044185D01*
X65863373Y-58037963D01*
X65750147Y-58003616D01*
X65693533Y-57986443D01*
X65537011Y-57902779D01*
X65537009Y-57902778D01*
X65501271Y-57873448D01*
X65399814Y-57790186D01*
X65316552Y-57688729D01*
X65287222Y-57652991D01*
X65248541Y-57580625D01*
X65203557Y-57496467D01*
X65175508Y-57404000D01*
X65152037Y-57326627D01*
X65134641Y-57150000D01*
X65152037Y-56973373D01*
X65203557Y-56803534D01*
X65203557Y-56803533D01*
X65287221Y-56647011D01*
X65287222Y-56647009D01*
X65316552Y-56611271D01*
X65399814Y-56509814D01*
X65501271Y-56426552D01*
X65537009Y-56397222D01*
X65554913Y-56387652D01*
X65693533Y-56313557D01*
X65750147Y-56296384D01*
X65863373Y-56262037D01*
X65929557Y-56255519D01*
X65995740Y-56249000D01*
X66084260Y-56249000D01*
X66150443Y-56255519D01*
X66150443Y-56255519D01*
G37*
G36*
X59321000Y-58051000D02*
X57519000Y-58051000D01*
X57519000Y-56249000D01*
X59321000Y-56249000D01*
X59321000Y-58051000D01*
X59321000Y-58051000D01*
G37*
G36*
X61070443Y-56255519D02*
X61136627Y-56262037D01*
X61249853Y-56296384D01*
X61306467Y-56313557D01*
X61445087Y-56387652D01*
X61462991Y-56397222D01*
X61498729Y-56426552D01*
X61600186Y-56509814D01*
X61683448Y-56611271D01*
X61712778Y-56647009D01*
X61712779Y-56647011D01*
X61796443Y-56803533D01*
X61796443Y-56803534D01*
X61847963Y-56973373D01*
X61865359Y-57150000D01*
X61847963Y-57326627D01*
X61824492Y-57404000D01*
X61796443Y-57496467D01*
X61751459Y-57580625D01*
X61712778Y-57652991D01*
X61683448Y-57688729D01*
X61600186Y-57790186D01*
X61498729Y-57873448D01*
X61462991Y-57902778D01*
X61462989Y-57902779D01*
X61306467Y-57986443D01*
X61249853Y-58003616D01*
X61136627Y-58037963D01*
X61073453Y-58044185D01*
X61004260Y-58051000D01*
X60915740Y-58051000D01*
X60846547Y-58044185D01*
X60783373Y-58037963D01*
X60670147Y-58003616D01*
X60613533Y-57986443D01*
X60457011Y-57902779D01*
X60457009Y-57902778D01*
X60421271Y-57873448D01*
X60319814Y-57790186D01*
X60236552Y-57688729D01*
X60207222Y-57652991D01*
X60168541Y-57580625D01*
X60123557Y-57496467D01*
X60095508Y-57404000D01*
X60072037Y-57326627D01*
X60054641Y-57150000D01*
X60072037Y-56973373D01*
X60123557Y-56803534D01*
X60123557Y-56803533D01*
X60207221Y-56647011D01*
X60207222Y-56647009D01*
X60236552Y-56611271D01*
X60319814Y-56509814D01*
X60421271Y-56426552D01*
X60457009Y-56397222D01*
X60474913Y-56387652D01*
X60613533Y-56313557D01*
X60670147Y-56296384D01*
X60783373Y-56262037D01*
X60849557Y-56255519D01*
X60915740Y-56249000D01*
X61004260Y-56249000D01*
X61070443Y-56255519D01*
X61070443Y-56255519D01*
G37*
G36*
X63610443Y-56255519D02*
X63676627Y-56262037D01*
X63789853Y-56296384D01*
X63846467Y-56313557D01*
X63985087Y-56387652D01*
X64002991Y-56397222D01*
X64038729Y-56426552D01*
X64140186Y-56509814D01*
X64223448Y-56611271D01*
X64252778Y-56647009D01*
X64252779Y-56647011D01*
X64336443Y-56803533D01*
X64336443Y-56803534D01*
X64387963Y-56973373D01*
X64405359Y-57150000D01*
X64387963Y-57326627D01*
X64364492Y-57404000D01*
X64336443Y-57496467D01*
X64291459Y-57580625D01*
X64252778Y-57652991D01*
X64223448Y-57688729D01*
X64140186Y-57790186D01*
X64038729Y-57873448D01*
X64002991Y-57902778D01*
X64002989Y-57902779D01*
X63846467Y-57986443D01*
X63789853Y-58003616D01*
X63676627Y-58037963D01*
X63613453Y-58044185D01*
X63544260Y-58051000D01*
X63455740Y-58051000D01*
X63386547Y-58044185D01*
X63323373Y-58037963D01*
X63210147Y-58003616D01*
X63153533Y-57986443D01*
X62997011Y-57902779D01*
X62997009Y-57902778D01*
X62961271Y-57873448D01*
X62859814Y-57790186D01*
X62776552Y-57688729D01*
X62747222Y-57652991D01*
X62708541Y-57580625D01*
X62663557Y-57496467D01*
X62635508Y-57404000D01*
X62612037Y-57326627D01*
X62594641Y-57150000D01*
X62612037Y-56973373D01*
X62663557Y-56803534D01*
X62663557Y-56803533D01*
X62747221Y-56647011D01*
X62747222Y-56647009D01*
X62776552Y-56611271D01*
X62859814Y-56509814D01*
X62961271Y-56426552D01*
X62997009Y-56397222D01*
X63014913Y-56387652D01*
X63153533Y-56313557D01*
X63210147Y-56296384D01*
X63323373Y-56262037D01*
X63389557Y-56255519D01*
X63455740Y-56249000D01*
X63544260Y-56249000D01*
X63610443Y-56255519D01*
X63610443Y-56255519D01*
G37*
G36*
X68690443Y-56255519D02*
X68756627Y-56262037D01*
X68869853Y-56296384D01*
X68926467Y-56313557D01*
X69065087Y-56387652D01*
X69082991Y-56397222D01*
X69118729Y-56426552D01*
X69220186Y-56509814D01*
X69303448Y-56611271D01*
X69332778Y-56647009D01*
X69332779Y-56647011D01*
X69416443Y-56803533D01*
X69416443Y-56803534D01*
X69467963Y-56973373D01*
X69485359Y-57150000D01*
X69467963Y-57326627D01*
X69444492Y-57404000D01*
X69416443Y-57496467D01*
X69371459Y-57580625D01*
X69332778Y-57652991D01*
X69303448Y-57688729D01*
X69220186Y-57790186D01*
X69118729Y-57873448D01*
X69082991Y-57902778D01*
X69082989Y-57902779D01*
X68926467Y-57986443D01*
X68869853Y-58003616D01*
X68756627Y-58037963D01*
X68693453Y-58044185D01*
X68624260Y-58051000D01*
X68535740Y-58051000D01*
X68466547Y-58044185D01*
X68403373Y-58037963D01*
X68290147Y-58003616D01*
X68233533Y-57986443D01*
X68077011Y-57902779D01*
X68077009Y-57902778D01*
X68041271Y-57873448D01*
X67939814Y-57790186D01*
X67856552Y-57688729D01*
X67827222Y-57652991D01*
X67788541Y-57580625D01*
X67743557Y-57496467D01*
X67715508Y-57404000D01*
X67692037Y-57326627D01*
X67674641Y-57150000D01*
X67692037Y-56973373D01*
X67743557Y-56803534D01*
X67743557Y-56803533D01*
X67827221Y-56647011D01*
X67827222Y-56647009D01*
X67856552Y-56611271D01*
X67939814Y-56509814D01*
X68041271Y-56426552D01*
X68077009Y-56397222D01*
X68094913Y-56387652D01*
X68233533Y-56313557D01*
X68290147Y-56296384D01*
X68403373Y-56262037D01*
X68469557Y-56255519D01*
X68535740Y-56249000D01*
X68624260Y-56249000D01*
X68690443Y-56255519D01*
X68690443Y-56255519D01*
G37*
G36*
X73770443Y-56255519D02*
X73836627Y-56262037D01*
X73949853Y-56296384D01*
X74006467Y-56313557D01*
X74145087Y-56387652D01*
X74162991Y-56397222D01*
X74198729Y-56426552D01*
X74300186Y-56509814D01*
X74383448Y-56611271D01*
X74412778Y-56647009D01*
X74412779Y-56647011D01*
X74496443Y-56803533D01*
X74496443Y-56803534D01*
X74547963Y-56973373D01*
X74565359Y-57150000D01*
X74547963Y-57326627D01*
X74524492Y-57404000D01*
X74496443Y-57496467D01*
X74451459Y-57580625D01*
X74412778Y-57652991D01*
X74383448Y-57688729D01*
X74300186Y-57790186D01*
X74198729Y-57873448D01*
X74162991Y-57902778D01*
X74162989Y-57902779D01*
X74006467Y-57986443D01*
X73949853Y-58003616D01*
X73836627Y-58037963D01*
X73773453Y-58044185D01*
X73704260Y-58051000D01*
X73615740Y-58051000D01*
X73546547Y-58044185D01*
X73483373Y-58037963D01*
X73370147Y-58003616D01*
X73313533Y-57986443D01*
X73157011Y-57902779D01*
X73157009Y-57902778D01*
X73121271Y-57873448D01*
X73019814Y-57790186D01*
X72936552Y-57688729D01*
X72907222Y-57652991D01*
X72868541Y-57580625D01*
X72823557Y-57496467D01*
X72795508Y-57404000D01*
X72772037Y-57326627D01*
X72754641Y-57150000D01*
X72772037Y-56973373D01*
X72823557Y-56803534D01*
X72823557Y-56803533D01*
X72907221Y-56647011D01*
X72907222Y-56647009D01*
X72936552Y-56611271D01*
X73019814Y-56509814D01*
X73121271Y-56426552D01*
X73157009Y-56397222D01*
X73174913Y-56387652D01*
X73313533Y-56313557D01*
X73370147Y-56296384D01*
X73483373Y-56262037D01*
X73549557Y-56255519D01*
X73615740Y-56249000D01*
X73704260Y-56249000D01*
X73770443Y-56255519D01*
X73770443Y-56255519D01*
G37*
G36*
X76310443Y-56255519D02*
X76376627Y-56262037D01*
X76489853Y-56296384D01*
X76546467Y-56313557D01*
X76685087Y-56387652D01*
X76702991Y-56397222D01*
X76738729Y-56426552D01*
X76840186Y-56509814D01*
X76923448Y-56611271D01*
X76952778Y-56647009D01*
X76952779Y-56647011D01*
X77036443Y-56803533D01*
X77036443Y-56803534D01*
X77087963Y-56973373D01*
X77105359Y-57150000D01*
X77087963Y-57326627D01*
X77064492Y-57404000D01*
X77036443Y-57496467D01*
X76991459Y-57580625D01*
X76952778Y-57652991D01*
X76923448Y-57688729D01*
X76840186Y-57790186D01*
X76738729Y-57873448D01*
X76702991Y-57902778D01*
X76702989Y-57902779D01*
X76546467Y-57986443D01*
X76489853Y-58003616D01*
X76376627Y-58037963D01*
X76313453Y-58044185D01*
X76244260Y-58051000D01*
X76155740Y-58051000D01*
X76086547Y-58044185D01*
X76023373Y-58037963D01*
X75910147Y-58003616D01*
X75853533Y-57986443D01*
X75697011Y-57902779D01*
X75697009Y-57902778D01*
X75661271Y-57873448D01*
X75559814Y-57790186D01*
X75476552Y-57688729D01*
X75447222Y-57652991D01*
X75408541Y-57580625D01*
X75363557Y-57496467D01*
X75335508Y-57404000D01*
X75312037Y-57326627D01*
X75294641Y-57150000D01*
X75312037Y-56973373D01*
X75363557Y-56803534D01*
X75363557Y-56803533D01*
X75447221Y-56647011D01*
X75447222Y-56647009D01*
X75476552Y-56611271D01*
X75559814Y-56509814D01*
X75661271Y-56426552D01*
X75697009Y-56397222D01*
X75714913Y-56387652D01*
X75853533Y-56313557D01*
X75910147Y-56296384D01*
X76023373Y-56262037D01*
X76089557Y-56255519D01*
X76155740Y-56249000D01*
X76244260Y-56249000D01*
X76310443Y-56255519D01*
X76310443Y-56255519D01*
G37*
G36*
X71230443Y-56255519D02*
X71296627Y-56262037D01*
X71409853Y-56296384D01*
X71466467Y-56313557D01*
X71605087Y-56387652D01*
X71622991Y-56397222D01*
X71658729Y-56426552D01*
X71760186Y-56509814D01*
X71843448Y-56611271D01*
X71872778Y-56647009D01*
X71872779Y-56647011D01*
X71956443Y-56803533D01*
X71956443Y-56803534D01*
X72007963Y-56973373D01*
X72025359Y-57150000D01*
X72007963Y-57326627D01*
X71984492Y-57404000D01*
X71956443Y-57496467D01*
X71911459Y-57580625D01*
X71872778Y-57652991D01*
X71843448Y-57688729D01*
X71760186Y-57790186D01*
X71658729Y-57873448D01*
X71622991Y-57902778D01*
X71622989Y-57902779D01*
X71466467Y-57986443D01*
X71409853Y-58003616D01*
X71296627Y-58037963D01*
X71233453Y-58044185D01*
X71164260Y-58051000D01*
X71075740Y-58051000D01*
X71006547Y-58044185D01*
X70943373Y-58037963D01*
X70830147Y-58003616D01*
X70773533Y-57986443D01*
X70617011Y-57902779D01*
X70617009Y-57902778D01*
X70581271Y-57873448D01*
X70479814Y-57790186D01*
X70396552Y-57688729D01*
X70367222Y-57652991D01*
X70328541Y-57580625D01*
X70283557Y-57496467D01*
X70255508Y-57404000D01*
X70232037Y-57326627D01*
X70214641Y-57150000D01*
X70232037Y-56973373D01*
X70283557Y-56803534D01*
X70283557Y-56803533D01*
X70367221Y-56647011D01*
X70367222Y-56647009D01*
X70396552Y-56611271D01*
X70479814Y-56509814D01*
X70581271Y-56426552D01*
X70617009Y-56397222D01*
X70634913Y-56387652D01*
X70773533Y-56313557D01*
X70830147Y-56296384D01*
X70943373Y-56262037D01*
X71009557Y-56255519D01*
X71075740Y-56249000D01*
X71164260Y-56249000D01*
X71230443Y-56255519D01*
X71230443Y-56255519D01*
G37*
G36*
X54254373Y-51805024D02*
X54455589Y-51845048D01*
X54834671Y-52002069D01*
X55171294Y-52226994D01*
X55175838Y-52230030D01*
X55465970Y-52520162D01*
X55693932Y-52861331D01*
X55850952Y-53240412D01*
X55931000Y-53642841D01*
X55931000Y-54053159D01*
X55897055Y-54223814D01*
X55850952Y-54455589D01*
X55786993Y-54610000D01*
X55693932Y-54834669D01*
X55465970Y-55175838D01*
X55175838Y-55465970D01*
X55175835Y-55465972D01*
X54834671Y-55693931D01*
X54455589Y-55850952D01*
X54053159Y-55931000D01*
X53642841Y-55931000D01*
X53240411Y-55850952D01*
X52861329Y-55693931D01*
X52520165Y-55465972D01*
X52520162Y-55465970D01*
X52230030Y-55175838D01*
X52002068Y-54834669D01*
X51909007Y-54610000D01*
X51845048Y-54455589D01*
X51798945Y-54223814D01*
X51765000Y-54053159D01*
X51765000Y-53642841D01*
X51845048Y-53240412D01*
X52002068Y-52861331D01*
X52230030Y-52520162D01*
X52520162Y-52230030D01*
X52524706Y-52226994D01*
X52861329Y-52002069D01*
X53240411Y-51845048D01*
X53642841Y-51765000D01*
X54053159Y-51765000D01*
X54254373Y-51805024D01*
X54254373Y-51805024D01*
G37*
G36*
X119278373Y-51805024D02*
X119479589Y-51845048D01*
X119858671Y-52002069D01*
X120195294Y-52226994D01*
X120199838Y-52230030D01*
X120489970Y-52520162D01*
X120717932Y-52861331D01*
X120874952Y-53240412D01*
X120955000Y-53642841D01*
X120955000Y-54053159D01*
X120921055Y-54223814D01*
X120874952Y-54455589D01*
X120810993Y-54610000D01*
X120717932Y-54834669D01*
X120489970Y-55175838D01*
X120199838Y-55465970D01*
X120199835Y-55465972D01*
X119858671Y-55693931D01*
X119479589Y-55850952D01*
X119077159Y-55931000D01*
X118666841Y-55931000D01*
X118264411Y-55850952D01*
X117885329Y-55693931D01*
X117544165Y-55465972D01*
X117544162Y-55465970D01*
X117254030Y-55175838D01*
X117026068Y-54834669D01*
X116933007Y-54610000D01*
X116869048Y-54455589D01*
X116822945Y-54223814D01*
X116789000Y-54053159D01*
X116789000Y-53642841D01*
X116869048Y-53240412D01*
X117026068Y-52861331D01*
X117254030Y-52520162D01*
X117544162Y-52230030D01*
X117548706Y-52226994D01*
X117885329Y-52002069D01*
X118264411Y-51845048D01*
X118666841Y-51765000D01*
X119077159Y-51765000D01*
X119278373Y-51805024D01*
X119278373Y-51805024D01*
G37*
G36*
X107298443Y-53969519D02*
X107364627Y-53976037D01*
X107477853Y-54010384D01*
X107534467Y-54027557D01*
X107582362Y-54053158D01*
X107690991Y-54111222D01*
X107726729Y-54140552D01*
X107828186Y-54223814D01*
X107911448Y-54325271D01*
X107940778Y-54361009D01*
X107940779Y-54361011D01*
X108024443Y-54517533D01*
X108024443Y-54517534D01*
X108075963Y-54687373D01*
X108093359Y-54864000D01*
X108075963Y-55040627D01*
X108041616Y-55153853D01*
X108024443Y-55210467D01*
X108003213Y-55250185D01*
X107940778Y-55366991D01*
X107911448Y-55402729D01*
X107828186Y-55504186D01*
X107726729Y-55587448D01*
X107690991Y-55616778D01*
X107690989Y-55616779D01*
X107534467Y-55700443D01*
X107477853Y-55717616D01*
X107364627Y-55751963D01*
X107298443Y-55758481D01*
X107232260Y-55765000D01*
X107143740Y-55765000D01*
X107077557Y-55758481D01*
X107011373Y-55751963D01*
X106898147Y-55717616D01*
X106841533Y-55700443D01*
X106685011Y-55616779D01*
X106685009Y-55616778D01*
X106649271Y-55587448D01*
X106547814Y-55504186D01*
X106464552Y-55402729D01*
X106435222Y-55366991D01*
X106372787Y-55250185D01*
X106351557Y-55210467D01*
X106334384Y-55153853D01*
X106300037Y-55040627D01*
X106282641Y-54864000D01*
X106300037Y-54687373D01*
X106351557Y-54517534D01*
X106351557Y-54517533D01*
X106435221Y-54361011D01*
X106435222Y-54361009D01*
X106464552Y-54325271D01*
X106547814Y-54223814D01*
X106649271Y-54140552D01*
X106685009Y-54111222D01*
X106793638Y-54053158D01*
X106841533Y-54027557D01*
X106898147Y-54010384D01*
X107011373Y-53976037D01*
X107077557Y-53969519D01*
X107143740Y-53963000D01*
X107232260Y-53963000D01*
X107298443Y-53969519D01*
X107298443Y-53969519D01*
G37*
G36*
X66150442Y-53715518D02*
X66216627Y-53722037D01*
X66329853Y-53756384D01*
X66386467Y-53773557D01*
X66525087Y-53847652D01*
X66542991Y-53857222D01*
X66578729Y-53886552D01*
X66680186Y-53969814D01*
X66748584Y-54053159D01*
X66792778Y-54107009D01*
X66792779Y-54107011D01*
X66876443Y-54263533D01*
X66876443Y-54263534D01*
X66927963Y-54433373D01*
X66945359Y-54610000D01*
X66927963Y-54786627D01*
X66913389Y-54834671D01*
X66876443Y-54956467D01*
X66831459Y-55040625D01*
X66792778Y-55112991D01*
X66763448Y-55148729D01*
X66680186Y-55250186D01*
X66578729Y-55333448D01*
X66542991Y-55362778D01*
X66542989Y-55362779D01*
X66386467Y-55446443D01*
X66329853Y-55463616D01*
X66216627Y-55497963D01*
X66153453Y-55504185D01*
X66084260Y-55511000D01*
X65995740Y-55511000D01*
X65926547Y-55504185D01*
X65863373Y-55497963D01*
X65750147Y-55463616D01*
X65693533Y-55446443D01*
X65537011Y-55362779D01*
X65537009Y-55362778D01*
X65501271Y-55333448D01*
X65399814Y-55250186D01*
X65316552Y-55148729D01*
X65287222Y-55112991D01*
X65248541Y-55040625D01*
X65203557Y-54956467D01*
X65166611Y-54834671D01*
X65152037Y-54786627D01*
X65134641Y-54610000D01*
X65152037Y-54433373D01*
X65203557Y-54263534D01*
X65203557Y-54263533D01*
X65287221Y-54107011D01*
X65287222Y-54107009D01*
X65331416Y-54053159D01*
X65399814Y-53969814D01*
X65501271Y-53886552D01*
X65537009Y-53857222D01*
X65554913Y-53847652D01*
X65693533Y-53773557D01*
X65750147Y-53756384D01*
X65863373Y-53722037D01*
X65929558Y-53715518D01*
X65995740Y-53709000D01*
X66084260Y-53709000D01*
X66150442Y-53715518D01*
X66150442Y-53715518D01*
G37*
G36*
X71230442Y-53715518D02*
X71296627Y-53722037D01*
X71409853Y-53756384D01*
X71466467Y-53773557D01*
X71605087Y-53847652D01*
X71622991Y-53857222D01*
X71658729Y-53886552D01*
X71760186Y-53969814D01*
X71828584Y-54053159D01*
X71872778Y-54107009D01*
X71872779Y-54107011D01*
X71956443Y-54263533D01*
X71956443Y-54263534D01*
X72007963Y-54433373D01*
X72025359Y-54610000D01*
X72007963Y-54786627D01*
X71993389Y-54834671D01*
X71956443Y-54956467D01*
X71911459Y-55040625D01*
X71872778Y-55112991D01*
X71843448Y-55148729D01*
X71760186Y-55250186D01*
X71658729Y-55333448D01*
X71622991Y-55362778D01*
X71622989Y-55362779D01*
X71466467Y-55446443D01*
X71409853Y-55463616D01*
X71296627Y-55497963D01*
X71233453Y-55504185D01*
X71164260Y-55511000D01*
X71075740Y-55511000D01*
X71006547Y-55504185D01*
X70943373Y-55497963D01*
X70830147Y-55463616D01*
X70773533Y-55446443D01*
X70617011Y-55362779D01*
X70617009Y-55362778D01*
X70581271Y-55333448D01*
X70479814Y-55250186D01*
X70396552Y-55148729D01*
X70367222Y-55112991D01*
X70328541Y-55040625D01*
X70283557Y-54956467D01*
X70246611Y-54834671D01*
X70232037Y-54786627D01*
X70214641Y-54610000D01*
X70232037Y-54433373D01*
X70283557Y-54263534D01*
X70283557Y-54263533D01*
X70367221Y-54107011D01*
X70367222Y-54107009D01*
X70411416Y-54053159D01*
X70479814Y-53969814D01*
X70581271Y-53886552D01*
X70617009Y-53857222D01*
X70634913Y-53847652D01*
X70773533Y-53773557D01*
X70830147Y-53756384D01*
X70943373Y-53722037D01*
X71009558Y-53715518D01*
X71075740Y-53709000D01*
X71164260Y-53709000D01*
X71230442Y-53715518D01*
X71230442Y-53715518D01*
G37*
G36*
X63610442Y-53715518D02*
X63676627Y-53722037D01*
X63789853Y-53756384D01*
X63846467Y-53773557D01*
X63985087Y-53847652D01*
X64002991Y-53857222D01*
X64038729Y-53886552D01*
X64140186Y-53969814D01*
X64208584Y-54053159D01*
X64252778Y-54107009D01*
X64252779Y-54107011D01*
X64336443Y-54263533D01*
X64336443Y-54263534D01*
X64387963Y-54433373D01*
X64405359Y-54610000D01*
X64387963Y-54786627D01*
X64373389Y-54834671D01*
X64336443Y-54956467D01*
X64291459Y-55040625D01*
X64252778Y-55112991D01*
X64223448Y-55148729D01*
X64140186Y-55250186D01*
X64038729Y-55333448D01*
X64002991Y-55362778D01*
X64002989Y-55362779D01*
X63846467Y-55446443D01*
X63789853Y-55463616D01*
X63676627Y-55497963D01*
X63613453Y-55504185D01*
X63544260Y-55511000D01*
X63455740Y-55511000D01*
X63386547Y-55504185D01*
X63323373Y-55497963D01*
X63210147Y-55463616D01*
X63153533Y-55446443D01*
X62997011Y-55362779D01*
X62997009Y-55362778D01*
X62961271Y-55333448D01*
X62859814Y-55250186D01*
X62776552Y-55148729D01*
X62747222Y-55112991D01*
X62708541Y-55040625D01*
X62663557Y-54956467D01*
X62626611Y-54834671D01*
X62612037Y-54786627D01*
X62594641Y-54610000D01*
X62612037Y-54433373D01*
X62663557Y-54263534D01*
X62663557Y-54263533D01*
X62747221Y-54107011D01*
X62747222Y-54107009D01*
X62791416Y-54053159D01*
X62859814Y-53969814D01*
X62961271Y-53886552D01*
X62997009Y-53857222D01*
X63014913Y-53847652D01*
X63153533Y-53773557D01*
X63210147Y-53756384D01*
X63323373Y-53722037D01*
X63389558Y-53715518D01*
X63455740Y-53709000D01*
X63544260Y-53709000D01*
X63610442Y-53715518D01*
X63610442Y-53715518D01*
G37*
G36*
X68690442Y-53715518D02*
X68756627Y-53722037D01*
X68869853Y-53756384D01*
X68926467Y-53773557D01*
X69065087Y-53847652D01*
X69082991Y-53857222D01*
X69118729Y-53886552D01*
X69220186Y-53969814D01*
X69288584Y-54053159D01*
X69332778Y-54107009D01*
X69332779Y-54107011D01*
X69416443Y-54263533D01*
X69416443Y-54263534D01*
X69467963Y-54433373D01*
X69485359Y-54610000D01*
X69467963Y-54786627D01*
X69453389Y-54834671D01*
X69416443Y-54956467D01*
X69371459Y-55040625D01*
X69332778Y-55112991D01*
X69303448Y-55148729D01*
X69220186Y-55250186D01*
X69118729Y-55333448D01*
X69082991Y-55362778D01*
X69082989Y-55362779D01*
X68926467Y-55446443D01*
X68869853Y-55463616D01*
X68756627Y-55497963D01*
X68693453Y-55504185D01*
X68624260Y-55511000D01*
X68535740Y-55511000D01*
X68466547Y-55504185D01*
X68403373Y-55497963D01*
X68290147Y-55463616D01*
X68233533Y-55446443D01*
X68077011Y-55362779D01*
X68077009Y-55362778D01*
X68041271Y-55333448D01*
X67939814Y-55250186D01*
X67856552Y-55148729D01*
X67827222Y-55112991D01*
X67788541Y-55040625D01*
X67743557Y-54956467D01*
X67706611Y-54834671D01*
X67692037Y-54786627D01*
X67674641Y-54610000D01*
X67692037Y-54433373D01*
X67743557Y-54263534D01*
X67743557Y-54263533D01*
X67827221Y-54107011D01*
X67827222Y-54107009D01*
X67871416Y-54053159D01*
X67939814Y-53969814D01*
X68041271Y-53886552D01*
X68077009Y-53857222D01*
X68094913Y-53847652D01*
X68233533Y-53773557D01*
X68290147Y-53756384D01*
X68403373Y-53722037D01*
X68469558Y-53715518D01*
X68535740Y-53709000D01*
X68624260Y-53709000D01*
X68690442Y-53715518D01*
X68690442Y-53715518D01*
G37*
G36*
X61070442Y-53715518D02*
X61136627Y-53722037D01*
X61249853Y-53756384D01*
X61306467Y-53773557D01*
X61445087Y-53847652D01*
X61462991Y-53857222D01*
X61498729Y-53886552D01*
X61600186Y-53969814D01*
X61668584Y-54053159D01*
X61712778Y-54107009D01*
X61712779Y-54107011D01*
X61796443Y-54263533D01*
X61796443Y-54263534D01*
X61847963Y-54433373D01*
X61865359Y-54610000D01*
X61847963Y-54786627D01*
X61833389Y-54834671D01*
X61796443Y-54956467D01*
X61751459Y-55040625D01*
X61712778Y-55112991D01*
X61683448Y-55148729D01*
X61600186Y-55250186D01*
X61498729Y-55333448D01*
X61462991Y-55362778D01*
X61462989Y-55362779D01*
X61306467Y-55446443D01*
X61249853Y-55463616D01*
X61136627Y-55497963D01*
X61073453Y-55504185D01*
X61004260Y-55511000D01*
X60915740Y-55511000D01*
X60846547Y-55504185D01*
X60783373Y-55497963D01*
X60670147Y-55463616D01*
X60613533Y-55446443D01*
X60457011Y-55362779D01*
X60457009Y-55362778D01*
X60421271Y-55333448D01*
X60319814Y-55250186D01*
X60236552Y-55148729D01*
X60207222Y-55112991D01*
X60168541Y-55040625D01*
X60123557Y-54956467D01*
X60086611Y-54834671D01*
X60072037Y-54786627D01*
X60054641Y-54610000D01*
X60072037Y-54433373D01*
X60123557Y-54263534D01*
X60123557Y-54263533D01*
X60207221Y-54107011D01*
X60207222Y-54107009D01*
X60251416Y-54053159D01*
X60319814Y-53969814D01*
X60421271Y-53886552D01*
X60457009Y-53857222D01*
X60474913Y-53847652D01*
X60613533Y-53773557D01*
X60670147Y-53756384D01*
X60783373Y-53722037D01*
X60849558Y-53715518D01*
X60915740Y-53709000D01*
X61004260Y-53709000D01*
X61070442Y-53715518D01*
X61070442Y-53715518D01*
G37*
G36*
X58530442Y-53715518D02*
X58596627Y-53722037D01*
X58709853Y-53756384D01*
X58766467Y-53773557D01*
X58905087Y-53847652D01*
X58922991Y-53857222D01*
X58958729Y-53886552D01*
X59060186Y-53969814D01*
X59128584Y-54053159D01*
X59172778Y-54107009D01*
X59172779Y-54107011D01*
X59256443Y-54263533D01*
X59256443Y-54263534D01*
X59307963Y-54433373D01*
X59325359Y-54610000D01*
X59307963Y-54786627D01*
X59293389Y-54834671D01*
X59256443Y-54956467D01*
X59211459Y-55040625D01*
X59172778Y-55112991D01*
X59143448Y-55148729D01*
X59060186Y-55250186D01*
X58958729Y-55333448D01*
X58922991Y-55362778D01*
X58922989Y-55362779D01*
X58766467Y-55446443D01*
X58709853Y-55463616D01*
X58596627Y-55497963D01*
X58533453Y-55504185D01*
X58464260Y-55511000D01*
X58375740Y-55511000D01*
X58306547Y-55504185D01*
X58243373Y-55497963D01*
X58130147Y-55463616D01*
X58073533Y-55446443D01*
X57917011Y-55362779D01*
X57917009Y-55362778D01*
X57881271Y-55333448D01*
X57779814Y-55250186D01*
X57696552Y-55148729D01*
X57667222Y-55112991D01*
X57628541Y-55040625D01*
X57583557Y-54956467D01*
X57546611Y-54834671D01*
X57532037Y-54786627D01*
X57514641Y-54610000D01*
X57532037Y-54433373D01*
X57583557Y-54263534D01*
X57583557Y-54263533D01*
X57667221Y-54107011D01*
X57667222Y-54107009D01*
X57711416Y-54053159D01*
X57779814Y-53969814D01*
X57881271Y-53886552D01*
X57917009Y-53857222D01*
X57934913Y-53847652D01*
X58073533Y-53773557D01*
X58130147Y-53756384D01*
X58243373Y-53722037D01*
X58309558Y-53715518D01*
X58375740Y-53709000D01*
X58464260Y-53709000D01*
X58530442Y-53715518D01*
X58530442Y-53715518D01*
G37*
G36*
X73770442Y-53715518D02*
X73836627Y-53722037D01*
X73949853Y-53756384D01*
X74006467Y-53773557D01*
X74145087Y-53847652D01*
X74162991Y-53857222D01*
X74198729Y-53886552D01*
X74300186Y-53969814D01*
X74368584Y-54053159D01*
X74412778Y-54107009D01*
X74412779Y-54107011D01*
X74496443Y-54263533D01*
X74496443Y-54263534D01*
X74547963Y-54433373D01*
X74565359Y-54610000D01*
X74547963Y-54786627D01*
X74533389Y-54834671D01*
X74496443Y-54956467D01*
X74451459Y-55040625D01*
X74412778Y-55112991D01*
X74383448Y-55148729D01*
X74300186Y-55250186D01*
X74198729Y-55333448D01*
X74162991Y-55362778D01*
X74162989Y-55362779D01*
X74006467Y-55446443D01*
X73949853Y-55463616D01*
X73836627Y-55497963D01*
X73773453Y-55504185D01*
X73704260Y-55511000D01*
X73615740Y-55511000D01*
X73546547Y-55504185D01*
X73483373Y-55497963D01*
X73370147Y-55463616D01*
X73313533Y-55446443D01*
X73157011Y-55362779D01*
X73157009Y-55362778D01*
X73121271Y-55333448D01*
X73019814Y-55250186D01*
X72936552Y-55148729D01*
X72907222Y-55112991D01*
X72868541Y-55040625D01*
X72823557Y-54956467D01*
X72786611Y-54834671D01*
X72772037Y-54786627D01*
X72754641Y-54610000D01*
X72772037Y-54433373D01*
X72823557Y-54263534D01*
X72823557Y-54263533D01*
X72907221Y-54107011D01*
X72907222Y-54107009D01*
X72951416Y-54053159D01*
X73019814Y-53969814D01*
X73121271Y-53886552D01*
X73157009Y-53857222D01*
X73174913Y-53847652D01*
X73313533Y-53773557D01*
X73370147Y-53756384D01*
X73483373Y-53722037D01*
X73549558Y-53715518D01*
X73615740Y-53709000D01*
X73704260Y-53709000D01*
X73770442Y-53715518D01*
X73770442Y-53715518D01*
G37*
G36*
X76310442Y-53715518D02*
X76376627Y-53722037D01*
X76489853Y-53756384D01*
X76546467Y-53773557D01*
X76685087Y-53847652D01*
X76702991Y-53857222D01*
X76738729Y-53886552D01*
X76840186Y-53969814D01*
X76908584Y-54053159D01*
X76952778Y-54107009D01*
X76952779Y-54107011D01*
X77036443Y-54263533D01*
X77036443Y-54263534D01*
X77087963Y-54433373D01*
X77105359Y-54610000D01*
X77087963Y-54786627D01*
X77073389Y-54834671D01*
X77036443Y-54956467D01*
X76991459Y-55040625D01*
X76952778Y-55112991D01*
X76923448Y-55148729D01*
X76840186Y-55250186D01*
X76738729Y-55333448D01*
X76702991Y-55362778D01*
X76702989Y-55362779D01*
X76546467Y-55446443D01*
X76489853Y-55463616D01*
X76376627Y-55497963D01*
X76313453Y-55504185D01*
X76244260Y-55511000D01*
X76155740Y-55511000D01*
X76086547Y-55504185D01*
X76023373Y-55497963D01*
X75910147Y-55463616D01*
X75853533Y-55446443D01*
X75697011Y-55362779D01*
X75697009Y-55362778D01*
X75661271Y-55333448D01*
X75559814Y-55250186D01*
X75476552Y-55148729D01*
X75447222Y-55112991D01*
X75408541Y-55040625D01*
X75363557Y-54956467D01*
X75326611Y-54834671D01*
X75312037Y-54786627D01*
X75294641Y-54610000D01*
X75312037Y-54433373D01*
X75363557Y-54263534D01*
X75363557Y-54263533D01*
X75447221Y-54107011D01*
X75447222Y-54107009D01*
X75491416Y-54053159D01*
X75559814Y-53969814D01*
X75661271Y-53886552D01*
X75697009Y-53857222D01*
X75714913Y-53847652D01*
X75853533Y-53773557D01*
X75910147Y-53756384D01*
X76023373Y-53722037D01*
X76089558Y-53715518D01*
X76155740Y-53709000D01*
X76244260Y-53709000D01*
X76310442Y-53715518D01*
X76310442Y-53715518D01*
G37*
M02*
