M48
;DRILL file {KiCad 5.0.2-bee76a0~70~ubuntu16.04.1} date Sat 11 May 2019 07:36:03 PM EDT
;FORMAT={-:-/ absolute / metric / decimal}
FMAT,2
METRIC,TZ
T1C0.330
T2C0.500
T3C0.800
T4C0.900
T5C1.000
T6C1.300
T7C3.048
%
G90
G05
T1
X60.261Y-62.611
X64.77Y-60.439
X67.183Y-61.087
X70.231Y-61.709
X73.406Y-62.484
X100.584Y-65.024
T2
X99.822Y-84.074
X101.722Y-84.074
T3
X99.822Y-73.152
X99.822Y-80.772
X102.362Y-73.152
X102.362Y-80.772
X104.902Y-73.152
X104.902Y-80.772
X107.442Y-73.152
X107.442Y-80.772
X74.168Y-85.09
X81.788Y-85.09
X74.168Y-88.392
X81.788Y-88.392
T4
X55.626Y-65.786
X55.626Y-81.026
X58.166Y-65.786
X58.166Y-81.026
X60.706Y-65.786
X60.706Y-81.026
X63.246Y-65.786
X63.246Y-81.026
X65.786Y-65.786
X65.786Y-81.026
X68.326Y-65.786
X68.326Y-81.026
X70.866Y-65.786
X70.866Y-81.026
X73.406Y-65.786
X73.406Y-81.026
X75.946Y-65.786
X75.946Y-81.026
X78.486Y-65.786
X78.486Y-81.026
X81.026Y-65.786
X81.026Y-81.026
X83.566Y-65.786
X83.566Y-81.026
X86.106Y-65.786
X86.106Y-81.026
X88.646Y-65.786
X88.646Y-81.026
X91.186Y-65.786
X91.186Y-81.026
T5
X58.42Y-54.61
X58.42Y-57.15
X60.96Y-54.61
X60.96Y-57.15
X63.5Y-54.61
X63.5Y-57.15
X66.04Y-54.61
X66.04Y-57.15
X68.58Y-54.61
X68.58Y-57.15
X71.12Y-54.61
X71.12Y-57.15
X73.66Y-54.61
X73.66Y-57.15
X76.2Y-54.61
X76.2Y-57.15
X107.188Y-54.864
X107.188Y-57.404
X107.188Y-59.944
X107.188Y-62.484
X107.188Y-65.024
X107.188Y-67.564
T6
X116.078Y-85.932
X116.078Y-90.932
T7
X53.848Y-53.848
X53.848Y-98.552
X118.872Y-53.848
X118.872Y-98.552
T0
M30
